%TF.GenerationSoftware,KiCad,Pcbnew,8.99.0-2651-g201b60c670*%
%TF.CreationDate,2024-10-15T13:29:42+02:00*%
%TF.ProjectId,SAO Dev Board,53414f20-4465-4762-9042-6f6172642e6b,1.1*%
%TF.SameCoordinates,PX1c9c380PY1c9c380*%
%TF.FileFunction,Copper,L2,Bot*%
%TF.FilePolarity,Positive*%
%FSLAX46Y46*%
G04 Gerber Fmt 4.6, Leading zero omitted, Abs format (unit mm)*
G04 Created by KiCad (PCBNEW 8.99.0-2651-g201b60c670) date 2024-10-15 13:29:42*
%MOMM*%
%LPD*%
G01*
G04 APERTURE LIST*
G04 Aperture macros list*
%AMRoundRect*
0 Rectangle with rounded corners*
0 $1 Rounding radius*
0 $2 $3 $4 $5 $6 $7 $8 $9 X,Y pos of 4 corners*
0 Add a 4 corners polygon primitive as box body*
4,1,4,$2,$3,$4,$5,$6,$7,$8,$9,$2,$3,0*
0 Add four circle primitives for the rounded corners*
1,1,$1+$1,$2,$3*
1,1,$1+$1,$4,$5*
1,1,$1+$1,$6,$7*
1,1,$1+$1,$8,$9*
0 Add four rect primitives between the rounded corners*
20,1,$1+$1,$2,$3,$4,$5,0*
20,1,$1+$1,$4,$5,$6,$7,0*
20,1,$1+$1,$6,$7,$8,$9,0*
20,1,$1+$1,$8,$9,$2,$3,0*%
G04 Aperture macros list end*
%TA.AperFunction,ComponentPad*%
%ADD10O,1.700000X4.200000*%
%TD*%
%TA.AperFunction,ComponentPad*%
%ADD11RoundRect,0.250000X0.600000X-1.850000X0.600000X1.850000X-0.600000X1.850000X-0.600000X-1.850000X0*%
%TD*%
%TA.AperFunction,ComponentPad*%
%ADD12C,0.700000*%
%TD*%
%TA.AperFunction,ComponentPad*%
%ADD13C,4.400000*%
%TD*%
%TA.AperFunction,WasherPad*%
%ADD14C,1.700000*%
%TD*%
%TA.AperFunction,ComponentPad*%
%ADD15C,3.500000*%
%TD*%
%TA.AperFunction,ComponentPad*%
%ADD16R,1.700000X1.700000*%
%TD*%
%TA.AperFunction,ComponentPad*%
%ADD17O,1.700000X1.700000*%
%TD*%
%TA.AperFunction,ComponentPad*%
%ADD18O,1.727200X1.727200*%
%TD*%
%TA.AperFunction,ComponentPad*%
%ADD19R,1.727200X1.727200*%
%TD*%
%TA.AperFunction,ComponentPad*%
%ADD20C,1.727200*%
%TD*%
%TA.AperFunction,ComponentPad*%
%ADD21RoundRect,0.250000X-0.600000X1.850000X-0.600000X-1.850000X0.600000X-1.850000X0.600000X1.850000X0*%
%TD*%
%TA.AperFunction,ViaPad*%
%ADD22C,0.600000*%
%TD*%
%TA.AperFunction,ViaPad*%
%ADD23C,1.000000*%
%TD*%
%TA.AperFunction,ViaPad*%
%ADD24C,0.500000*%
%TD*%
%TA.AperFunction,Conductor*%
%ADD25C,0.200000*%
%TD*%
%TA.AperFunction,Conductor*%
%ADD26C,1.000000*%
%TD*%
G04 APERTURE END LIST*
D10*
%TO.P,J8,1,Pin_1*%
%TO.N,LED_RED*%
X90320000Y-125174999D03*
%TO.P,J8,2,Pin_2*%
%TO.N,LED_GREEN*%
X92860004Y-125175002D03*
D11*
%TO.P,J8,3,Pin_3*%
%TO.N,GND*%
X95400000Y-125174999D03*
D10*
%TO.P,J8,4,Pin_4*%
%TO.N,BTN_UP*%
X97940000Y-125174999D03*
%TO.P,J8,5,Pin_5*%
%TO.N,BTN_DOWN*%
X100480000Y-125175004D03*
%TO.P,J8,6,Pin_6*%
%TO.N,BTN_LEFT*%
X103019999Y-125174999D03*
%TO.P,J8,7,Pin_7*%
%TO.N,BTN_RIGHT*%
X105560000Y-125174999D03*
D11*
%TO.P,J8,8,Pin_8*%
%TO.N,GND*%
X108100000Y-125174999D03*
D10*
%TO.P,J8,9,Pin_9*%
%TO.N,BTN_CENTER*%
X110640000Y-125174999D03*
%TO.P,J8,10,Pin_10*%
%TO.N,/RPi Pico X/RUN*%
X113179998Y-125174999D03*
%TO.P,J8,11,Pin_11*%
%TO.N,SAO_GPIO1*%
X115720000Y-125174999D03*
%TO.P,J8,12,Pin_12*%
%TO.N,SAO_GPIO2*%
X118260000Y-125174999D03*
D11*
%TO.P,J8,13,Pin_13*%
%TO.N,GNDA*%
X120800000Y-125175000D03*
D10*
%TO.P,J8,14,Pin_14*%
%TO.N,/RPi Pico X/GP28_A2*%
X123340000Y-125174999D03*
%TO.P,J8,15,Pin_15*%
%TO.N,/RPi Pico X/ADC_VREF*%
X125880000Y-125174999D03*
%TO.P,J8,16,Pin_16*%
%TO.N,VCC*%
X128419999Y-125174999D03*
%TO.P,J8,17,Pin_17*%
%TO.N,/RPi Pico X/3V3_EN*%
X130960000Y-125174999D03*
D11*
%TO.P,J8,18,Pin_18*%
%TO.N,GND*%
X133500000Y-125174999D03*
D10*
%TO.P,J8,19,Pin_19*%
%TO.N,PICO_VIN*%
X136040002Y-125175000D03*
%TO.P,J8,20,Pin_20*%
%TO.N,VBUS*%
X138580000Y-125174999D03*
%TD*%
D12*
%TO.P,REF\u002A\u002A,1*%
%TO.N,N/C*%
X133350000Y-5000000D03*
X133833274Y-3833274D03*
X133833274Y-6166726D03*
X135000000Y-3350000D03*
D13*
X135000000Y-5000000D03*
D12*
X135000000Y-6650000D03*
X136166726Y-3833274D03*
X136166726Y-6166726D03*
X136650000Y-5000000D03*
%TD*%
D14*
%TO.P,J2,*%
%TO.N,*%
X7760000Y-119530000D03*
X7760000Y-129690000D03*
X17920000Y-119530000D03*
X17920000Y-129690000D03*
D15*
%TO.P,J2,1,Pin_1*%
%TO.N,Net-(J2-Pin_1)*%
X14120000Y-124610000D03*
%TD*%
D16*
%TO.P,J4,1,Pin_1*%
%TO.N,Net-(J2-Pin_1)*%
X24275000Y-123335000D03*
D17*
%TO.P,J4,2,Pin_2*%
%TO.N,SAO_VCC*%
X26815000Y-123335000D03*
%TO.P,J4,3,Pin_3*%
%TO.N,Net-(J2-Pin_1)*%
X24275000Y-125875000D03*
%TO.P,J4,4,Pin_4*%
%TO.N,GND*%
X26815000Y-125875000D03*
%TD*%
D16*
%TO.P,J5,1,Pin_1*%
%TO.N,VCC*%
X39520000Y-103020000D03*
D17*
%TO.P,J5,2,Pin_2*%
%TO.N,SAO_VCC*%
X42060000Y-103020000D03*
%TO.P,J5,3,Pin_3*%
%TO.N,Net-(J3-Pin_4)*%
X39520000Y-105560000D03*
%TO.P,J5,4,Pin_4*%
%TO.N,SAO_VCC*%
X42060000Y-105560000D03*
%TD*%
D16*
%TO.P,J3,1,Pin_1*%
%TO.N,Net-(J1-Pin_1)*%
X24275000Y-103035000D03*
D17*
%TO.P,J3,2,Pin_2*%
%TO.N,VCC*%
X26815000Y-103035000D03*
%TO.P,J3,3,Pin_3*%
%TO.N,Net-(J1-Pin_1)*%
X24275000Y-105575000D03*
%TO.P,J3,4,Pin_4*%
%TO.N,Net-(J3-Pin_4)*%
X26815000Y-105575000D03*
%TO.P,J3,5,Pin_5*%
%TO.N,Net-(J1-Pin_1)*%
X24275000Y-108115000D03*
%TO.P,J3,6,Pin_6*%
%TO.N,PICO_VIN*%
X26815000Y-108115000D03*
%TD*%
D18*
%TO.P,X1,1,VCC*%
%TO.N,SAO_VCC*%
X67520000Y-68750000D03*
D19*
%TO.P,X1,2,GND*%
%TO.N,GND*%
X67520000Y-71290000D03*
D18*
%TO.P,X1,3,SDA*%
%TO.N,I2C0_SDA*%
X70060000Y-68750000D03*
%TO.P,X1,4,SCL*%
%TO.N,I2C0_SCL*%
X70060000Y-71290000D03*
D20*
%TO.P,X1,5,GPIO1*%
%TO.N,SAO_GPIO1*%
X72600000Y-68750000D03*
%TO.P,X1,6,GPIO2*%
%TO.N,SAO_GPIO2*%
X72600000Y-71290000D03*
%TD*%
D14*
%TO.P,J1,*%
%TO.N,*%
X7760000Y-100480000D03*
X7760000Y-110640000D03*
X17920000Y-100480000D03*
X17920000Y-110640000D03*
D15*
%TO.P,J1,1,Pin_1*%
%TO.N,Net-(J1-Pin_1)*%
X14120000Y-105560000D03*
%TD*%
D10*
%TO.P,J7,1,Pin_1*%
%TO.N,/RPi Pico X/GP0*%
X138580000Y-104995000D03*
%TO.P,J7,2,Pin_2*%
%TO.N,/RPi Pico X/GP1*%
X136039996Y-104994999D03*
D21*
%TO.P,J7,3,Pin_3*%
%TO.N,GND*%
X133500000Y-104995000D03*
D10*
%TO.P,J7,4,Pin_4*%
%TO.N,/RPi Pico X/GP2*%
X130960000Y-104995000D03*
%TO.P,J7,5,Pin_5*%
%TO.N,/RPi Pico X/GP3*%
X128420001Y-104994997D03*
%TO.P,J7,6,Pin_6*%
%TO.N,I2C0_SDA*%
X125880001Y-104995000D03*
%TO.P,J7,7,Pin_7*%
%TO.N,I2C0_SCL*%
X123340000Y-104995000D03*
D21*
%TO.P,J7,8,Pin_8*%
%TO.N,GND*%
X120800000Y-104995000D03*
D10*
%TO.P,J7,9,Pin_9*%
%TO.N,/RPi Pico X/GP6*%
X118260000Y-104995000D03*
%TO.P,J7,10,Pin_10*%
%TO.N,/RPi Pico X/GP7*%
X115720002Y-104995000D03*
%TO.P,J7,11,Pin_11*%
%TO.N,/RPi Pico X/GP8*%
X113180000Y-104995000D03*
%TO.P,J7,12,Pin_12*%
%TO.N,/RPi Pico X/GP9*%
X110640000Y-104995000D03*
D21*
%TO.P,J7,13,Pin_13*%
%TO.N,GND*%
X108100000Y-104994999D03*
D10*
%TO.P,J7,14,Pin_14*%
%TO.N,/RPi Pico X/GP10*%
X105560000Y-104995000D03*
%TO.P,J7,15,Pin_15*%
%TO.N,/RPi Pico X/GP11*%
X103020000Y-104995000D03*
%TO.P,J7,16,Pin_16*%
%TO.N,/RPi Pico X/GP12*%
X100480003Y-104995000D03*
%TO.P,J7,17,Pin_17*%
%TO.N,/RPi Pico X/GP13*%
X97940000Y-104995000D03*
D21*
%TO.P,J7,18,Pin_18*%
%TO.N,GND*%
X95400000Y-104995000D03*
D10*
%TO.P,J7,19,Pin_19*%
%TO.N,I2C1_SDA*%
X92859998Y-104994999D03*
%TO.P,J7,20,Pin_20*%
%TO.N,I2C1_SCL*%
X90320000Y-104995000D03*
%TD*%
D12*
%TO.P,REF\u002A\u002A,1*%
%TO.N,N/C*%
X3350000Y-135000000D03*
X3833274Y-133833274D03*
X3833274Y-136166726D03*
X5000000Y-133350000D03*
D13*
X5000000Y-135000000D03*
D12*
X5000000Y-136650000D03*
X6166726Y-133833274D03*
X6166726Y-136166726D03*
X6650000Y-135000000D03*
%TD*%
%TO.P,REF\u002A\u002A,1*%
%TO.N,N/C*%
X133350000Y-135000000D03*
X133833274Y-133833274D03*
X133833274Y-136166726D03*
X135000000Y-133350000D03*
D13*
X135000000Y-135000000D03*
D12*
X135000000Y-136650000D03*
X136166726Y-133833274D03*
X136166726Y-136166726D03*
X136650000Y-135000000D03*
%TD*%
%TO.P,REF\u002A\u002A,1*%
%TO.N,N/C*%
X3350000Y-5000000D03*
X3833274Y-3833274D03*
X3833274Y-6166726D03*
X5000000Y-3350000D03*
D13*
X5000000Y-5000000D03*
D12*
X5000000Y-6650000D03*
X6166726Y-3833274D03*
X6166726Y-6166726D03*
X6650000Y-5000000D03*
%TD*%
D22*
%TO.N,BTN_UP*%
X73400000Y-121600000D03*
%TO.N,BTN_RIGHT*%
X88300000Y-130800000D03*
%TO.N,SAO_GPIO1*%
X115720000Y-120020000D03*
D23*
%TO.N,VCC*%
X128419999Y-114450001D03*
X44350000Y-109370000D03*
D22*
%TO.N,GND*%
X51928000Y-127900000D03*
X50528000Y-130050000D03*
X46328000Y-129850000D03*
X46678000Y-134750000D03*
X40228000Y-129600000D03*
X42328000Y-129750000D03*
X44678000Y-134800000D03*
X53528000Y-128400000D03*
X47628000Y-128550000D03*
X45078000Y-123900000D03*
X44028000Y-129750000D03*
X42178000Y-123900000D03*
%TO.N,SAO_VCC*%
X80800000Y-105100000D03*
X59080000Y-103020000D03*
%TO.N,BTN_LEFT*%
X71400000Y-120900000D03*
D24*
%TO.N,I2C1_SDA*%
X62100000Y-104100000D03*
%TO.N,I2C1_SCL*%
X61415978Y-103951283D03*
D22*
%TO.N,BTN_CENTER*%
X69100000Y-119100000D03*
%TO.N,BTN_DOWN*%
X74800000Y-129900000D03*
%TD*%
D25*
%TO.N,BTN_RIGHT*%
X105560000Y-127740000D02*
X102500000Y-130800000D01*
%TO.N,BTN_UP*%
X73400000Y-121600000D02*
X73700000Y-121900000D01*
X73700000Y-121900000D02*
X97182500Y-121900000D01*
X97182500Y-121900000D02*
X97940000Y-122657500D01*
X97940000Y-122657500D02*
X97940000Y-123974999D01*
%TO.N,BTN_LEFT*%
X71400000Y-120900000D02*
X73700000Y-120900000D01*
X73700000Y-120900000D02*
X74300000Y-121500000D01*
X103019999Y-122719999D02*
X103019999Y-123974999D01*
X74300000Y-121500000D02*
X101800000Y-121500000D01*
X101800000Y-121500000D02*
X103019999Y-122719999D01*
%TO.N,BTN_DOWN*%
X74800000Y-129900000D02*
X98400000Y-129900000D01*
X98400000Y-129900000D02*
X100480000Y-127820000D01*
X100480000Y-127820000D02*
X100480000Y-123975004D01*
%TO.N,BTN_RIGHT*%
X88300000Y-130800000D02*
X102500000Y-130800000D01*
X105560000Y-127740000D02*
X105560000Y-123974999D01*
%TO.N,BTN_CENTER*%
X69100000Y-119100000D02*
X107200000Y-119100000D01*
X107200000Y-119100000D02*
X110640000Y-122540000D01*
X110640000Y-122540000D02*
X110640000Y-123974999D01*
%TO.N,SAO_GPIO1*%
X115720000Y-120020000D02*
X115720000Y-123974999D01*
D26*
%TO.N,VCC*%
X26815000Y-103035000D02*
X29835000Y-103035000D01*
X36170000Y-109370000D02*
X123339998Y-109370000D01*
X29835000Y-103035000D02*
X36170000Y-109370000D01*
X123339998Y-109370000D02*
X128419999Y-114450001D01*
%TO.N,PICO_VIN*%
X122195000Y-111400000D02*
X127785000Y-116990000D01*
X127785000Y-116990000D02*
X130960000Y-116990000D01*
X130960000Y-116990000D02*
X136040002Y-122070002D01*
X30100000Y-111400000D02*
X122195000Y-111400000D01*
X26815000Y-108115000D02*
X30100000Y-111400000D01*
X136040002Y-122070002D02*
X136040002Y-123975000D01*
D25*
%TO.N,SAO_VCC*%
X80800000Y-105100000D02*
X61160000Y-105100000D01*
X61160000Y-105100000D02*
X59080000Y-103020000D01*
%TO.N,/RPi Pico X/ADC_VREF*%
X125880000Y-123974999D02*
X125900000Y-123994999D01*
%TO.N,I2C1_SDA*%
X85300000Y-104100000D02*
X62100000Y-104100000D01*
X89200000Y-108000000D02*
X85300000Y-104100000D01*
X92400000Y-108000000D02*
X89200000Y-108000000D01*
X92859998Y-107540002D02*
X92400000Y-108000000D01*
X92859998Y-106194999D02*
X92859998Y-107540002D01*
%TO.N,I2C1_SCL*%
X61867261Y-103500000D02*
X85265686Y-103500000D01*
X85265686Y-103500000D02*
X87960686Y-106195000D01*
X87960686Y-106195000D02*
X90320000Y-106195000D01*
X61415978Y-103951283D02*
X61867261Y-103500000D01*
%TD*%
%TA.AperFunction,Conductor*%
%TO.N,GND*%
G36*
X135002152Y-500593D02*
G01*
X135387853Y-517434D01*
X135396432Y-518184D01*
X135777053Y-568295D01*
X135785544Y-569792D01*
X136160338Y-652881D01*
X136168673Y-655115D01*
X136534797Y-770553D01*
X136542913Y-773507D01*
X136897587Y-920418D01*
X136905398Y-924060D01*
X137245910Y-1101320D01*
X137253390Y-1105638D01*
X137577167Y-1311906D01*
X137584241Y-1316860D01*
X137888797Y-1550554D01*
X137895398Y-1556093D01*
X138178459Y-1815470D01*
X138184529Y-1821540D01*
X138443905Y-2104599D01*
X138449445Y-2111202D01*
X138683139Y-2415758D01*
X138688093Y-2422832D01*
X138894361Y-2746609D01*
X138898679Y-2754089D01*
X139075935Y-3094593D01*
X139079585Y-3102420D01*
X139226492Y-3457086D01*
X139229446Y-3465202D01*
X139344884Y-3831326D01*
X139347119Y-3839668D01*
X139430205Y-4214445D01*
X139431705Y-4222951D01*
X139481813Y-4603554D01*
X139482566Y-4612158D01*
X139499406Y-4997847D01*
X139499500Y-5002165D01*
X139499500Y-102939861D01*
X139480593Y-102998052D01*
X139431093Y-103034016D01*
X139369907Y-103034016D01*
X139330498Y-103009866D01*
X139249655Y-102929023D01*
X139249651Y-102929020D01*
X139077597Y-102814058D01*
X138886418Y-102734869D01*
X138683467Y-102694500D01*
X138683465Y-102694500D01*
X138476535Y-102694500D01*
X138476532Y-102694500D01*
X138273581Y-102734869D01*
X138082402Y-102814058D01*
X137910348Y-102929020D01*
X137764020Y-103075348D01*
X137649058Y-103247402D01*
X137569869Y-103438581D01*
X137529500Y-103641532D01*
X137529500Y-106348467D01*
X137569869Y-106551418D01*
X137649058Y-106742597D01*
X137764020Y-106914651D01*
X137764023Y-106914655D01*
X137910345Y-107060977D01*
X138082402Y-107175941D01*
X138273580Y-107255130D01*
X138476535Y-107295500D01*
X138476536Y-107295500D01*
X138683464Y-107295500D01*
X138683465Y-107295500D01*
X138886420Y-107255130D01*
X139077598Y-107175941D01*
X139249655Y-107060977D01*
X139330498Y-106980133D01*
X139385013Y-106952358D01*
X139445445Y-106961929D01*
X139488710Y-107005194D01*
X139499500Y-107050139D01*
X139499500Y-123119860D01*
X139480593Y-123178051D01*
X139431093Y-123214015D01*
X139369907Y-123214015D01*
X139330498Y-123189865D01*
X139249655Y-123109022D01*
X139249651Y-123109019D01*
X139077597Y-122994057D01*
X138886418Y-122914868D01*
X138683467Y-122874499D01*
X138683465Y-122874499D01*
X138476535Y-122874499D01*
X138476532Y-122874499D01*
X138273581Y-122914868D01*
X138082402Y-122994057D01*
X137910348Y-123109019D01*
X137764020Y-123255347D01*
X137649058Y-123427401D01*
X137569869Y-123618580D01*
X137529500Y-123821531D01*
X137529500Y-126528466D01*
X137569869Y-126731417D01*
X137649058Y-126922596D01*
X137753746Y-127079274D01*
X137764023Y-127094654D01*
X137910345Y-127240976D01*
X138082402Y-127355940D01*
X138273580Y-127435129D01*
X138476535Y-127475499D01*
X138476536Y-127475499D01*
X138683464Y-127475499D01*
X138683465Y-127475499D01*
X138886420Y-127435129D01*
X139077598Y-127355940D01*
X139249655Y-127240976D01*
X139330498Y-127160132D01*
X139385013Y-127132357D01*
X139445445Y-127141928D01*
X139488710Y-127185193D01*
X139499500Y-127230138D01*
X139499500Y-134997834D01*
X139499406Y-135002152D01*
X139482566Y-135387841D01*
X139481813Y-135396445D01*
X139431705Y-135777048D01*
X139430205Y-135785554D01*
X139347119Y-136160331D01*
X139344884Y-136168673D01*
X139229446Y-136534797D01*
X139226492Y-136542913D01*
X139079585Y-136897579D01*
X139075935Y-136905406D01*
X138898679Y-137245910D01*
X138894361Y-137253390D01*
X138688093Y-137577167D01*
X138683139Y-137584241D01*
X138449445Y-137888797D01*
X138443895Y-137895411D01*
X138184540Y-138178447D01*
X138178447Y-138184540D01*
X138162727Y-138198946D01*
X137895413Y-138443894D01*
X137888797Y-138449445D01*
X137584241Y-138683139D01*
X137577167Y-138688093D01*
X137253390Y-138894361D01*
X137245910Y-138898679D01*
X136905406Y-139075935D01*
X136897579Y-139079585D01*
X136542913Y-139226492D01*
X136534797Y-139229446D01*
X136168673Y-139344884D01*
X136160331Y-139347119D01*
X135785554Y-139430205D01*
X135777048Y-139431705D01*
X135396445Y-139481813D01*
X135387841Y-139482566D01*
X135002153Y-139499406D01*
X134997835Y-139499500D01*
X5002165Y-139499500D01*
X4997847Y-139499406D01*
X4612158Y-139482566D01*
X4603554Y-139481813D01*
X4222951Y-139431705D01*
X4214445Y-139430205D01*
X3839668Y-139347119D01*
X3831326Y-139344884D01*
X3465202Y-139229446D01*
X3457086Y-139226492D01*
X3102420Y-139079585D01*
X3094593Y-139075935D01*
X2754089Y-138898679D01*
X2746609Y-138894361D01*
X2422832Y-138688093D01*
X2415758Y-138683139D01*
X2111202Y-138449445D01*
X2104599Y-138443905D01*
X1821540Y-138184529D01*
X1815470Y-138178459D01*
X1556093Y-137895398D01*
X1550554Y-137888797D01*
X1316860Y-137584241D01*
X1311906Y-137577167D01*
X1105638Y-137253390D01*
X1101320Y-137245910D01*
X924064Y-136905406D01*
X920414Y-136897579D01*
X902063Y-136853276D01*
X773507Y-136542913D01*
X770553Y-136534797D01*
X655115Y-136168673D01*
X652880Y-136160331D01*
X569792Y-135785544D01*
X568294Y-135777048D01*
X544743Y-135598160D01*
X518184Y-135396432D01*
X517434Y-135387853D01*
X500594Y-135002152D01*
X500547Y-135000000D01*
X2594754Y-135000000D01*
X2613720Y-135301462D01*
X2670317Y-135598151D01*
X2670319Y-135598160D01*
X2729835Y-135781330D01*
X2763661Y-135885436D01*
X2892267Y-136158736D01*
X2892274Y-136158749D01*
X3054114Y-136413767D01*
X3246645Y-136646497D01*
X3246655Y-136646508D01*
X3466837Y-136853274D01*
X3466840Y-136853276D01*
X3711192Y-137030807D01*
X3711196Y-137030809D01*
X3711205Y-137030816D01*
X3975896Y-137176332D01*
X4256738Y-137287525D01*
X4549302Y-137362642D01*
X4749082Y-137387880D01*
X4848972Y-137400500D01*
X4848973Y-137400500D01*
X5151028Y-137400500D01*
X5200972Y-137394190D01*
X5450698Y-137362642D01*
X5743262Y-137287525D01*
X6024104Y-137176332D01*
X6288795Y-137030816D01*
X6533162Y-136853274D01*
X6753349Y-136646504D01*
X6945885Y-136413768D01*
X7107733Y-136158736D01*
X7236341Y-135885430D01*
X7329681Y-135598160D01*
X7386280Y-135301457D01*
X7405246Y-135000000D01*
X132594754Y-135000000D01*
X132613720Y-135301462D01*
X132670317Y-135598151D01*
X132670319Y-135598160D01*
X132729835Y-135781330D01*
X132763661Y-135885436D01*
X132892267Y-136158736D01*
X132892274Y-136158749D01*
X133054114Y-136413767D01*
X133246645Y-136646497D01*
X133246655Y-136646508D01*
X133466837Y-136853274D01*
X133466840Y-136853276D01*
X133711192Y-137030807D01*
X133711196Y-137030809D01*
X133711205Y-137030816D01*
X133975896Y-137176332D01*
X134256738Y-137287525D01*
X134549302Y-137362642D01*
X134749082Y-137387880D01*
X134848972Y-137400500D01*
X134848973Y-137400500D01*
X135151028Y-137400500D01*
X135200972Y-137394190D01*
X135450698Y-137362642D01*
X135743262Y-137287525D01*
X136024104Y-137176332D01*
X136288795Y-137030816D01*
X136533162Y-136853274D01*
X136753349Y-136646504D01*
X136945885Y-136413768D01*
X137107733Y-136158736D01*
X137236341Y-135885430D01*
X137329681Y-135598160D01*
X137386280Y-135301457D01*
X137405246Y-135000000D01*
X137386280Y-134698543D01*
X137329681Y-134401840D01*
X137236341Y-134114570D01*
X137107733Y-133841264D01*
X137107729Y-133841259D01*
X137107725Y-133841250D01*
X136945885Y-133586232D01*
X136753354Y-133353502D01*
X136753344Y-133353491D01*
X136533162Y-133146725D01*
X136533159Y-133146723D01*
X136288807Y-132969192D01*
X136288800Y-132969187D01*
X136288795Y-132969184D01*
X136024104Y-132823668D01*
X136024102Y-132823667D01*
X136024100Y-132823666D01*
X135743262Y-132712475D01*
X135450698Y-132637358D01*
X135450691Y-132637357D01*
X135450695Y-132637357D01*
X135151028Y-132599500D01*
X135151027Y-132599500D01*
X134848973Y-132599500D01*
X134848972Y-132599500D01*
X134549306Y-132637357D01*
X134256737Y-132712475D01*
X133975899Y-132823666D01*
X133711213Y-132969179D01*
X133711192Y-132969192D01*
X133466840Y-133146723D01*
X133466837Y-133146725D01*
X133246655Y-133353491D01*
X133246645Y-133353502D01*
X133054114Y-133586232D01*
X132892274Y-133841250D01*
X132892267Y-133841263D01*
X132763661Y-134114563D01*
X132670320Y-134401838D01*
X132670317Y-134401848D01*
X132613720Y-134698537D01*
X132594754Y-135000000D01*
X7405246Y-135000000D01*
X7386280Y-134698543D01*
X7329681Y-134401840D01*
X7236341Y-134114570D01*
X7107733Y-133841264D01*
X7107729Y-133841259D01*
X7107725Y-133841250D01*
X6945885Y-133586232D01*
X6753354Y-133353502D01*
X6753344Y-133353491D01*
X6533162Y-133146725D01*
X6533159Y-133146723D01*
X6288807Y-132969192D01*
X6288800Y-132969187D01*
X6288795Y-132969184D01*
X6024104Y-132823668D01*
X6024102Y-132823667D01*
X6024100Y-132823666D01*
X5743262Y-132712475D01*
X5450698Y-132637358D01*
X5450691Y-132637357D01*
X5450695Y-132637357D01*
X5151028Y-132599500D01*
X5151027Y-132599500D01*
X4848973Y-132599500D01*
X4848972Y-132599500D01*
X4549306Y-132637357D01*
X4256737Y-132712475D01*
X3975899Y-132823666D01*
X3711213Y-132969179D01*
X3711192Y-132969192D01*
X3466840Y-133146723D01*
X3466837Y-133146725D01*
X3246655Y-133353491D01*
X3246645Y-133353502D01*
X3054114Y-133586232D01*
X2892274Y-133841250D01*
X2892267Y-133841263D01*
X2763661Y-134114563D01*
X2670320Y-134401838D01*
X2670317Y-134401848D01*
X2613720Y-134698537D01*
X2594754Y-135000000D01*
X500547Y-135000000D01*
X500500Y-134997834D01*
X500500Y-129689996D01*
X6704417Y-129689996D01*
X6704417Y-129690003D01*
X6724698Y-129895929D01*
X6724699Y-129895934D01*
X6784768Y-130093954D01*
X6882316Y-130276452D01*
X6998363Y-130417856D01*
X7013590Y-130436410D01*
X7013595Y-130436414D01*
X7173547Y-130567683D01*
X7173548Y-130567683D01*
X7173550Y-130567685D01*
X7356046Y-130665232D01*
X7493997Y-130707078D01*
X7554065Y-130725300D01*
X7554070Y-130725301D01*
X7759997Y-130745583D01*
X7760000Y-130745583D01*
X7760003Y-130745583D01*
X7965929Y-130725301D01*
X7965934Y-130725300D01*
X8163954Y-130665232D01*
X8346450Y-130567685D01*
X8506410Y-130436410D01*
X8637685Y-130276450D01*
X8735232Y-130093954D01*
X8795300Y-129895934D01*
X8795301Y-129895929D01*
X8815583Y-129690003D01*
X8815583Y-129689996D01*
X16864417Y-129689996D01*
X16864417Y-129690003D01*
X16884698Y-129895929D01*
X16884699Y-129895934D01*
X16944768Y-130093954D01*
X17042316Y-130276452D01*
X17158363Y-130417856D01*
X17173590Y-130436410D01*
X17173595Y-130436414D01*
X17333547Y-130567683D01*
X17333548Y-130567683D01*
X17333550Y-130567685D01*
X17516046Y-130665232D01*
X17653997Y-130707078D01*
X17714065Y-130725300D01*
X17714070Y-130725301D01*
X17919997Y-130745583D01*
X17920000Y-130745583D01*
X17920003Y-130745583D01*
X18125929Y-130725301D01*
X18125934Y-130725300D01*
X18311859Y-130668901D01*
X69284855Y-130668901D01*
X69284855Y-130816738D01*
X69313697Y-130961734D01*
X69362693Y-131080021D01*
X69370271Y-131098315D01*
X69452404Y-131221236D01*
X69556939Y-131325771D01*
X69679860Y-131407904D01*
X69816442Y-131464478D01*
X69961437Y-131493320D01*
X69961438Y-131493320D01*
X70109272Y-131493320D01*
X70109273Y-131493320D01*
X70254268Y-131464478D01*
X70390850Y-131407904D01*
X70513771Y-131325771D01*
X70618306Y-131221236D01*
X70700439Y-131098315D01*
X70757013Y-130961733D01*
X70785855Y-130816738D01*
X70785855Y-130668902D01*
X70757013Y-130523907D01*
X70700439Y-130387325D01*
X70618306Y-130264404D01*
X70513771Y-130159869D01*
X70390850Y-130077736D01*
X70390848Y-130077735D01*
X70254269Y-130021162D01*
X70109273Y-129992320D01*
X69961437Y-129992320D01*
X69961436Y-129992320D01*
X69816440Y-130021162D01*
X69679861Y-130077735D01*
X69556940Y-130159868D01*
X69452403Y-130264405D01*
X69370270Y-130387326D01*
X69313697Y-130523905D01*
X69284855Y-130668901D01*
X18311859Y-130668901D01*
X18323954Y-130665232D01*
X18506450Y-130567685D01*
X18666410Y-130436410D01*
X18797685Y-130276450D01*
X18895232Y-130093954D01*
X18954068Y-129899997D01*
X74294353Y-129899997D01*
X74294353Y-129900002D01*
X74314834Y-130042456D01*
X74338353Y-130093954D01*
X74374623Y-130173373D01*
X74427736Y-130234669D01*
X74468873Y-130282144D01*
X74589942Y-130359950D01*
X74589947Y-130359953D01*
X74683169Y-130387325D01*
X74728035Y-130400499D01*
X74728036Y-130400499D01*
X74728039Y-130400500D01*
X74728041Y-130400500D01*
X74871959Y-130400500D01*
X74871961Y-130400500D01*
X75010053Y-130359953D01*
X75131128Y-130282143D01*
X75172264Y-130234668D01*
X75224660Y-130203073D01*
X75247083Y-130200500D01*
X87969923Y-130200500D01*
X88028114Y-130219407D01*
X88064078Y-130268907D01*
X88064078Y-130330093D01*
X88028114Y-130379593D01*
X88023447Y-130382784D01*
X87968872Y-130417857D01*
X87874622Y-130526628D01*
X87814834Y-130657543D01*
X87794353Y-130799997D01*
X87794353Y-130800002D01*
X87814834Y-130942456D01*
X87859592Y-131040460D01*
X87874623Y-131073373D01*
X87927736Y-131134669D01*
X87968873Y-131182144D01*
X88029702Y-131221236D01*
X88089947Y-131259953D01*
X88196403Y-131291211D01*
X88228035Y-131300499D01*
X88228036Y-131300499D01*
X88228039Y-131300500D01*
X88228041Y-131300500D01*
X88371959Y-131300500D01*
X88371961Y-131300500D01*
X88510053Y-131259953D01*
X88631128Y-131182143D01*
X88672264Y-131134668D01*
X88724660Y-131103073D01*
X88747083Y-131100500D01*
X102539563Y-131100500D01*
X102539563Y-131100499D01*
X102615989Y-131080021D01*
X102684511Y-131040460D01*
X102740460Y-130984511D01*
X105800460Y-127924511D01*
X105800463Y-127924506D01*
X105840020Y-127855992D01*
X105840020Y-127855990D01*
X105840022Y-127855988D01*
X105860500Y-127779562D01*
X105860500Y-127700438D01*
X105860500Y-127503730D01*
X105879407Y-127445539D01*
X105921614Y-127412266D01*
X106057598Y-127355940D01*
X106229655Y-127240976D01*
X106375977Y-127094654D01*
X106490941Y-126922597D01*
X106570130Y-126731419D01*
X106610500Y-126528464D01*
X106610500Y-125275000D01*
X107050001Y-125275000D01*
X107050001Y-127079202D01*
X107052850Y-127109599D01*
X107052850Y-127109601D01*
X107097654Y-127237646D01*
X107178207Y-127346789D01*
X107178209Y-127346791D01*
X107287352Y-127427344D01*
X107415398Y-127472148D01*
X107445789Y-127474998D01*
X107999998Y-127474998D01*
X108000000Y-127474997D01*
X108000000Y-125275000D01*
X108200000Y-125275000D01*
X108200000Y-127474997D01*
X108200001Y-127474998D01*
X108754203Y-127474998D01*
X108784600Y-127472148D01*
X108784602Y-127472148D01*
X108912647Y-127427344D01*
X109021790Y-127346791D01*
X109021792Y-127346789D01*
X109102345Y-127237646D01*
X109147149Y-127109600D01*
X109149999Y-127079210D01*
X109150000Y-127079209D01*
X109150000Y-125275000D01*
X109149999Y-125274999D01*
X108200001Y-125274999D01*
X108200000Y-125275000D01*
X108000000Y-125275000D01*
X107999999Y-125274999D01*
X107050002Y-125274999D01*
X107050001Y-125275000D01*
X106610500Y-125275000D01*
X106610500Y-123821534D01*
X106570130Y-123618579D01*
X106490941Y-123427401D01*
X106386296Y-123270787D01*
X107050000Y-123270787D01*
X107050000Y-125074998D01*
X107050001Y-125074999D01*
X107999999Y-125074999D01*
X108000000Y-125074998D01*
X108000000Y-124465841D01*
X108034174Y-124474999D01*
X108165826Y-124474999D01*
X108200000Y-124465841D01*
X108200000Y-125074998D01*
X108200001Y-125074999D01*
X109149998Y-125074999D01*
X109149999Y-125074998D01*
X109149999Y-123270795D01*
X109147149Y-123240398D01*
X109147149Y-123240396D01*
X109102345Y-123112351D01*
X109021792Y-123003208D01*
X109021790Y-123003206D01*
X108912647Y-122922653D01*
X108784601Y-122877849D01*
X108754211Y-122874999D01*
X108200001Y-122874999D01*
X108200000Y-122875000D01*
X108200000Y-123484156D01*
X108165826Y-123474999D01*
X108034174Y-123474999D01*
X108000000Y-123484156D01*
X108000000Y-122875000D01*
X107999999Y-122874999D01*
X107445796Y-122874999D01*
X107415399Y-122877849D01*
X107415397Y-122877849D01*
X107287352Y-122922653D01*
X107178209Y-123003206D01*
X107178207Y-123003208D01*
X107097654Y-123112351D01*
X107052850Y-123240397D01*
X107050000Y-123270787D01*
X106386296Y-123270787D01*
X106375977Y-123255344D01*
X106229655Y-123109022D01*
X106229651Y-123109019D01*
X106057597Y-122994057D01*
X105866418Y-122914868D01*
X105663467Y-122874499D01*
X105663465Y-122874499D01*
X105456535Y-122874499D01*
X105456532Y-122874499D01*
X105253581Y-122914868D01*
X105062402Y-122994057D01*
X104890348Y-123109019D01*
X104744020Y-123255347D01*
X104629058Y-123427401D01*
X104549869Y-123618580D01*
X104509500Y-123821531D01*
X104509500Y-126528466D01*
X104549869Y-126731417D01*
X104629058Y-126922596D01*
X104733746Y-127079274D01*
X104744023Y-127094654D01*
X104890345Y-127240976D01*
X105062402Y-127355940D01*
X105198385Y-127412266D01*
X105218829Y-127429726D01*
X105240593Y-127445539D01*
X105241841Y-127449380D01*
X105244911Y-127452002D01*
X105259500Y-127503730D01*
X105259500Y-127574521D01*
X105240593Y-127632712D01*
X105230504Y-127644525D01*
X102404525Y-130470504D01*
X102350008Y-130498281D01*
X102334521Y-130499500D01*
X88747083Y-130499500D01*
X88688892Y-130480593D01*
X88672264Y-130465331D01*
X88631128Y-130417857D01*
X88576552Y-130382783D01*
X88537822Y-130335418D01*
X88534329Y-130274332D01*
X88567409Y-130222860D01*
X88624425Y-130200661D01*
X88630077Y-130200500D01*
X98439563Y-130200500D01*
X98439563Y-130200499D01*
X98515989Y-130180021D01*
X98584511Y-130140460D01*
X98640460Y-130084511D01*
X100720460Y-128004511D01*
X100734346Y-127980460D01*
X100760021Y-127935989D01*
X100780500Y-127859562D01*
X100780500Y-127503735D01*
X100799407Y-127445544D01*
X100841614Y-127412271D01*
X100977598Y-127355945D01*
X101149655Y-127240981D01*
X101295977Y-127094659D01*
X101410941Y-126922602D01*
X101490130Y-126731424D01*
X101530500Y-126528469D01*
X101530500Y-123821539D01*
X101490130Y-123618584D01*
X101410941Y-123427406D01*
X101295977Y-123255349D01*
X101149655Y-123109027D01*
X101149648Y-123109022D01*
X100977597Y-122994062D01*
X100786418Y-122914873D01*
X100583467Y-122874504D01*
X100583465Y-122874504D01*
X100376535Y-122874504D01*
X100376532Y-122874504D01*
X100173581Y-122914873D01*
X99982402Y-122994062D01*
X99810348Y-123109024D01*
X99664020Y-123255352D01*
X99549058Y-123427406D01*
X99469869Y-123618585D01*
X99429500Y-123821536D01*
X99429500Y-126528471D01*
X99469869Y-126731422D01*
X99549058Y-126922601D01*
X99664020Y-127094655D01*
X99664023Y-127094659D01*
X99810345Y-127240981D01*
X99982402Y-127355945D01*
X100118385Y-127412271D01*
X100138829Y-127429731D01*
X100160593Y-127445544D01*
X100161841Y-127449385D01*
X100164911Y-127452007D01*
X100179500Y-127503735D01*
X100179500Y-127654521D01*
X100160593Y-127712712D01*
X100150504Y-127724525D01*
X98304525Y-129570504D01*
X98250008Y-129598281D01*
X98234521Y-129599500D01*
X75247083Y-129599500D01*
X75188892Y-129580593D01*
X75172264Y-129565331D01*
X75131128Y-129517857D01*
X75078547Y-129484065D01*
X75010057Y-129440049D01*
X75010054Y-129440047D01*
X75010053Y-129440047D01*
X75010050Y-129440046D01*
X74871964Y-129399500D01*
X74871961Y-129399500D01*
X74728039Y-129399500D01*
X74728035Y-129399500D01*
X74589949Y-129440046D01*
X74589942Y-129440049D01*
X74468873Y-129517855D01*
X74374622Y-129626628D01*
X74314834Y-129757543D01*
X74294353Y-129899997D01*
X18954068Y-129899997D01*
X18955300Y-129895934D01*
X18975583Y-129690000D01*
X18975583Y-129689996D01*
X18955301Y-129484070D01*
X18955300Y-129484065D01*
X18929647Y-129399500D01*
X18895232Y-129286046D01*
X18797685Y-129103550D01*
X18666410Y-128943590D01*
X18666404Y-128943585D01*
X18506452Y-128812316D01*
X18323954Y-128714768D01*
X18125934Y-128654699D01*
X18125929Y-128654698D01*
X17920003Y-128634417D01*
X17919997Y-128634417D01*
X17714070Y-128654698D01*
X17714065Y-128654699D01*
X17516045Y-128714768D01*
X17333547Y-128812316D01*
X17173595Y-128943585D01*
X17173585Y-128943595D01*
X17042316Y-129103547D01*
X16944768Y-129286045D01*
X16884699Y-129484065D01*
X16884698Y-129484070D01*
X16864417Y-129689996D01*
X8815583Y-129689996D01*
X8795301Y-129484070D01*
X8795300Y-129484065D01*
X8769647Y-129399500D01*
X8735232Y-129286046D01*
X8637685Y-129103550D01*
X8506410Y-128943590D01*
X8506404Y-128943585D01*
X8346452Y-128812316D01*
X8163954Y-128714768D01*
X7965934Y-128654699D01*
X7965929Y-128654698D01*
X7760003Y-128634417D01*
X7759997Y-128634417D01*
X7554070Y-128654698D01*
X7554065Y-128654699D01*
X7356045Y-128714768D01*
X7173547Y-128812316D01*
X7013595Y-128943585D01*
X7013585Y-128943595D01*
X6882316Y-129103547D01*
X6784768Y-129286045D01*
X6724699Y-129484065D01*
X6724698Y-129484070D01*
X6704417Y-129689996D01*
X500500Y-129689996D01*
X500500Y-124610000D01*
X12164518Y-124610000D01*
X12184421Y-124888288D01*
X12184421Y-124888291D01*
X12184422Y-124888294D01*
X12243729Y-125160923D01*
X12243730Y-125160927D01*
X12341231Y-125422338D01*
X12341232Y-125422340D01*
X12474944Y-125667213D01*
X12474943Y-125667213D01*
X12642140Y-125890562D01*
X12642142Y-125890564D01*
X12642145Y-125890568D01*
X12839432Y-126087855D01*
X12839435Y-126087857D01*
X12839437Y-126087859D01*
X13062786Y-126255056D01*
X13282447Y-126375000D01*
X13307663Y-126388769D01*
X13569072Y-126486269D01*
X13569077Y-126486271D01*
X13841706Y-126545578D01*
X14120000Y-126565482D01*
X14398294Y-126545578D01*
X14670923Y-126486271D01*
X14932337Y-126388769D01*
X15177213Y-126255056D01*
X15400568Y-126087855D01*
X15597855Y-125890568D01*
X15609512Y-125874996D01*
X23219417Y-125874996D01*
X23219417Y-125875003D01*
X23239698Y-126080929D01*
X23239699Y-126080934D01*
X23299768Y-126278954D01*
X23397316Y-126461452D01*
X23528302Y-126621059D01*
X23528590Y-126621410D01*
X23528595Y-126621414D01*
X23688547Y-126752683D01*
X23688548Y-126752683D01*
X23688550Y-126752685D01*
X23871046Y-126850232D01*
X24008997Y-126892078D01*
X24069065Y-126910300D01*
X24069070Y-126910301D01*
X24274997Y-126930583D01*
X24275000Y-126930583D01*
X24275003Y-126930583D01*
X24480929Y-126910301D01*
X24480934Y-126910300D01*
X24482556Y-126909808D01*
X24678954Y-126850232D01*
X24861450Y-126752685D01*
X25021410Y-126621410D01*
X25152685Y-126461450D01*
X25250232Y-126278954D01*
X25310300Y-126080934D01*
X25310301Y-126080928D01*
X25325036Y-125931327D01*
X25325036Y-125931326D01*
X25330583Y-125875004D01*
X25330583Y-125874995D01*
X25325036Y-125818672D01*
X25320734Y-125774999D01*
X25769767Y-125774999D01*
X25769768Y-125775000D01*
X26324157Y-125775000D01*
X26315000Y-125809174D01*
X26315000Y-125940826D01*
X26324157Y-125975000D01*
X25769767Y-125975000D01*
X25780190Y-126080831D01*
X25780191Y-126080836D01*
X25840232Y-126278762D01*
X25840234Y-126278767D01*
X25937724Y-126461160D01*
X25937731Y-126461170D01*
X26068940Y-126621050D01*
X26068949Y-126621059D01*
X26228829Y-126752268D01*
X26228839Y-126752275D01*
X26411232Y-126849765D01*
X26411237Y-126849767D01*
X26609166Y-126909808D01*
X26714998Y-126920231D01*
X26715000Y-126920230D01*
X26715000Y-126365842D01*
X26749174Y-126375000D01*
X26880826Y-126375000D01*
X26915000Y-126365842D01*
X26915000Y-126920230D01*
X26915001Y-126920231D01*
X27020833Y-126909808D01*
X27218762Y-126849767D01*
X27218767Y-126849765D01*
X27401160Y-126752275D01*
X27401170Y-126752268D01*
X27561050Y-126621059D01*
X27561059Y-126621050D01*
X27692268Y-126461170D01*
X27692275Y-126461160D01*
X27789765Y-126278767D01*
X27789767Y-126278762D01*
X27849808Y-126080836D01*
X27849809Y-126080831D01*
X27860232Y-125975000D01*
X27305843Y-125975000D01*
X27315000Y-125940826D01*
X27315000Y-125809174D01*
X27305843Y-125775000D01*
X27860232Y-125775000D01*
X27860232Y-125774999D01*
X27849809Y-125669168D01*
X27849808Y-125669163D01*
X27789767Y-125471237D01*
X27789765Y-125471232D01*
X27692275Y-125288839D01*
X27692268Y-125288829D01*
X27561059Y-125128949D01*
X27561050Y-125128940D01*
X27401170Y-124997731D01*
X27401160Y-124997724D01*
X27218767Y-124900234D01*
X27218762Y-124900232D01*
X27020836Y-124840191D01*
X27020831Y-124840190D01*
X26915000Y-124829767D01*
X26915000Y-125384157D01*
X26880826Y-125375000D01*
X26749174Y-125375000D01*
X26715000Y-125384157D01*
X26715000Y-124829767D01*
X26714999Y-124829767D01*
X26609168Y-124840190D01*
X26609163Y-124840191D01*
X26411237Y-124900232D01*
X26411232Y-124900234D01*
X26228839Y-124997724D01*
X26228829Y-124997731D01*
X26068949Y-125128940D01*
X26068940Y-125128949D01*
X25937731Y-125288829D01*
X25937724Y-125288839D01*
X25840234Y-125471232D01*
X25840232Y-125471237D01*
X25780191Y-125669163D01*
X25780190Y-125669168D01*
X25769767Y-125774999D01*
X25320734Y-125774999D01*
X25310301Y-125669071D01*
X25310300Y-125669065D01*
X25251401Y-125474901D01*
X25250232Y-125471046D01*
X25152685Y-125288550D01*
X25021410Y-125128590D01*
X24956108Y-125074998D01*
X24861452Y-124997316D01*
X24678954Y-124899768D01*
X24480934Y-124839699D01*
X24480929Y-124839698D01*
X24275003Y-124819417D01*
X24274997Y-124819417D01*
X24069070Y-124839698D01*
X24069065Y-124839699D01*
X23871045Y-124899768D01*
X23688547Y-124997316D01*
X23528595Y-125128585D01*
X23528585Y-125128595D01*
X23397316Y-125288547D01*
X23299768Y-125471045D01*
X23239699Y-125669065D01*
X23239698Y-125669070D01*
X23219417Y-125874996D01*
X15609512Y-125874996D01*
X15765056Y-125667213D01*
X15898769Y-125422337D01*
X15996271Y-125160923D01*
X16055578Y-124888294D01*
X16075482Y-124610000D01*
X16055578Y-124331706D01*
X15996271Y-124059077D01*
X15898769Y-123797663D01*
X15765056Y-123552787D01*
X15765055Y-123552786D01*
X15765056Y-123552786D01*
X15597859Y-123329437D01*
X15597857Y-123329435D01*
X15597855Y-123329432D01*
X15400568Y-123132145D01*
X15400564Y-123132142D01*
X15400562Y-123132140D01*
X15177213Y-122964943D01*
X14932340Y-122831232D01*
X14932338Y-122831231D01*
X14670926Y-122733730D01*
X14670928Y-122733730D01*
X14541060Y-122705479D01*
X14398294Y-122674422D01*
X14398291Y-122674421D01*
X14398288Y-122674421D01*
X14120000Y-122654518D01*
X13841711Y-122674421D01*
X13841706Y-122674421D01*
X13841706Y-122674422D01*
X13814060Y-122680436D01*
X13569072Y-122733730D01*
X13307661Y-122831231D01*
X13307659Y-122831232D01*
X13062786Y-122964943D01*
X12839437Y-123132140D01*
X12642140Y-123329437D01*
X12474943Y-123552786D01*
X12341232Y-123797659D01*
X12341231Y-123797661D01*
X12243730Y-124059072D01*
X12243729Y-124059077D01*
X12184892Y-124329548D01*
X12184421Y-124331711D01*
X12164518Y-124610000D01*
X500500Y-124610000D01*
X500500Y-122465253D01*
X23224500Y-122465253D01*
X23224500Y-124204746D01*
X23224501Y-124204758D01*
X23236132Y-124263227D01*
X23236134Y-124263233D01*
X23280445Y-124329548D01*
X23280448Y-124329552D01*
X23346769Y-124373867D01*
X23391231Y-124382711D01*
X23405241Y-124385498D01*
X23405246Y-124385498D01*
X23405252Y-124385500D01*
X23405253Y-124385500D01*
X25144747Y-124385500D01*
X25144748Y-124385500D01*
X25203231Y-124373867D01*
X25269552Y-124329552D01*
X25313867Y-124263231D01*
X25325500Y-124204748D01*
X25325500Y-123334996D01*
X25759417Y-123334996D01*
X25759417Y-123335003D01*
X25779698Y-123540929D01*
X25779699Y-123540934D01*
X25839768Y-123738954D01*
X25937316Y-123921452D01*
X26035283Y-124040825D01*
X26068590Y-124081410D01*
X26068595Y-124081414D01*
X26228547Y-124212683D01*
X26228548Y-124212683D01*
X26228550Y-124212685D01*
X26411046Y-124310232D01*
X26548997Y-124352078D01*
X26609065Y-124370300D01*
X26609070Y-124370301D01*
X26814997Y-124390583D01*
X26815000Y-124390583D01*
X26815003Y-124390583D01*
X27020929Y-124370301D01*
X27020934Y-124370300D01*
X27218954Y-124310232D01*
X27401450Y-124212685D01*
X27561410Y-124081410D01*
X27692685Y-123921450D01*
X27746093Y-123821531D01*
X89269500Y-123821531D01*
X89269500Y-126528466D01*
X89309869Y-126731417D01*
X89389058Y-126922596D01*
X89493746Y-127079274D01*
X89504023Y-127094654D01*
X89650345Y-127240976D01*
X89822402Y-127355940D01*
X90013580Y-127435129D01*
X90216535Y-127475499D01*
X90216536Y-127475499D01*
X90423464Y-127475499D01*
X90423465Y-127475499D01*
X90626420Y-127435129D01*
X90817598Y-127355940D01*
X90989655Y-127240976D01*
X91135977Y-127094654D01*
X91250941Y-126922597D01*
X91330130Y-126731419D01*
X91370500Y-126528464D01*
X91370500Y-123821534D01*
X91809504Y-123821534D01*
X91809504Y-126528469D01*
X91849873Y-126731420D01*
X91929062Y-126922599D01*
X92033748Y-127079274D01*
X92044027Y-127094657D01*
X92190349Y-127240979D01*
X92362406Y-127355943D01*
X92553584Y-127435132D01*
X92756539Y-127475502D01*
X92756540Y-127475502D01*
X92963468Y-127475502D01*
X92963469Y-127475502D01*
X93166424Y-127435132D01*
X93357602Y-127355943D01*
X93529659Y-127240979D01*
X93675981Y-127094657D01*
X93790945Y-126922600D01*
X93870134Y-126731422D01*
X93910504Y-126528467D01*
X93910504Y-125275000D01*
X94350001Y-125275000D01*
X94350001Y-127079202D01*
X94352850Y-127109599D01*
X94352850Y-127109601D01*
X94397654Y-127237646D01*
X94478207Y-127346789D01*
X94478209Y-127346791D01*
X94587352Y-127427344D01*
X94715398Y-127472148D01*
X94745789Y-127474998D01*
X95299998Y-127474998D01*
X95300000Y-127474997D01*
X95300000Y-125275000D01*
X95500000Y-125275000D01*
X95500000Y-127474997D01*
X95500001Y-127474998D01*
X96054203Y-127474998D01*
X96084600Y-127472148D01*
X96084602Y-127472148D01*
X96212647Y-127427344D01*
X96321790Y-127346791D01*
X96321792Y-127346789D01*
X96402345Y-127237646D01*
X96447149Y-127109600D01*
X96449999Y-127079210D01*
X96450000Y-127079209D01*
X96450000Y-125275000D01*
X96449999Y-125274999D01*
X95500001Y-125274999D01*
X95500000Y-125275000D01*
X95300000Y-125275000D01*
X95299999Y-125274999D01*
X94350002Y-125274999D01*
X94350001Y-125275000D01*
X93910504Y-125275000D01*
X93910504Y-123821537D01*
X93870134Y-123618582D01*
X93790945Y-123427404D01*
X93686298Y-123270787D01*
X94350000Y-123270787D01*
X94350000Y-125074998D01*
X94350001Y-125074999D01*
X95299999Y-125074999D01*
X95300000Y-125074998D01*
X95300000Y-124465841D01*
X95334174Y-124474999D01*
X95465826Y-124474999D01*
X95500000Y-124465841D01*
X95500000Y-125074998D01*
X95500001Y-125074999D01*
X96449998Y-125074999D01*
X96449999Y-125074998D01*
X96449999Y-123270795D01*
X96447149Y-123240398D01*
X96447149Y-123240396D01*
X96402345Y-123112351D01*
X96321792Y-123003208D01*
X96321790Y-123003206D01*
X96212647Y-122922653D01*
X96084601Y-122877849D01*
X96054211Y-122874999D01*
X95500001Y-122874999D01*
X95500000Y-122875000D01*
X95500000Y-123484156D01*
X95465826Y-123474999D01*
X95334174Y-123474999D01*
X95300000Y-123484156D01*
X95300000Y-122875000D01*
X95299999Y-122874999D01*
X94745796Y-122874999D01*
X94715399Y-122877849D01*
X94715397Y-122877849D01*
X94587352Y-122922653D01*
X94478209Y-123003206D01*
X94478207Y-123003208D01*
X94397654Y-123112351D01*
X94352850Y-123240397D01*
X94350000Y-123270787D01*
X93686298Y-123270787D01*
X93675981Y-123255347D01*
X93529659Y-123109025D01*
X93529655Y-123109022D01*
X93357601Y-122994060D01*
X93166422Y-122914871D01*
X92963471Y-122874502D01*
X92963469Y-122874502D01*
X92756539Y-122874502D01*
X92756536Y-122874502D01*
X92553585Y-122914871D01*
X92362406Y-122994060D01*
X92190352Y-123109022D01*
X92044024Y-123255350D01*
X91929062Y-123427404D01*
X91849873Y-123618583D01*
X91809504Y-123821534D01*
X91370500Y-123821534D01*
X91330130Y-123618579D01*
X91250941Y-123427401D01*
X91135977Y-123255344D01*
X90989655Y-123109022D01*
X90989651Y-123109019D01*
X90817597Y-122994057D01*
X90626418Y-122914868D01*
X90423467Y-122874499D01*
X90423465Y-122874499D01*
X90216535Y-122874499D01*
X90216532Y-122874499D01*
X90013581Y-122914868D01*
X89822402Y-122994057D01*
X89650348Y-123109019D01*
X89504020Y-123255347D01*
X89389058Y-123427401D01*
X89309869Y-123618580D01*
X89269500Y-123821531D01*
X27746093Y-123821531D01*
X27790232Y-123738954D01*
X27850300Y-123540934D01*
X27850301Y-123540929D01*
X27870583Y-123335003D01*
X27870583Y-123334996D01*
X27850301Y-123129070D01*
X27850300Y-123129065D01*
X27836319Y-123082977D01*
X27790232Y-122931046D01*
X27768680Y-122890726D01*
X61506680Y-122890726D01*
X61506680Y-123038563D01*
X61535522Y-123183559D01*
X61592095Y-123320138D01*
X61592096Y-123320140D01*
X61674229Y-123443061D01*
X61778764Y-123547596D01*
X61901685Y-123629729D01*
X62038267Y-123686303D01*
X62183262Y-123715145D01*
X62183263Y-123715145D01*
X62331097Y-123715145D01*
X62331098Y-123715145D01*
X62476093Y-123686303D01*
X62612675Y-123629729D01*
X62735596Y-123547596D01*
X62840131Y-123443061D01*
X62922264Y-123320140D01*
X62978838Y-123183558D01*
X63007680Y-123038563D01*
X63007680Y-122890727D01*
X62978838Y-122745732D01*
X62922264Y-122609150D01*
X62840131Y-122486229D01*
X62735596Y-122381694D01*
X62612675Y-122299561D01*
X62612673Y-122299560D01*
X62476094Y-122242987D01*
X62331098Y-122214145D01*
X62183262Y-122214145D01*
X62183261Y-122214145D01*
X62038265Y-122242987D01*
X61901686Y-122299560D01*
X61778765Y-122381693D01*
X61674228Y-122486230D01*
X61592095Y-122609151D01*
X61535522Y-122745730D01*
X61506680Y-122890726D01*
X27768680Y-122890726D01*
X27692685Y-122748550D01*
X27690372Y-122745732D01*
X27574065Y-122604010D01*
X27561410Y-122588590D01*
X27453996Y-122500438D01*
X27401452Y-122457316D01*
X27218954Y-122359768D01*
X27020934Y-122299699D01*
X27020929Y-122299698D01*
X26815003Y-122279417D01*
X26814997Y-122279417D01*
X26609070Y-122299698D01*
X26609065Y-122299699D01*
X26411045Y-122359768D01*
X26228547Y-122457316D01*
X26068595Y-122588585D01*
X26068585Y-122588595D01*
X25937316Y-122748547D01*
X25839768Y-122931045D01*
X25779699Y-123129065D01*
X25779698Y-123129070D01*
X25759417Y-123334996D01*
X25325500Y-123334996D01*
X25325500Y-122465252D01*
X25323921Y-122457316D01*
X25317297Y-122424013D01*
X25313867Y-122406769D01*
X25269552Y-122340448D01*
X25269548Y-122340445D01*
X25203233Y-122296134D01*
X25203231Y-122296133D01*
X25203228Y-122296132D01*
X25203227Y-122296132D01*
X25144758Y-122284501D01*
X25144748Y-122284500D01*
X23405252Y-122284500D01*
X23405251Y-122284500D01*
X23405241Y-122284501D01*
X23346772Y-122296132D01*
X23346766Y-122296134D01*
X23280451Y-122340445D01*
X23280445Y-122340451D01*
X23236134Y-122406766D01*
X23236132Y-122406772D01*
X23224501Y-122465241D01*
X23224500Y-122465253D01*
X500500Y-122465253D01*
X500500Y-120899997D01*
X70894353Y-120899997D01*
X70894353Y-120900002D01*
X70914834Y-121042456D01*
X70973313Y-121170504D01*
X70974623Y-121173373D01*
X71015007Y-121219979D01*
X71068873Y-121282144D01*
X71159875Y-121340627D01*
X71189947Y-121359953D01*
X71296403Y-121391211D01*
X71328035Y-121400499D01*
X71328036Y-121400499D01*
X71328039Y-121400500D01*
X71328041Y-121400500D01*
X71471959Y-121400500D01*
X71471961Y-121400500D01*
X71610053Y-121359953D01*
X71731128Y-121282143D01*
X71772264Y-121234668D01*
X71824660Y-121203073D01*
X71847083Y-121200500D01*
X72878176Y-121200500D01*
X72936367Y-121219407D01*
X72972331Y-121268907D01*
X72972331Y-121330093D01*
X72968229Y-121340627D01*
X72914834Y-121457543D01*
X72894353Y-121599997D01*
X72894353Y-121600002D01*
X72914834Y-121742456D01*
X72946270Y-121811290D01*
X72974623Y-121873373D01*
X73068872Y-121982143D01*
X73068873Y-121982144D01*
X73189942Y-122059950D01*
X73189947Y-122059953D01*
X73296403Y-122091211D01*
X73328035Y-122100499D01*
X73328036Y-122100499D01*
X73328039Y-122100500D01*
X73328041Y-122100500D01*
X73434522Y-122100500D01*
X73492713Y-122119407D01*
X73504519Y-122129490D01*
X73515489Y-122140460D01*
X73515491Y-122140461D01*
X73584007Y-122180019D01*
X73584011Y-122180021D01*
X73660435Y-122200499D01*
X73660437Y-122200500D01*
X73660438Y-122200500D01*
X97017021Y-122200500D01*
X97075212Y-122219407D01*
X97087025Y-122229496D01*
X97610504Y-122752975D01*
X97614130Y-122760092D01*
X97620593Y-122764788D01*
X97627756Y-122786836D01*
X97638281Y-122807492D01*
X97639500Y-122822979D01*
X97639500Y-122846266D01*
X97620593Y-122904457D01*
X97578387Y-122937730D01*
X97442401Y-122994058D01*
X97270348Y-123109019D01*
X97124020Y-123255347D01*
X97009058Y-123427401D01*
X96929869Y-123618580D01*
X96889500Y-123821531D01*
X96889500Y-126528466D01*
X96929869Y-126731417D01*
X97009058Y-126922596D01*
X97113746Y-127079274D01*
X97124023Y-127094654D01*
X97270345Y-127240976D01*
X97442402Y-127355940D01*
X97633580Y-127435129D01*
X97836535Y-127475499D01*
X97836536Y-127475499D01*
X98043464Y-127475499D01*
X98043465Y-127475499D01*
X98246420Y-127435129D01*
X98437598Y-127355940D01*
X98609655Y-127240976D01*
X98755977Y-127094654D01*
X98870941Y-126922597D01*
X98950130Y-126731419D01*
X98990500Y-126528464D01*
X98990500Y-123821534D01*
X98950130Y-123618579D01*
X98870941Y-123427401D01*
X98755977Y-123255344D01*
X98609655Y-123109022D01*
X98594446Y-123098860D01*
X98437598Y-122994058D01*
X98301613Y-122937730D01*
X98255088Y-122897993D01*
X98240500Y-122846266D01*
X98240500Y-122617940D01*
X98240499Y-122617936D01*
X98239476Y-122614117D01*
X98239476Y-122614116D01*
X98220022Y-122541512D01*
X98220020Y-122541509D01*
X98220020Y-122541507D01*
X98180463Y-122472993D01*
X98180462Y-122472992D01*
X98180461Y-122472991D01*
X98180460Y-122472989D01*
X97676975Y-121969504D01*
X97649198Y-121914987D01*
X97658769Y-121854555D01*
X97702034Y-121811290D01*
X97746979Y-121800500D01*
X101634521Y-121800500D01*
X101692712Y-121819407D01*
X101704525Y-121829496D01*
X102662776Y-122787747D01*
X102690553Y-122842264D01*
X102680982Y-122902696D01*
X102637717Y-122945961D01*
X102630659Y-122949215D01*
X102522400Y-122994058D01*
X102350347Y-123109019D01*
X102204019Y-123255347D01*
X102089057Y-123427401D01*
X102009868Y-123618580D01*
X101969499Y-123821531D01*
X101969499Y-126528466D01*
X102009868Y-126731417D01*
X102089057Y-126922596D01*
X102193745Y-127079274D01*
X102204022Y-127094654D01*
X102350344Y-127240976D01*
X102522401Y-127355940D01*
X102713579Y-127435129D01*
X102916534Y-127475499D01*
X102916535Y-127475499D01*
X103123463Y-127475499D01*
X103123464Y-127475499D01*
X103326419Y-127435129D01*
X103517597Y-127355940D01*
X103689654Y-127240976D01*
X103835976Y-127094654D01*
X103950940Y-126922597D01*
X104030129Y-126731419D01*
X104070499Y-126528464D01*
X104070499Y-123821534D01*
X104030129Y-123618579D01*
X103950940Y-123427401D01*
X103835976Y-123255344D01*
X103689654Y-123109022D01*
X103674445Y-123098860D01*
X103517597Y-122994058D01*
X103381612Y-122937730D01*
X103335087Y-122897993D01*
X103320499Y-122846266D01*
X103320499Y-122680436D01*
X103320498Y-122680434D01*
X103311616Y-122647288D01*
X103300020Y-122604010D01*
X103291117Y-122588590D01*
X103260459Y-122535488D01*
X103204510Y-122479538D01*
X103204510Y-122479539D01*
X101984511Y-121259540D01*
X101978437Y-121256033D01*
X101978435Y-121256031D01*
X101915989Y-121219979D01*
X101915985Y-121219977D01*
X101839564Y-121199500D01*
X101839562Y-121199500D01*
X74465479Y-121199500D01*
X74407288Y-121180593D01*
X74395475Y-121170504D01*
X74267427Y-121042456D01*
X73884511Y-120659540D01*
X73874808Y-120653938D01*
X73874806Y-120653936D01*
X73874806Y-120653937D01*
X73815989Y-120619979D01*
X73815988Y-120619978D01*
X73815987Y-120619978D01*
X73739564Y-120599500D01*
X73739562Y-120599500D01*
X71847083Y-120599500D01*
X71788892Y-120580593D01*
X71772264Y-120565331D01*
X71772238Y-120565301D01*
X71731128Y-120517857D01*
X71662719Y-120473893D01*
X71610057Y-120440049D01*
X71610054Y-120440047D01*
X71610053Y-120440047D01*
X71610050Y-120440046D01*
X71471964Y-120399500D01*
X71471961Y-120399500D01*
X71328039Y-120399500D01*
X71328035Y-120399500D01*
X71189949Y-120440046D01*
X71189942Y-120440049D01*
X71068873Y-120517855D01*
X70974622Y-120626628D01*
X70914834Y-120757543D01*
X70894353Y-120899997D01*
X500500Y-120899997D01*
X500500Y-119529996D01*
X6704417Y-119529996D01*
X6704417Y-119530003D01*
X6724698Y-119735929D01*
X6724699Y-119735934D01*
X6784768Y-119933954D01*
X6882316Y-120116452D01*
X7013585Y-120276404D01*
X7013590Y-120276410D01*
X7013595Y-120276414D01*
X7173547Y-120407683D01*
X7173548Y-120407683D01*
X7173550Y-120407685D01*
X7356046Y-120505232D01*
X7493997Y-120547078D01*
X7554065Y-120565300D01*
X7554070Y-120565301D01*
X7759997Y-120585583D01*
X7760000Y-120585583D01*
X7760003Y-120585583D01*
X7965929Y-120565301D01*
X7965934Y-120565300D01*
X8163954Y-120505232D01*
X8346450Y-120407685D01*
X8506410Y-120276410D01*
X8637685Y-120116450D01*
X8735232Y-119933954D01*
X8795300Y-119735934D01*
X8795301Y-119735929D01*
X8815583Y-119530003D01*
X8815583Y-119529996D01*
X16864417Y-119529996D01*
X16864417Y-119530003D01*
X16884698Y-119735929D01*
X16884699Y-119735934D01*
X16944768Y-119933954D01*
X17042316Y-120116452D01*
X17173585Y-120276404D01*
X17173590Y-120276410D01*
X17173595Y-120276414D01*
X17333547Y-120407683D01*
X17333548Y-120407683D01*
X17333550Y-120407685D01*
X17516046Y-120505232D01*
X17653997Y-120547078D01*
X17714065Y-120565300D01*
X17714070Y-120565301D01*
X17919997Y-120585583D01*
X17920000Y-120585583D01*
X17920003Y-120585583D01*
X18125929Y-120565301D01*
X18125934Y-120565300D01*
X18323954Y-120505232D01*
X18506450Y-120407685D01*
X18666410Y-120276410D01*
X18797685Y-120116450D01*
X18895232Y-119933954D01*
X18955300Y-119735934D01*
X18955301Y-119735929D01*
X18975583Y-119530003D01*
X18975583Y-119529996D01*
X18955301Y-119324070D01*
X18955300Y-119324065D01*
X18930544Y-119242456D01*
X18895232Y-119126046D01*
X18881308Y-119099997D01*
X68594353Y-119099997D01*
X68594353Y-119100002D01*
X68614834Y-119242456D01*
X68652105Y-119324066D01*
X68674623Y-119373373D01*
X68727736Y-119434669D01*
X68768873Y-119482144D01*
X68889942Y-119559950D01*
X68889947Y-119559953D01*
X68996403Y-119591211D01*
X69028035Y-119600499D01*
X69028036Y-119600499D01*
X69028039Y-119600500D01*
X69028041Y-119600500D01*
X69171959Y-119600500D01*
X69171961Y-119600500D01*
X69310053Y-119559953D01*
X69431128Y-119482143D01*
X69472264Y-119434668D01*
X69524660Y-119403073D01*
X69547083Y-119400500D01*
X107034521Y-119400500D01*
X107092712Y-119419407D01*
X107104525Y-119429496D01*
X110310504Y-122635475D01*
X110314130Y-122642592D01*
X110320593Y-122647288D01*
X110327756Y-122669336D01*
X110338281Y-122689992D01*
X110339500Y-122705479D01*
X110339500Y-122846266D01*
X110320593Y-122904457D01*
X110278387Y-122937730D01*
X110142401Y-122994058D01*
X109970348Y-123109019D01*
X109824020Y-123255347D01*
X109709058Y-123427401D01*
X109629869Y-123618580D01*
X109589500Y-123821531D01*
X109589500Y-126528466D01*
X109629869Y-126731417D01*
X109709058Y-126922596D01*
X109813746Y-127079274D01*
X109824023Y-127094654D01*
X109970345Y-127240976D01*
X110142402Y-127355940D01*
X110333580Y-127435129D01*
X110536535Y-127475499D01*
X110536536Y-127475499D01*
X110743464Y-127475499D01*
X110743465Y-127475499D01*
X110946420Y-127435129D01*
X111137598Y-127355940D01*
X111309655Y-127240976D01*
X111455977Y-127094654D01*
X111570941Y-126922597D01*
X111650130Y-126731419D01*
X111690500Y-126528464D01*
X111690500Y-123821534D01*
X111690499Y-123821531D01*
X112129498Y-123821531D01*
X112129498Y-126528466D01*
X112169867Y-126731417D01*
X112249056Y-126922596D01*
X112353744Y-127079274D01*
X112364021Y-127094654D01*
X112510343Y-127240976D01*
X112682400Y-127355940D01*
X112873578Y-127435129D01*
X113076533Y-127475499D01*
X113076534Y-127475499D01*
X113283462Y-127475499D01*
X113283463Y-127475499D01*
X113486418Y-127435129D01*
X113677596Y-127355940D01*
X113849653Y-127240976D01*
X113995975Y-127094654D01*
X114110939Y-126922597D01*
X114190128Y-126731419D01*
X114230498Y-126528464D01*
X114230498Y-123821534D01*
X114230497Y-123821531D01*
X114669500Y-123821531D01*
X114669500Y-126528466D01*
X114709869Y-126731417D01*
X114789058Y-126922596D01*
X114893746Y-127079274D01*
X114904023Y-127094654D01*
X115050345Y-127240976D01*
X115222402Y-127355940D01*
X115413580Y-127435129D01*
X115616535Y-127475499D01*
X115616536Y-127475499D01*
X115823464Y-127475499D01*
X115823465Y-127475499D01*
X116026420Y-127435129D01*
X116217598Y-127355940D01*
X116389655Y-127240976D01*
X116535977Y-127094654D01*
X116650941Y-126922597D01*
X116730130Y-126731419D01*
X116770500Y-126528464D01*
X116770500Y-123821534D01*
X116770499Y-123821531D01*
X117209500Y-123821531D01*
X117209500Y-126528466D01*
X117249869Y-126731417D01*
X117329058Y-126922596D01*
X117433746Y-127079274D01*
X117444023Y-127094654D01*
X117590345Y-127240976D01*
X117762402Y-127355940D01*
X117953580Y-127435129D01*
X118156535Y-127475499D01*
X118156536Y-127475499D01*
X118363464Y-127475499D01*
X118363465Y-127475499D01*
X118566420Y-127435129D01*
X118757598Y-127355940D01*
X118929655Y-127240976D01*
X119075977Y-127094654D01*
X119190941Y-126922597D01*
X119270130Y-126731419D01*
X119310500Y-126528464D01*
X119310500Y-123821534D01*
X119270130Y-123618579D01*
X119190941Y-123427401D01*
X119129201Y-123335000D01*
X119121464Y-123323420D01*
X119086254Y-123270725D01*
X119749500Y-123270725D01*
X119749500Y-127079274D01*
X119752353Y-127109694D01*
X119752355Y-127109703D01*
X119797207Y-127237883D01*
X119877845Y-127347144D01*
X119877847Y-127347146D01*
X119877850Y-127347150D01*
X119877853Y-127347152D01*
X119877855Y-127347154D01*
X119987116Y-127427792D01*
X119987117Y-127427792D01*
X119987118Y-127427793D01*
X120115301Y-127472646D01*
X120145725Y-127475499D01*
X120145727Y-127475500D01*
X120145734Y-127475500D01*
X121454273Y-127475500D01*
X121454273Y-127475499D01*
X121484699Y-127472646D01*
X121612882Y-127427793D01*
X121722150Y-127347150D01*
X121802793Y-127237882D01*
X121847646Y-127109699D01*
X121850499Y-127079273D01*
X121850500Y-127079273D01*
X121850500Y-123821531D01*
X122289500Y-123821531D01*
X122289500Y-126528466D01*
X122329869Y-126731417D01*
X122409058Y-126922596D01*
X122513746Y-127079274D01*
X122524023Y-127094654D01*
X122670345Y-127240976D01*
X122842402Y-127355940D01*
X123033580Y-127435129D01*
X123236535Y-127475499D01*
X123236536Y-127475499D01*
X123443464Y-127475499D01*
X123443465Y-127475499D01*
X123646420Y-127435129D01*
X123837598Y-127355940D01*
X124009655Y-127240976D01*
X124155977Y-127094654D01*
X124270941Y-126922597D01*
X124350130Y-126731419D01*
X124390500Y-126528464D01*
X124390500Y-123821534D01*
X124390499Y-123821531D01*
X124829500Y-123821531D01*
X124829500Y-126528466D01*
X124869869Y-126731417D01*
X124949058Y-126922596D01*
X125053746Y-127079274D01*
X125064023Y-127094654D01*
X125210345Y-127240976D01*
X125382402Y-127355940D01*
X125573580Y-127435129D01*
X125776535Y-127475499D01*
X125776536Y-127475499D01*
X125983464Y-127475499D01*
X125983465Y-127475499D01*
X126186420Y-127435129D01*
X126377598Y-127355940D01*
X126549655Y-127240976D01*
X126695977Y-127094654D01*
X126810941Y-126922597D01*
X126890130Y-126731419D01*
X126930500Y-126528464D01*
X126930500Y-123821534D01*
X126930499Y-123821531D01*
X127369499Y-123821531D01*
X127369499Y-126528466D01*
X127409868Y-126731417D01*
X127489057Y-126922596D01*
X127593745Y-127079274D01*
X127604022Y-127094654D01*
X127750344Y-127240976D01*
X127922401Y-127355940D01*
X128113579Y-127435129D01*
X128316534Y-127475499D01*
X128316535Y-127475499D01*
X128523463Y-127475499D01*
X128523464Y-127475499D01*
X128726419Y-127435129D01*
X128917597Y-127355940D01*
X129089654Y-127240976D01*
X129235976Y-127094654D01*
X129350940Y-126922597D01*
X129430129Y-126731419D01*
X129470499Y-126528464D01*
X129470499Y-123821534D01*
X129470498Y-123821531D01*
X129909500Y-123821531D01*
X129909500Y-126528466D01*
X129949869Y-126731417D01*
X130029058Y-126922596D01*
X130133746Y-127079274D01*
X130144023Y-127094654D01*
X130290345Y-127240976D01*
X130462402Y-127355940D01*
X130653580Y-127435129D01*
X130856535Y-127475499D01*
X130856536Y-127475499D01*
X131063464Y-127475499D01*
X131063465Y-127475499D01*
X131266420Y-127435129D01*
X131457598Y-127355940D01*
X131629655Y-127240976D01*
X131775977Y-127094654D01*
X131890941Y-126922597D01*
X131970130Y-126731419D01*
X132010500Y-126528464D01*
X132010500Y-125275000D01*
X132450001Y-125275000D01*
X132450001Y-127079202D01*
X132452850Y-127109599D01*
X132452850Y-127109601D01*
X132497654Y-127237646D01*
X132578207Y-127346789D01*
X132578209Y-127346791D01*
X132687352Y-127427344D01*
X132815398Y-127472148D01*
X132845789Y-127474998D01*
X133399998Y-127474998D01*
X133400000Y-127474997D01*
X133400000Y-125275000D01*
X133600000Y-125275000D01*
X133600000Y-127474997D01*
X133600001Y-127474998D01*
X134154203Y-127474998D01*
X134184600Y-127472148D01*
X134184602Y-127472148D01*
X134312647Y-127427344D01*
X134421790Y-127346791D01*
X134421792Y-127346789D01*
X134502345Y-127237646D01*
X134547149Y-127109600D01*
X134549999Y-127079210D01*
X134550000Y-127079209D01*
X134550000Y-125275000D01*
X134549999Y-125274999D01*
X133600001Y-125274999D01*
X133600000Y-125275000D01*
X133400000Y-125275000D01*
X133399999Y-125274999D01*
X132450002Y-125274999D01*
X132450001Y-125275000D01*
X132010500Y-125275000D01*
X132010500Y-123821534D01*
X131970130Y-123618579D01*
X131890941Y-123427401D01*
X131786296Y-123270787D01*
X132450000Y-123270787D01*
X132450000Y-125074998D01*
X132450001Y-125074999D01*
X133399999Y-125074999D01*
X133400000Y-125074998D01*
X133400000Y-124465841D01*
X133434174Y-124474999D01*
X133565826Y-124474999D01*
X133600000Y-124465841D01*
X133600000Y-125074998D01*
X133600001Y-125074999D01*
X134549998Y-125074999D01*
X134549999Y-125074998D01*
X134549999Y-123270795D01*
X134547149Y-123240398D01*
X134547149Y-123240396D01*
X134502345Y-123112351D01*
X134421792Y-123003208D01*
X134421790Y-123003206D01*
X134312647Y-122922653D01*
X134184601Y-122877849D01*
X134154211Y-122874999D01*
X133600001Y-122874999D01*
X133600000Y-122875000D01*
X133600000Y-123484156D01*
X133565826Y-123474999D01*
X133434174Y-123474999D01*
X133400000Y-123484156D01*
X133400000Y-122875000D01*
X133399999Y-122874999D01*
X132845796Y-122874999D01*
X132815399Y-122877849D01*
X132815397Y-122877849D01*
X132687352Y-122922653D01*
X132578209Y-123003206D01*
X132578207Y-123003208D01*
X132497654Y-123112351D01*
X132452850Y-123240397D01*
X132450000Y-123270787D01*
X131786296Y-123270787D01*
X131775977Y-123255344D01*
X131629655Y-123109022D01*
X131629651Y-123109019D01*
X131457597Y-122994057D01*
X131266418Y-122914868D01*
X131063467Y-122874499D01*
X131063465Y-122874499D01*
X130856535Y-122874499D01*
X130856532Y-122874499D01*
X130653581Y-122914868D01*
X130462402Y-122994057D01*
X130290348Y-123109019D01*
X130144020Y-123255347D01*
X130029058Y-123427401D01*
X129949869Y-123618580D01*
X129909500Y-123821531D01*
X129470498Y-123821531D01*
X129430129Y-123618579D01*
X129350940Y-123427401D01*
X129235976Y-123255344D01*
X129089654Y-123109022D01*
X129089650Y-123109019D01*
X128917596Y-122994057D01*
X128726417Y-122914868D01*
X128523466Y-122874499D01*
X128523464Y-122874499D01*
X128316534Y-122874499D01*
X128316531Y-122874499D01*
X128113580Y-122914868D01*
X127922401Y-122994057D01*
X127750347Y-123109019D01*
X127604019Y-123255347D01*
X127489057Y-123427401D01*
X127409868Y-123618580D01*
X127369499Y-123821531D01*
X126930499Y-123821531D01*
X126890130Y-123618579D01*
X126810941Y-123427401D01*
X126695977Y-123255344D01*
X126549655Y-123109022D01*
X126549651Y-123109019D01*
X126377597Y-122994057D01*
X126186418Y-122914868D01*
X125983467Y-122874499D01*
X125983465Y-122874499D01*
X125776535Y-122874499D01*
X125776532Y-122874499D01*
X125573581Y-122914868D01*
X125382402Y-122994057D01*
X125210348Y-123109019D01*
X125064020Y-123255347D01*
X124949058Y-123427401D01*
X124869869Y-123618580D01*
X124829500Y-123821531D01*
X124390499Y-123821531D01*
X124350130Y-123618579D01*
X124270941Y-123427401D01*
X124155977Y-123255344D01*
X124009655Y-123109022D01*
X124009651Y-123109019D01*
X123837597Y-122994057D01*
X123646418Y-122914868D01*
X123443467Y-122874499D01*
X123443465Y-122874499D01*
X123236535Y-122874499D01*
X123236532Y-122874499D01*
X123033581Y-122914868D01*
X122842402Y-122994057D01*
X122670348Y-123109019D01*
X122524020Y-123255347D01*
X122409058Y-123427401D01*
X122329869Y-123618580D01*
X122289500Y-123821531D01*
X121850500Y-123821531D01*
X121850500Y-123270727D01*
X121850499Y-123270725D01*
X121849057Y-123255345D01*
X121847646Y-123240301D01*
X121802793Y-123112118D01*
X121800510Y-123109025D01*
X121722154Y-123002855D01*
X121722152Y-123002853D01*
X121722150Y-123002850D01*
X121722146Y-123002847D01*
X121722144Y-123002845D01*
X121612883Y-122922207D01*
X121484703Y-122877355D01*
X121484694Y-122877353D01*
X121454274Y-122874500D01*
X121454266Y-122874500D01*
X120145734Y-122874500D01*
X120145725Y-122874500D01*
X120115305Y-122877353D01*
X120115296Y-122877355D01*
X119987116Y-122922207D01*
X119877855Y-123002845D01*
X119877845Y-123002855D01*
X119797207Y-123112116D01*
X119752355Y-123240296D01*
X119752353Y-123240305D01*
X119749500Y-123270725D01*
X119086254Y-123270725D01*
X119075979Y-123255347D01*
X119075977Y-123255344D01*
X118929655Y-123109022D01*
X118929651Y-123109019D01*
X118757597Y-122994057D01*
X118566418Y-122914868D01*
X118363467Y-122874499D01*
X118363465Y-122874499D01*
X118156535Y-122874499D01*
X118156532Y-122874499D01*
X117953581Y-122914868D01*
X117762402Y-122994057D01*
X117590348Y-123109019D01*
X117444020Y-123255347D01*
X117329058Y-123427401D01*
X117249869Y-123618580D01*
X117209500Y-123821531D01*
X116770499Y-123821531D01*
X116730130Y-123618579D01*
X116650941Y-123427401D01*
X116535977Y-123255344D01*
X116389655Y-123109022D01*
X116374446Y-123098860D01*
X116217598Y-122994058D01*
X116081613Y-122937730D01*
X116035088Y-122897993D01*
X116020500Y-122846266D01*
X116020500Y-120473893D01*
X116039407Y-120415702D01*
X116046741Y-120407711D01*
X116046491Y-120407494D01*
X116053418Y-120399500D01*
X116145377Y-120293373D01*
X116205165Y-120162457D01*
X116225647Y-120020000D01*
X116205165Y-119877543D01*
X116145377Y-119746627D01*
X116051128Y-119637857D01*
X116051127Y-119637856D01*
X116051126Y-119637855D01*
X115930057Y-119560049D01*
X115930054Y-119560047D01*
X115930053Y-119560047D01*
X115929723Y-119559950D01*
X115791964Y-119519500D01*
X115791961Y-119519500D01*
X115648039Y-119519500D01*
X115648035Y-119519500D01*
X115509949Y-119560046D01*
X115509942Y-119560049D01*
X115388873Y-119637855D01*
X115294622Y-119746628D01*
X115234834Y-119877543D01*
X115214353Y-120019997D01*
X115214353Y-120020002D01*
X115234834Y-120162456D01*
X115294623Y-120293373D01*
X115393509Y-120407494D01*
X115391471Y-120409259D01*
X115416925Y-120451458D01*
X115419500Y-120473893D01*
X115419500Y-122846266D01*
X115400593Y-122904457D01*
X115358387Y-122937730D01*
X115222401Y-122994058D01*
X115050348Y-123109019D01*
X114904020Y-123255347D01*
X114789058Y-123427401D01*
X114709869Y-123618580D01*
X114669500Y-123821531D01*
X114230497Y-123821531D01*
X114190128Y-123618579D01*
X114110939Y-123427401D01*
X113995975Y-123255344D01*
X113849653Y-123109022D01*
X113849649Y-123109019D01*
X113677595Y-122994057D01*
X113486416Y-122914868D01*
X113283465Y-122874499D01*
X113283463Y-122874499D01*
X113076533Y-122874499D01*
X113076530Y-122874499D01*
X112873579Y-122914868D01*
X112682400Y-122994057D01*
X112510346Y-123109019D01*
X112364018Y-123255347D01*
X112249056Y-123427401D01*
X112169867Y-123618580D01*
X112129498Y-123821531D01*
X111690499Y-123821531D01*
X111650130Y-123618579D01*
X111570941Y-123427401D01*
X111455977Y-123255344D01*
X111309655Y-123109022D01*
X111294446Y-123098860D01*
X111137598Y-122994058D01*
X111001613Y-122937730D01*
X110955088Y-122897993D01*
X110940500Y-122846266D01*
X110940500Y-122500438D01*
X110928955Y-122457353D01*
X110928945Y-122457315D01*
X110920022Y-122424012D01*
X110880460Y-122355489D01*
X107384511Y-118859540D01*
X107374808Y-118853938D01*
X107374806Y-118853936D01*
X107374806Y-118853937D01*
X107315989Y-118819979D01*
X107315988Y-118819978D01*
X107315987Y-118819978D01*
X107239564Y-118799500D01*
X107239562Y-118799500D01*
X69547083Y-118799500D01*
X69488892Y-118780593D01*
X69472264Y-118765331D01*
X69431128Y-118717857D01*
X69398182Y-118696684D01*
X69310057Y-118640049D01*
X69310054Y-118640047D01*
X69310053Y-118640047D01*
X69310050Y-118640046D01*
X69171964Y-118599500D01*
X69171961Y-118599500D01*
X69028039Y-118599500D01*
X69028035Y-118599500D01*
X68889949Y-118640046D01*
X68889942Y-118640049D01*
X68768873Y-118717855D01*
X68674622Y-118826628D01*
X68614834Y-118957543D01*
X68594353Y-119099997D01*
X18881308Y-119099997D01*
X18797685Y-118943550D01*
X18666410Y-118783590D01*
X18586314Y-118717857D01*
X18506452Y-118652316D01*
X18323954Y-118554768D01*
X18125934Y-118494699D01*
X18125929Y-118494698D01*
X17920003Y-118474417D01*
X17919997Y-118474417D01*
X17714070Y-118494698D01*
X17714065Y-118494699D01*
X17516045Y-118554768D01*
X17333547Y-118652316D01*
X17173595Y-118783585D01*
X17173585Y-118783595D01*
X17042316Y-118943547D01*
X16944768Y-119126045D01*
X16884699Y-119324065D01*
X16884698Y-119324070D01*
X16864417Y-119529996D01*
X8815583Y-119529996D01*
X8795301Y-119324070D01*
X8795300Y-119324065D01*
X8770544Y-119242456D01*
X8735232Y-119126046D01*
X8637685Y-118943550D01*
X8506410Y-118783590D01*
X8426314Y-118717857D01*
X8346452Y-118652316D01*
X8163954Y-118554768D01*
X7965934Y-118494699D01*
X7965929Y-118494698D01*
X7760003Y-118474417D01*
X7759997Y-118474417D01*
X7554070Y-118494698D01*
X7554065Y-118494699D01*
X7356045Y-118554768D01*
X7173547Y-118652316D01*
X7013595Y-118783585D01*
X7013585Y-118783595D01*
X6882316Y-118943547D01*
X6784768Y-119126045D01*
X6724699Y-119324065D01*
X6724698Y-119324070D01*
X6704417Y-119529996D01*
X500500Y-119529996D01*
X500500Y-110639996D01*
X6704417Y-110639996D01*
X6704417Y-110640003D01*
X6724698Y-110845929D01*
X6724699Y-110845934D01*
X6784768Y-111043954D01*
X6882316Y-111226452D01*
X7013585Y-111386404D01*
X7013590Y-111386410D01*
X7013595Y-111386414D01*
X7173547Y-111517683D01*
X7173548Y-111517683D01*
X7173550Y-111517685D01*
X7356046Y-111615232D01*
X7493997Y-111657078D01*
X7554065Y-111675300D01*
X7554070Y-111675301D01*
X7759997Y-111695583D01*
X7760000Y-111695583D01*
X7760003Y-111695583D01*
X7965929Y-111675301D01*
X7965934Y-111675300D01*
X8163954Y-111615232D01*
X8346450Y-111517685D01*
X8506410Y-111386410D01*
X8637685Y-111226450D01*
X8735232Y-111043954D01*
X8795300Y-110845934D01*
X8795301Y-110845929D01*
X8815583Y-110640003D01*
X8815583Y-110639996D01*
X16864417Y-110639996D01*
X16864417Y-110640003D01*
X16884698Y-110845929D01*
X16884699Y-110845934D01*
X16944768Y-111043954D01*
X17042316Y-111226452D01*
X17173585Y-111386404D01*
X17173590Y-111386410D01*
X17173595Y-111386414D01*
X17333547Y-111517683D01*
X17333548Y-111517683D01*
X17333550Y-111517685D01*
X17516046Y-111615232D01*
X17653997Y-111657078D01*
X17714065Y-111675300D01*
X17714070Y-111675301D01*
X17919997Y-111695583D01*
X17920000Y-111695583D01*
X17920003Y-111695583D01*
X18125929Y-111675301D01*
X18125934Y-111675300D01*
X18323954Y-111615232D01*
X18506450Y-111517685D01*
X18666410Y-111386410D01*
X18797685Y-111226450D01*
X18895232Y-111043954D01*
X18955300Y-110845934D01*
X18955301Y-110845929D01*
X18975583Y-110640003D01*
X18975583Y-110639996D01*
X18955301Y-110434070D01*
X18955300Y-110434065D01*
X18937078Y-110373997D01*
X18895232Y-110236046D01*
X18797685Y-110053550D01*
X18666410Y-109893590D01*
X18666404Y-109893585D01*
X18506452Y-109762316D01*
X18323954Y-109664768D01*
X18125934Y-109604699D01*
X18125929Y-109604698D01*
X17920003Y-109584417D01*
X17919997Y-109584417D01*
X17714070Y-109604698D01*
X17714065Y-109604699D01*
X17516045Y-109664768D01*
X17333547Y-109762316D01*
X17173595Y-109893585D01*
X17173585Y-109893595D01*
X17042316Y-110053547D01*
X16944768Y-110236045D01*
X16884699Y-110434065D01*
X16884698Y-110434070D01*
X16864417Y-110639996D01*
X8815583Y-110639996D01*
X8795301Y-110434070D01*
X8795300Y-110434065D01*
X8777078Y-110373997D01*
X8735232Y-110236046D01*
X8637685Y-110053550D01*
X8506410Y-109893590D01*
X8506404Y-109893585D01*
X8346452Y-109762316D01*
X8163954Y-109664768D01*
X7965934Y-109604699D01*
X7965929Y-109604698D01*
X7760003Y-109584417D01*
X7759997Y-109584417D01*
X7554070Y-109604698D01*
X7554065Y-109604699D01*
X7356045Y-109664768D01*
X7173547Y-109762316D01*
X7013595Y-109893585D01*
X7013585Y-109893595D01*
X6882316Y-110053547D01*
X6784768Y-110236045D01*
X6724699Y-110434065D01*
X6724698Y-110434070D01*
X6704417Y-110639996D01*
X500500Y-110639996D01*
X500500Y-108114996D01*
X23219417Y-108114996D01*
X23219417Y-108115003D01*
X23239698Y-108320929D01*
X23239699Y-108320934D01*
X23299768Y-108518954D01*
X23397316Y-108701452D01*
X23499434Y-108825883D01*
X23528590Y-108861410D01*
X23528595Y-108861414D01*
X23688547Y-108992683D01*
X23688548Y-108992683D01*
X23688550Y-108992685D01*
X23871046Y-109090232D01*
X24008997Y-109132078D01*
X24069065Y-109150300D01*
X24069070Y-109150301D01*
X24274997Y-109170583D01*
X24275000Y-109170583D01*
X24275003Y-109170583D01*
X24480929Y-109150301D01*
X24480934Y-109150300D01*
X24678954Y-109090232D01*
X24861450Y-108992685D01*
X25021410Y-108861410D01*
X25152685Y-108701450D01*
X25250232Y-108518954D01*
X25310300Y-108320934D01*
X25310301Y-108320929D01*
X25330583Y-108115003D01*
X25330583Y-108114996D01*
X25759417Y-108114996D01*
X25759417Y-108115003D01*
X25779698Y-108320929D01*
X25779699Y-108320934D01*
X25839768Y-108518954D01*
X25937316Y-108701452D01*
X26039434Y-108825883D01*
X26068590Y-108861410D01*
X26068595Y-108861414D01*
X26228547Y-108992683D01*
X26228548Y-108992683D01*
X26228550Y-108992685D01*
X26411046Y-109090232D01*
X26548997Y-109132078D01*
X26609065Y-109150300D01*
X26609070Y-109150301D01*
X26814998Y-109170583D01*
X26814998Y-109170582D01*
X26815000Y-109170583D01*
X26827503Y-109169351D01*
X26887266Y-109182461D01*
X26907213Y-109197870D01*
X29653457Y-111944114D01*
X29768189Y-112020775D01*
X29895672Y-112073580D01*
X30031006Y-112100500D01*
X30031007Y-112100500D01*
X121863835Y-112100500D01*
X121922026Y-112119407D01*
X121933839Y-112129496D01*
X127338457Y-117534114D01*
X127453189Y-117610775D01*
X127580672Y-117663580D01*
X127716006Y-117690500D01*
X127716007Y-117690500D01*
X130628835Y-117690500D01*
X130687026Y-117709407D01*
X130698839Y-117719496D01*
X135310506Y-122331163D01*
X135338283Y-122385680D01*
X135339502Y-122401167D01*
X135339502Y-123098860D01*
X135320595Y-123157051D01*
X135310506Y-123168863D01*
X135224024Y-123255345D01*
X135109060Y-123427402D01*
X135029871Y-123618581D01*
X134989502Y-123821532D01*
X134989502Y-126528467D01*
X135029871Y-126731418D01*
X135109060Y-126922597D01*
X135224022Y-127094651D01*
X135224025Y-127094655D01*
X135370347Y-127240977D01*
X135542404Y-127355941D01*
X135733582Y-127435130D01*
X135936537Y-127475500D01*
X135936538Y-127475500D01*
X136143466Y-127475500D01*
X136143467Y-127475500D01*
X136346422Y-127435130D01*
X136537600Y-127355941D01*
X136709657Y-127240977D01*
X136855979Y-127094655D01*
X136970943Y-126922598D01*
X137050132Y-126731420D01*
X137090502Y-126528465D01*
X137090502Y-123821535D01*
X137050132Y-123618580D01*
X136970943Y-123427402D01*
X136855979Y-123255345D01*
X136814649Y-123214015D01*
X136769498Y-123168863D01*
X136741721Y-123114346D01*
X136740502Y-123098860D01*
X136740502Y-122001010D01*
X136740501Y-122001006D01*
X136734235Y-121969504D01*
X136713582Y-121865674D01*
X136660777Y-121738191D01*
X136654119Y-121728226D01*
X136584116Y-121623459D01*
X131406543Y-116445886D01*
X131291811Y-116369225D01*
X131291810Y-116369224D01*
X131291808Y-116369223D01*
X131164328Y-116316420D01*
X131028996Y-116289500D01*
X131028994Y-116289500D01*
X131028993Y-116289500D01*
X128116165Y-116289500D01*
X128057974Y-116270593D01*
X128046161Y-116260504D01*
X125723248Y-113937591D01*
X122641543Y-110855886D01*
X122626641Y-110845929D01*
X122526808Y-110779223D01*
X122399328Y-110726420D01*
X122263996Y-110699500D01*
X122263994Y-110699500D01*
X122263993Y-110699500D01*
X30431165Y-110699500D01*
X30372974Y-110680593D01*
X30361161Y-110670504D01*
X27897870Y-108207213D01*
X27870093Y-108152696D01*
X27869351Y-108127502D01*
X27870583Y-108114998D01*
X27870583Y-108114997D01*
X27850301Y-107909070D01*
X27850300Y-107909065D01*
X27832078Y-107848997D01*
X27790232Y-107711046D01*
X27692685Y-107528550D01*
X27681960Y-107515482D01*
X27561414Y-107368595D01*
X27561410Y-107368590D01*
X27525072Y-107338768D01*
X27401452Y-107237316D01*
X27218954Y-107139768D01*
X27020934Y-107079699D01*
X27020929Y-107079698D01*
X26815003Y-107059417D01*
X26814997Y-107059417D01*
X26609070Y-107079698D01*
X26609065Y-107079699D01*
X26411045Y-107139768D01*
X26228547Y-107237316D01*
X26068595Y-107368585D01*
X26068585Y-107368595D01*
X25937316Y-107528547D01*
X25839768Y-107711045D01*
X25779699Y-107909065D01*
X25779698Y-107909070D01*
X25759417Y-108114996D01*
X25330583Y-108114996D01*
X25310301Y-107909070D01*
X25310300Y-107909065D01*
X25292078Y-107848997D01*
X25250232Y-107711046D01*
X25152685Y-107528550D01*
X25141960Y-107515482D01*
X25021414Y-107368595D01*
X25021410Y-107368590D01*
X24985072Y-107338768D01*
X24861452Y-107237316D01*
X24678954Y-107139768D01*
X24480934Y-107079699D01*
X24480929Y-107079698D01*
X24275003Y-107059417D01*
X24274997Y-107059417D01*
X24069070Y-107079698D01*
X24069065Y-107079699D01*
X23871045Y-107139768D01*
X23688547Y-107237316D01*
X23528595Y-107368585D01*
X23528585Y-107368595D01*
X23397316Y-107528547D01*
X23299768Y-107711045D01*
X23239699Y-107909065D01*
X23239698Y-107909070D01*
X23219417Y-108114996D01*
X500500Y-108114996D01*
X500500Y-105560000D01*
X12164518Y-105560000D01*
X12184421Y-105838288D01*
X12184421Y-105838291D01*
X12184422Y-105838294D01*
X12220036Y-106002007D01*
X12243730Y-106110927D01*
X12341231Y-106372338D01*
X12341232Y-106372340D01*
X12474944Y-106617213D01*
X12474943Y-106617213D01*
X12642140Y-106840562D01*
X12642142Y-106840564D01*
X12642145Y-106840568D01*
X12839432Y-107037855D01*
X12839435Y-107037857D01*
X12839437Y-107037859D01*
X13062786Y-107205056D01*
X13228418Y-107295498D01*
X13307663Y-107338769D01*
X13569072Y-107436269D01*
X13569077Y-107436271D01*
X13841706Y-107495578D01*
X14120000Y-107515482D01*
X14398294Y-107495578D01*
X14670923Y-107436271D01*
X14932337Y-107338769D01*
X15177213Y-107205056D01*
X15400568Y-107037855D01*
X15597855Y-106840568D01*
X15765056Y-106617213D01*
X15898769Y-106372337D01*
X15996271Y-106110923D01*
X16055578Y-105838294D01*
X16074409Y-105574996D01*
X23219417Y-105574996D01*
X23219417Y-105575003D01*
X23239698Y-105780929D01*
X23239699Y-105780934D01*
X23299768Y-105978954D01*
X23397316Y-106161452D01*
X23478869Y-106260825D01*
X23528590Y-106321410D01*
X23528595Y-106321414D01*
X23688547Y-106452683D01*
X23688548Y-106452683D01*
X23688550Y-106452685D01*
X23871046Y-106550232D01*
X24008997Y-106592078D01*
X24069065Y-106610300D01*
X24069070Y-106610301D01*
X24274997Y-106630583D01*
X24275000Y-106630583D01*
X24275003Y-106630583D01*
X24480929Y-106610301D01*
X24480934Y-106610300D01*
X24481966Y-106609987D01*
X24678954Y-106550232D01*
X24861450Y-106452685D01*
X25021410Y-106321410D01*
X25152685Y-106161450D01*
X25250232Y-105978954D01*
X25310300Y-105780934D01*
X25310301Y-105780929D01*
X25330583Y-105575003D01*
X25330583Y-105574996D01*
X25759417Y-105574996D01*
X25759417Y-105575003D01*
X25779698Y-105780929D01*
X25779699Y-105780934D01*
X25839768Y-105978954D01*
X25937316Y-106161452D01*
X26018869Y-106260825D01*
X26068590Y-106321410D01*
X26068595Y-106321414D01*
X26228547Y-106452683D01*
X26228548Y-106452683D01*
X26228550Y-106452685D01*
X26411046Y-106550232D01*
X26548997Y-106592078D01*
X26609065Y-106610300D01*
X26609070Y-106610301D01*
X26814997Y-106630583D01*
X26815000Y-106630583D01*
X26815003Y-106630583D01*
X27020929Y-106610301D01*
X27020934Y-106610300D01*
X27021966Y-106609987D01*
X27218954Y-106550232D01*
X27401450Y-106452685D01*
X27561410Y-106321410D01*
X27692685Y-106161450D01*
X27790232Y-105978954D01*
X27850300Y-105780934D01*
X27850301Y-105780929D01*
X27870583Y-105575003D01*
X27870583Y-105574996D01*
X27850301Y-105369070D01*
X27850300Y-105369065D01*
X27811894Y-105242457D01*
X27790232Y-105171046D01*
X27692685Y-104988550D01*
X27680372Y-104973547D01*
X27561414Y-104828595D01*
X27561410Y-104828590D01*
X27559018Y-104826627D01*
X27401452Y-104697316D01*
X27218954Y-104599768D01*
X27020934Y-104539699D01*
X27020929Y-104539698D01*
X26815003Y-104519417D01*
X26814997Y-104519417D01*
X26609070Y-104539698D01*
X26609065Y-104539699D01*
X26411045Y-104599768D01*
X26228547Y-104697316D01*
X26068595Y-104828585D01*
X26068585Y-104828595D01*
X25937316Y-104988547D01*
X25839768Y-105171045D01*
X25779699Y-105369065D01*
X25779698Y-105369070D01*
X25759417Y-105574996D01*
X25330583Y-105574996D01*
X25310301Y-105369070D01*
X25310300Y-105369065D01*
X25271894Y-105242457D01*
X25250232Y-105171046D01*
X25152685Y-104988550D01*
X25140372Y-104973547D01*
X25021414Y-104828595D01*
X25021410Y-104828590D01*
X25019018Y-104826627D01*
X24861452Y-104697316D01*
X24678954Y-104599768D01*
X24480934Y-104539699D01*
X24480929Y-104539698D01*
X24275003Y-104519417D01*
X24274997Y-104519417D01*
X24069070Y-104539698D01*
X24069065Y-104539699D01*
X23871045Y-104599768D01*
X23688547Y-104697316D01*
X23528595Y-104828585D01*
X23528585Y-104828595D01*
X23397316Y-104988547D01*
X23299768Y-105171045D01*
X23239699Y-105369065D01*
X23239698Y-105369070D01*
X23219417Y-105574996D01*
X16074409Y-105574996D01*
X16075482Y-105560000D01*
X16055578Y-105281706D01*
X15996271Y-105009077D01*
X15898769Y-104747663D01*
X15765056Y-104502787D01*
X15765055Y-104502786D01*
X15765056Y-104502786D01*
X15597859Y-104279437D01*
X15597857Y-104279435D01*
X15597855Y-104279432D01*
X15400568Y-104082145D01*
X15400564Y-104082142D01*
X15400562Y-104082140D01*
X15177213Y-103914943D01*
X14932340Y-103781232D01*
X14932338Y-103781231D01*
X14670926Y-103683730D01*
X14670928Y-103683730D01*
X14610082Y-103670493D01*
X14398294Y-103624422D01*
X14398291Y-103624421D01*
X14398288Y-103624421D01*
X14120000Y-103604518D01*
X13841711Y-103624421D01*
X13841706Y-103624421D01*
X13841706Y-103624422D01*
X13705391Y-103654075D01*
X13569072Y-103683730D01*
X13307661Y-103781231D01*
X13307659Y-103781232D01*
X13062786Y-103914943D01*
X12839437Y-104082140D01*
X12642140Y-104279437D01*
X12474943Y-104502786D01*
X12341232Y-104747659D01*
X12341231Y-104747661D01*
X12243730Y-105009072D01*
X12184421Y-105281711D01*
X12164518Y-105560000D01*
X500500Y-105560000D01*
X500500Y-102165253D01*
X23224500Y-102165253D01*
X23224500Y-103904746D01*
X23224501Y-103904758D01*
X23236132Y-103963227D01*
X23236134Y-103963233D01*
X23270422Y-104014548D01*
X23280448Y-104029552D01*
X23346769Y-104073867D01*
X23388360Y-104082140D01*
X23405241Y-104085498D01*
X23405246Y-104085498D01*
X23405252Y-104085500D01*
X23405253Y-104085500D01*
X25144747Y-104085500D01*
X25144748Y-104085500D01*
X25203231Y-104073867D01*
X25269552Y-104029552D01*
X25313867Y-103963231D01*
X25325500Y-103904748D01*
X25325500Y-103034996D01*
X25759417Y-103034996D01*
X25759417Y-103035003D01*
X25779698Y-103240929D01*
X25779699Y-103240934D01*
X25839768Y-103438954D01*
X25937316Y-103621452D01*
X26030913Y-103735500D01*
X26068590Y-103781410D01*
X26068595Y-103781414D01*
X26228547Y-103912683D01*
X26228548Y-103912683D01*
X26228550Y-103912685D01*
X26411046Y-104010232D01*
X26548997Y-104052078D01*
X26609065Y-104070300D01*
X26609070Y-104070301D01*
X26814997Y-104090583D01*
X26815000Y-104090583D01*
X26815003Y-104090583D01*
X27020929Y-104070301D01*
X27020934Y-104070300D01*
X27218954Y-104010232D01*
X27401450Y-103912685D01*
X27561410Y-103781410D01*
X27569384Y-103771693D01*
X27620915Y-103738707D01*
X27645911Y-103735500D01*
X29503835Y-103735500D01*
X29562026Y-103754407D01*
X29573839Y-103764496D01*
X35723457Y-109914114D01*
X35838189Y-109990775D01*
X35965672Y-110043580D01*
X36101006Y-110070500D01*
X36101007Y-110070500D01*
X44264944Y-110070500D01*
X44435056Y-110070500D01*
X123008833Y-110070500D01*
X123067024Y-110089407D01*
X123078837Y-110099496D01*
X127879657Y-114900315D01*
X127891816Y-114917930D01*
X127939641Y-114960299D01*
X127973456Y-114994114D01*
X127985578Y-115002214D01*
X127996213Y-115010418D01*
X128019147Y-115030735D01*
X128019151Y-115030737D01*
X128057004Y-115050604D01*
X128057005Y-115050604D01*
X128061646Y-115053040D01*
X128088188Y-115070775D01*
X128122575Y-115085019D01*
X128169774Y-115109791D01*
X128169779Y-115109792D01*
X128169781Y-115109793D01*
X128193620Y-115115668D01*
X128200899Y-115117462D01*
X128215670Y-115123581D01*
X128267759Y-115133941D01*
X128334943Y-115150501D01*
X128334945Y-115150501D01*
X128505052Y-115150501D01*
X128505055Y-115150501D01*
X128572241Y-115133941D01*
X128624327Y-115123581D01*
X128639096Y-115117463D01*
X128670224Y-115109791D01*
X128717423Y-115085018D01*
X128751810Y-115070775D01*
X128778351Y-115053040D01*
X128820851Y-115030735D01*
X128848826Y-115005951D01*
X128866542Y-114994114D01*
X128900356Y-114960299D01*
X128948182Y-114917930D01*
X128960340Y-114900315D01*
X128964112Y-114896544D01*
X128999463Y-114843636D01*
X129044817Y-114777931D01*
X129071236Y-114708268D01*
X129093579Y-114654329D01*
X129095659Y-114643867D01*
X129105139Y-114618873D01*
X129112202Y-114560699D01*
X129120498Y-114518995D01*
X129120498Y-114492381D01*
X129125644Y-114450001D01*
X129120498Y-114407620D01*
X129120498Y-114381007D01*
X129112202Y-114339301D01*
X129105139Y-114281129D01*
X129098582Y-114263839D01*
X129098582Y-114263838D01*
X129095659Y-114256131D01*
X129093579Y-114245672D01*
X129071233Y-114191726D01*
X129044817Y-114122071D01*
X128999463Y-114056365D01*
X128964112Y-114003458D01*
X128960340Y-113999686D01*
X128955229Y-113992281D01*
X128948184Y-113982074D01*
X128948180Y-113982069D01*
X128902600Y-113941689D01*
X128898245Y-113937591D01*
X126347058Y-111386404D01*
X123786541Y-108825886D01*
X123671809Y-108749225D01*
X123671808Y-108749224D01*
X123671806Y-108749223D01*
X123544326Y-108696420D01*
X123408994Y-108669500D01*
X123408992Y-108669500D01*
X123408991Y-108669500D01*
X36501165Y-108669500D01*
X36442974Y-108650593D01*
X36431161Y-108640504D01*
X33415797Y-105625140D01*
X33350653Y-105559996D01*
X38464417Y-105559996D01*
X38464417Y-105560003D01*
X38484698Y-105765929D01*
X38484699Y-105765934D01*
X38544768Y-105963954D01*
X38642316Y-106146452D01*
X38736180Y-106260826D01*
X38773590Y-106306410D01*
X38773595Y-106306414D01*
X38933547Y-106437683D01*
X38933548Y-106437683D01*
X38933550Y-106437685D01*
X39116046Y-106535232D01*
X39253997Y-106577078D01*
X39314065Y-106595300D01*
X39314070Y-106595301D01*
X39519997Y-106615583D01*
X39520000Y-106615583D01*
X39520003Y-106615583D01*
X39725929Y-106595301D01*
X39725934Y-106595300D01*
X39726600Y-106595098D01*
X39923954Y-106535232D01*
X40106450Y-106437685D01*
X40266410Y-106306410D01*
X40397685Y-106146450D01*
X40495232Y-105963954D01*
X40555300Y-105765934D01*
X40555301Y-105765929D01*
X40575583Y-105560003D01*
X40575583Y-105559996D01*
X41004417Y-105559996D01*
X41004417Y-105560003D01*
X41024698Y-105765929D01*
X41024699Y-105765934D01*
X41084768Y-105963954D01*
X41182316Y-106146452D01*
X41276180Y-106260826D01*
X41313590Y-106306410D01*
X41313595Y-106306414D01*
X41473547Y-106437683D01*
X41473548Y-106437683D01*
X41473550Y-106437685D01*
X41656046Y-106535232D01*
X41793997Y-106577078D01*
X41854065Y-106595300D01*
X41854070Y-106595301D01*
X42059997Y-106615583D01*
X42060000Y-106615583D01*
X42060003Y-106615583D01*
X42265929Y-106595301D01*
X42265934Y-106595300D01*
X42266600Y-106595098D01*
X42463954Y-106535232D01*
X42646450Y-106437685D01*
X42806410Y-106306410D01*
X42937685Y-106146450D01*
X43035232Y-105963954D01*
X43095300Y-105765934D01*
X43095301Y-105765929D01*
X43115583Y-105560003D01*
X43115583Y-105559996D01*
X43095301Y-105354070D01*
X43095300Y-105354065D01*
X43039782Y-105171046D01*
X43035232Y-105156046D01*
X42937685Y-104973550D01*
X42924548Y-104957543D01*
X42806414Y-104813595D01*
X42806410Y-104813590D01*
X42766203Y-104780593D01*
X42646452Y-104682316D01*
X42463954Y-104584768D01*
X42265934Y-104524699D01*
X42265929Y-104524698D01*
X42060003Y-104504417D01*
X42059997Y-104504417D01*
X41854070Y-104524698D01*
X41854065Y-104524699D01*
X41656045Y-104584768D01*
X41473547Y-104682316D01*
X41313595Y-104813585D01*
X41313585Y-104813595D01*
X41182316Y-104973547D01*
X41084768Y-105156045D01*
X41024699Y-105354065D01*
X41024698Y-105354070D01*
X41004417Y-105559996D01*
X40575583Y-105559996D01*
X40555301Y-105354070D01*
X40555300Y-105354065D01*
X40499782Y-105171046D01*
X40495232Y-105156046D01*
X40397685Y-104973550D01*
X40384548Y-104957543D01*
X40266414Y-104813595D01*
X40266410Y-104813590D01*
X40226203Y-104780593D01*
X40106452Y-104682316D01*
X39923954Y-104584768D01*
X39725934Y-104524699D01*
X39725929Y-104524698D01*
X39520003Y-104504417D01*
X39519997Y-104504417D01*
X39314070Y-104524698D01*
X39314065Y-104524699D01*
X39116045Y-104584768D01*
X38933547Y-104682316D01*
X38773595Y-104813585D01*
X38773585Y-104813595D01*
X38642316Y-104973547D01*
X38544768Y-105156045D01*
X38484699Y-105354065D01*
X38484698Y-105354070D01*
X38464417Y-105559996D01*
X33350653Y-105559996D01*
X31849522Y-104058865D01*
X30281543Y-102490886D01*
X30218182Y-102448550D01*
X30166808Y-102414223D01*
X30039328Y-102361420D01*
X29903996Y-102334500D01*
X29903994Y-102334500D01*
X29903993Y-102334500D01*
X27645911Y-102334500D01*
X27587720Y-102315593D01*
X27580702Y-102309991D01*
X27574562Y-102304616D01*
X27561410Y-102288590D01*
X27411123Y-102165253D01*
X27401452Y-102157316D01*
X27388238Y-102150253D01*
X38469500Y-102150253D01*
X38469500Y-103889746D01*
X38469501Y-103889758D01*
X38481132Y-103948227D01*
X38481134Y-103948233D01*
X38522561Y-104010232D01*
X38525448Y-104014552D01*
X38591769Y-104058867D01*
X38636231Y-104067711D01*
X38650241Y-104070498D01*
X38650246Y-104070498D01*
X38650252Y-104070500D01*
X38650253Y-104070500D01*
X40389747Y-104070500D01*
X40389748Y-104070500D01*
X40448231Y-104058867D01*
X40514552Y-104014552D01*
X40558867Y-103948231D01*
X40570500Y-103889748D01*
X40570500Y-103019996D01*
X41004417Y-103019996D01*
X41004417Y-103020003D01*
X41024698Y-103225929D01*
X41024699Y-103225934D01*
X41084768Y-103423954D01*
X41182316Y-103606452D01*
X41288223Y-103735500D01*
X41313590Y-103766410D01*
X41313595Y-103766414D01*
X41473547Y-103897683D01*
X41473548Y-103897683D01*
X41473550Y-103897685D01*
X41656046Y-103995232D01*
X41769192Y-104029554D01*
X41854065Y-104055300D01*
X41854070Y-104055301D01*
X42059997Y-104075583D01*
X42060000Y-104075583D01*
X42060003Y-104075583D01*
X42265929Y-104055301D01*
X42265934Y-104055300D01*
X42463954Y-103995232D01*
X42646450Y-103897685D01*
X42806410Y-103766410D01*
X42937685Y-103606450D01*
X43035232Y-103423954D01*
X43095300Y-103225934D01*
X43095301Y-103225929D01*
X43115583Y-103020003D01*
X43115583Y-103019997D01*
X58574353Y-103019997D01*
X58574353Y-103020002D01*
X58594834Y-103162456D01*
X58639170Y-103259536D01*
X58654623Y-103293373D01*
X58748872Y-103402143D01*
X58748873Y-103402144D01*
X58806151Y-103438954D01*
X58869947Y-103479953D01*
X58976403Y-103511211D01*
X59008035Y-103520499D01*
X59008036Y-103520499D01*
X59008039Y-103520500D01*
X59008041Y-103520500D01*
X59114521Y-103520500D01*
X59172712Y-103539407D01*
X59184525Y-103549496D01*
X60919540Y-105284511D01*
X60919539Y-105284511D01*
X60975489Y-105340460D01*
X61044007Y-105380019D01*
X61044011Y-105380021D01*
X61120435Y-105400499D01*
X61120437Y-105400500D01*
X61120438Y-105400500D01*
X61199562Y-105400500D01*
X80352917Y-105400500D01*
X80411108Y-105419407D01*
X80427733Y-105434667D01*
X80468872Y-105482143D01*
X80589947Y-105559953D01*
X80696403Y-105591211D01*
X80728035Y-105600499D01*
X80728036Y-105600499D01*
X80728039Y-105600500D01*
X80728041Y-105600500D01*
X80871959Y-105600500D01*
X80871961Y-105600500D01*
X81010053Y-105559953D01*
X81131128Y-105482143D01*
X81225377Y-105373373D01*
X81285165Y-105242457D01*
X81305647Y-105100000D01*
X81304928Y-105095001D01*
X81285165Y-104957543D01*
X81256601Y-104894998D01*
X81225377Y-104826627D01*
X81131128Y-104717857D01*
X81131127Y-104717856D01*
X81131126Y-104717855D01*
X81010057Y-104640049D01*
X81010054Y-104640047D01*
X81010053Y-104640047D01*
X81010050Y-104640046D01*
X80871964Y-104599500D01*
X80871961Y-104599500D01*
X80728039Y-104599500D01*
X80728035Y-104599500D01*
X80589949Y-104640046D01*
X80589942Y-104640049D01*
X80468876Y-104717854D01*
X80468875Y-104717855D01*
X80468872Y-104717857D01*
X80443049Y-104747659D01*
X80427736Y-104765331D01*
X80375340Y-104796927D01*
X80352917Y-104799500D01*
X61325479Y-104799500D01*
X61267288Y-104780593D01*
X61255475Y-104770504D01*
X60436251Y-103951280D01*
X60960845Y-103951280D01*
X60960845Y-103951285D01*
X60979280Y-104079508D01*
X60982016Y-104085498D01*
X61033096Y-104197346D01*
X61104223Y-104279432D01*
X61117930Y-104295251D01*
X61216393Y-104358529D01*
X61226909Y-104365287D01*
X61351206Y-104401783D01*
X61351208Y-104401783D01*
X61480748Y-104401783D01*
X61480750Y-104401783D01*
X61605047Y-104365287D01*
X61615562Y-104358528D01*
X61674736Y-104342972D01*
X61731754Y-104365169D01*
X61743908Y-104376981D01*
X61801951Y-104443967D01*
X61910931Y-104514004D01*
X62035228Y-104550500D01*
X62035230Y-104550500D01*
X62164770Y-104550500D01*
X62164772Y-104550500D01*
X62289069Y-104514004D01*
X62398049Y-104443967D01*
X62406105Y-104434670D01*
X62458500Y-104403073D01*
X62480925Y-104400500D01*
X85134521Y-104400500D01*
X85192712Y-104419407D01*
X85204525Y-104429496D01*
X88959540Y-108184511D01*
X88959539Y-108184511D01*
X89015489Y-108240460D01*
X89084007Y-108280019D01*
X89084011Y-108280021D01*
X89160435Y-108300499D01*
X89160437Y-108300500D01*
X89160438Y-108300500D01*
X92439563Y-108300500D01*
X92439563Y-108300499D01*
X92515989Y-108280021D01*
X92584511Y-108240460D01*
X92617758Y-108207213D01*
X92640461Y-108184511D01*
X92915906Y-107909065D01*
X93100458Y-107724513D01*
X93114899Y-107699500D01*
X93140019Y-107655991D01*
X93160498Y-107579564D01*
X93160498Y-107323730D01*
X93179405Y-107265539D01*
X93221612Y-107232266D01*
X93357596Y-107175940D01*
X93529653Y-107060976D01*
X93675975Y-106914654D01*
X93790939Y-106742597D01*
X93870128Y-106551419D01*
X93910498Y-106348464D01*
X93910498Y-105095001D01*
X94350001Y-105095001D01*
X94350001Y-106899203D01*
X94352850Y-106929600D01*
X94352850Y-106929602D01*
X94397654Y-107057647D01*
X94478207Y-107166790D01*
X94478209Y-107166792D01*
X94587352Y-107247345D01*
X94715398Y-107292149D01*
X94745789Y-107294999D01*
X95299998Y-107294999D01*
X95300000Y-107294998D01*
X95300000Y-106685842D01*
X95334174Y-106695000D01*
X95465826Y-106695000D01*
X95500000Y-106685842D01*
X95500000Y-107294998D01*
X95500001Y-107294999D01*
X96054203Y-107294999D01*
X96084600Y-107292149D01*
X96084602Y-107292149D01*
X96212647Y-107247345D01*
X96321790Y-107166792D01*
X96321792Y-107166790D01*
X96402345Y-107057647D01*
X96447149Y-106929601D01*
X96449999Y-106899211D01*
X96450000Y-106899210D01*
X96450000Y-105095001D01*
X96449999Y-105095000D01*
X95500001Y-105095000D01*
X95500000Y-105095001D01*
X95500000Y-105704157D01*
X95465826Y-105695000D01*
X95334174Y-105695000D01*
X95300000Y-105704157D01*
X95300000Y-105095001D01*
X95299999Y-105095000D01*
X94350002Y-105095000D01*
X94350001Y-105095001D01*
X93910498Y-105095001D01*
X93910498Y-103641534D01*
X93870128Y-103438579D01*
X93790939Y-103247401D01*
X93686294Y-103090788D01*
X94350000Y-103090788D01*
X94350000Y-104894999D01*
X94350001Y-104895000D01*
X95299999Y-104895000D01*
X95300000Y-104894999D01*
X95300000Y-102695001D01*
X95500000Y-102695001D01*
X95500000Y-104894999D01*
X95500001Y-104895000D01*
X96449998Y-104895000D01*
X96449999Y-104894999D01*
X96449999Y-103641532D01*
X96889500Y-103641532D01*
X96889500Y-106348467D01*
X96929869Y-106551418D01*
X97009058Y-106742597D01*
X97124020Y-106914651D01*
X97124023Y-106914655D01*
X97270345Y-107060977D01*
X97442402Y-107175941D01*
X97633580Y-107255130D01*
X97836535Y-107295500D01*
X97836536Y-107295500D01*
X98043464Y-107295500D01*
X98043465Y-107295500D01*
X98246420Y-107255130D01*
X98437598Y-107175941D01*
X98609655Y-107060977D01*
X98755977Y-106914655D01*
X98870941Y-106742598D01*
X98950130Y-106551420D01*
X98990500Y-106348465D01*
X98990500Y-103641535D01*
X98990499Y-103641532D01*
X99429503Y-103641532D01*
X99429503Y-106348467D01*
X99469872Y-106551418D01*
X99549061Y-106742597D01*
X99664023Y-106914651D01*
X99664026Y-106914655D01*
X99810348Y-107060977D01*
X99982405Y-107175941D01*
X100173583Y-107255130D01*
X100376538Y-107295500D01*
X100376539Y-107295500D01*
X100583467Y-107295500D01*
X100583468Y-107295500D01*
X100786423Y-107255130D01*
X100977601Y-107175941D01*
X101149658Y-107060977D01*
X101295980Y-106914655D01*
X101410944Y-106742598D01*
X101490133Y-106551420D01*
X101530503Y-106348465D01*
X101530503Y-103641535D01*
X101530502Y-103641532D01*
X101969500Y-103641532D01*
X101969500Y-106348467D01*
X102009869Y-106551418D01*
X102089058Y-106742597D01*
X102204020Y-106914651D01*
X102204023Y-106914655D01*
X102350345Y-107060977D01*
X102522402Y-107175941D01*
X102713580Y-107255130D01*
X102916535Y-107295500D01*
X102916536Y-107295500D01*
X103123464Y-107295500D01*
X103123465Y-107295500D01*
X103326420Y-107255130D01*
X103517598Y-107175941D01*
X103689655Y-107060977D01*
X103835977Y-106914655D01*
X103950941Y-106742598D01*
X104030130Y-106551420D01*
X104070500Y-106348465D01*
X104070500Y-103641535D01*
X104070499Y-103641532D01*
X104509500Y-103641532D01*
X104509500Y-106348467D01*
X104549869Y-106551418D01*
X104629058Y-106742597D01*
X104744020Y-106914651D01*
X104744023Y-106914655D01*
X104890345Y-107060977D01*
X105062402Y-107175941D01*
X105253580Y-107255130D01*
X105456535Y-107295500D01*
X105456536Y-107295500D01*
X105663464Y-107295500D01*
X105663465Y-107295500D01*
X105866420Y-107255130D01*
X106057598Y-107175941D01*
X106229655Y-107060977D01*
X106375977Y-106914655D01*
X106490941Y-106742598D01*
X106570130Y-106551420D01*
X106610500Y-106348465D01*
X106610500Y-105095000D01*
X107050001Y-105095000D01*
X107050001Y-106899202D01*
X107052850Y-106929599D01*
X107052850Y-106929601D01*
X107097654Y-107057646D01*
X107178207Y-107166789D01*
X107178209Y-107166791D01*
X107287352Y-107247344D01*
X107415398Y-107292148D01*
X107445789Y-107294998D01*
X107999998Y-107294998D01*
X108000000Y-107294997D01*
X108000000Y-106685841D01*
X108034174Y-106694999D01*
X108165826Y-106694999D01*
X108200000Y-106685841D01*
X108200000Y-107294997D01*
X108200001Y-107294998D01*
X108754203Y-107294998D01*
X108784600Y-107292148D01*
X108784602Y-107292148D01*
X108912647Y-107247344D01*
X109021790Y-107166791D01*
X109021792Y-107166789D01*
X109102345Y-107057646D01*
X109147149Y-106929600D01*
X109149999Y-106899210D01*
X109150000Y-106899209D01*
X109150000Y-105095000D01*
X109149999Y-105094999D01*
X108200001Y-105094999D01*
X108200000Y-105095000D01*
X108200000Y-105704156D01*
X108165826Y-105694999D01*
X108034174Y-105694999D01*
X108000000Y-105704156D01*
X108000000Y-105095000D01*
X107999999Y-105094999D01*
X107050002Y-105094999D01*
X107050001Y-105095000D01*
X106610500Y-105095000D01*
X106610500Y-103641535D01*
X106570130Y-103438580D01*
X106490941Y-103247402D01*
X106386295Y-103090787D01*
X107050000Y-103090787D01*
X107050000Y-104894998D01*
X107050001Y-104894999D01*
X107999999Y-104894999D01*
X108000000Y-104894998D01*
X108000000Y-102695000D01*
X108200000Y-102695000D01*
X108200000Y-104894998D01*
X108200001Y-104894999D01*
X109149998Y-104894999D01*
X109149999Y-104894998D01*
X109149999Y-103641532D01*
X109589500Y-103641532D01*
X109589500Y-106348467D01*
X109629869Y-106551418D01*
X109709058Y-106742597D01*
X109824020Y-106914651D01*
X109824023Y-106914655D01*
X109970345Y-107060977D01*
X110142402Y-107175941D01*
X110333580Y-107255130D01*
X110536535Y-107295500D01*
X110536536Y-107295500D01*
X110743464Y-107295500D01*
X110743465Y-107295500D01*
X110946420Y-107255130D01*
X111137598Y-107175941D01*
X111309655Y-107060977D01*
X111455977Y-106914655D01*
X111570941Y-106742598D01*
X111650130Y-106551420D01*
X111690500Y-106348465D01*
X111690500Y-103641535D01*
X111690499Y-103641532D01*
X112129500Y-103641532D01*
X112129500Y-106348467D01*
X112169869Y-106551418D01*
X112249058Y-106742597D01*
X112364020Y-106914651D01*
X112364023Y-106914655D01*
X112510345Y-107060977D01*
X112682402Y-107175941D01*
X112873580Y-107255130D01*
X113076535Y-107295500D01*
X113076536Y-107295500D01*
X113283464Y-107295500D01*
X113283465Y-107295500D01*
X113486420Y-107255130D01*
X113677598Y-107175941D01*
X113849655Y-107060977D01*
X113995977Y-106914655D01*
X114110941Y-106742598D01*
X114190130Y-106551420D01*
X114230500Y-106348465D01*
X114230500Y-103641535D01*
X114230499Y-103641532D01*
X114669502Y-103641532D01*
X114669502Y-106348467D01*
X114709871Y-106551418D01*
X114789060Y-106742597D01*
X114904022Y-106914651D01*
X114904025Y-106914655D01*
X115050347Y-107060977D01*
X115222404Y-107175941D01*
X115413582Y-107255130D01*
X115616537Y-107295500D01*
X115616538Y-107295500D01*
X115823466Y-107295500D01*
X115823467Y-107295500D01*
X116026422Y-107255130D01*
X116217600Y-107175941D01*
X116389657Y-107060977D01*
X116535979Y-106914655D01*
X116650943Y-106742598D01*
X116730132Y-106551420D01*
X116770502Y-106348465D01*
X116770502Y-103641535D01*
X116770501Y-103641532D01*
X117209500Y-103641532D01*
X117209500Y-106348467D01*
X117249869Y-106551418D01*
X117329058Y-106742597D01*
X117444020Y-106914651D01*
X117444023Y-106914655D01*
X117590345Y-107060977D01*
X117762402Y-107175941D01*
X117953580Y-107255130D01*
X118156535Y-107295500D01*
X118156536Y-107295500D01*
X118363464Y-107295500D01*
X118363465Y-107295500D01*
X118566420Y-107255130D01*
X118757598Y-107175941D01*
X118929655Y-107060977D01*
X119075977Y-106914655D01*
X119190941Y-106742598D01*
X119270130Y-106551420D01*
X119310500Y-106348465D01*
X119310500Y-105095001D01*
X119750001Y-105095001D01*
X119750001Y-106899203D01*
X119752850Y-106929600D01*
X119752850Y-106929602D01*
X119797654Y-107057647D01*
X119878207Y-107166790D01*
X119878209Y-107166792D01*
X119987352Y-107247345D01*
X120115398Y-107292149D01*
X120145789Y-107294999D01*
X120699998Y-107294999D01*
X120700000Y-107294998D01*
X120700000Y-106685842D01*
X120734174Y-106695000D01*
X120865826Y-106695000D01*
X120900000Y-106685842D01*
X120900000Y-107294998D01*
X120900001Y-107294999D01*
X121454203Y-107294999D01*
X121484600Y-107292149D01*
X121484602Y-107292149D01*
X121612647Y-107247345D01*
X121721790Y-107166792D01*
X121721792Y-107166790D01*
X121802345Y-107057647D01*
X121847149Y-106929601D01*
X121849999Y-106899211D01*
X121850000Y-106899210D01*
X121850000Y-105095001D01*
X121849999Y-105095000D01*
X120900001Y-105095000D01*
X120900000Y-105095001D01*
X120900000Y-105704157D01*
X120865826Y-105695000D01*
X120734174Y-105695000D01*
X120700000Y-105704157D01*
X120700000Y-105095001D01*
X120699999Y-105095000D01*
X119750002Y-105095000D01*
X119750001Y-105095001D01*
X119310500Y-105095001D01*
X119310500Y-103641535D01*
X119270130Y-103438580D01*
X119190941Y-103247402D01*
X119086296Y-103090788D01*
X119750000Y-103090788D01*
X119750000Y-104894999D01*
X119750001Y-104895000D01*
X120699999Y-104895000D01*
X120700000Y-104894999D01*
X120700000Y-102695001D01*
X120900000Y-102695001D01*
X120900000Y-104894999D01*
X120900001Y-104895000D01*
X121849998Y-104895000D01*
X121849999Y-104894999D01*
X121849999Y-103641532D01*
X122289500Y-103641532D01*
X122289500Y-106348467D01*
X122329869Y-106551418D01*
X122409058Y-106742597D01*
X122524020Y-106914651D01*
X122524023Y-106914655D01*
X122670345Y-107060977D01*
X122842402Y-107175941D01*
X123033580Y-107255130D01*
X123236535Y-107295500D01*
X123236536Y-107295500D01*
X123443464Y-107295500D01*
X123443465Y-107295500D01*
X123646420Y-107255130D01*
X123837598Y-107175941D01*
X124009655Y-107060977D01*
X124155977Y-106914655D01*
X124270941Y-106742598D01*
X124350130Y-106551420D01*
X124390500Y-106348465D01*
X124390500Y-103641535D01*
X124390499Y-103641532D01*
X124829501Y-103641532D01*
X124829501Y-106348467D01*
X124869870Y-106551418D01*
X124949059Y-106742597D01*
X125064021Y-106914651D01*
X125064024Y-106914655D01*
X125210346Y-107060977D01*
X125382403Y-107175941D01*
X125573581Y-107255130D01*
X125776536Y-107295500D01*
X125776537Y-107295500D01*
X125983465Y-107295500D01*
X125983466Y-107295500D01*
X126186421Y-107255130D01*
X126377599Y-107175941D01*
X126549656Y-107060977D01*
X126695978Y-106914655D01*
X126810942Y-106742598D01*
X126890131Y-106551420D01*
X126930501Y-106348465D01*
X126930501Y-103641535D01*
X126930500Y-103641532D01*
X126930499Y-103641529D01*
X127369501Y-103641529D01*
X127369501Y-106348464D01*
X127409870Y-106551415D01*
X127489059Y-106742594D01*
X127604021Y-106914648D01*
X127604024Y-106914652D01*
X127750346Y-107060974D01*
X127922403Y-107175938D01*
X128113581Y-107255127D01*
X128316536Y-107295497D01*
X128316537Y-107295497D01*
X128523465Y-107295497D01*
X128523466Y-107295497D01*
X128726421Y-107255127D01*
X128917599Y-107175938D01*
X129089656Y-107060974D01*
X129235978Y-106914652D01*
X129350942Y-106742595D01*
X129430131Y-106551417D01*
X129470501Y-106348462D01*
X129470501Y-103641532D01*
X129909500Y-103641532D01*
X129909500Y-106348467D01*
X129949869Y-106551418D01*
X130029058Y-106742597D01*
X130144020Y-106914651D01*
X130144023Y-106914655D01*
X130290345Y-107060977D01*
X130462402Y-107175941D01*
X130653580Y-107255130D01*
X130856535Y-107295500D01*
X130856536Y-107295500D01*
X131063464Y-107295500D01*
X131063465Y-107295500D01*
X131266420Y-107255130D01*
X131457598Y-107175941D01*
X131629655Y-107060977D01*
X131775977Y-106914655D01*
X131890941Y-106742598D01*
X131970130Y-106551420D01*
X132010500Y-106348465D01*
X132010500Y-105095001D01*
X132450001Y-105095001D01*
X132450001Y-106899203D01*
X132452850Y-106929600D01*
X132452850Y-106929602D01*
X132497654Y-107057647D01*
X132578207Y-107166790D01*
X132578209Y-107166792D01*
X132687352Y-107247345D01*
X132815398Y-107292149D01*
X132845789Y-107294999D01*
X133399998Y-107294999D01*
X133400000Y-107294998D01*
X133400000Y-106685842D01*
X133434174Y-106695000D01*
X133565826Y-106695000D01*
X133600000Y-106685842D01*
X133600000Y-107294998D01*
X133600001Y-107294999D01*
X134154203Y-107294999D01*
X134184600Y-107292149D01*
X134184602Y-107292149D01*
X134312647Y-107247345D01*
X134421790Y-107166792D01*
X134421792Y-107166790D01*
X134502345Y-107057647D01*
X134547149Y-106929601D01*
X134549999Y-106899211D01*
X134550000Y-106899210D01*
X134550000Y-105095001D01*
X134549999Y-105095000D01*
X133600001Y-105095000D01*
X133600000Y-105095001D01*
X133600000Y-105704157D01*
X133565826Y-105695000D01*
X133434174Y-105695000D01*
X133400000Y-105704157D01*
X133400000Y-105095001D01*
X133399999Y-105095000D01*
X132450002Y-105095000D01*
X132450001Y-105095001D01*
X132010500Y-105095001D01*
X132010500Y-103641535D01*
X131970130Y-103438580D01*
X131890941Y-103247402D01*
X131786296Y-103090788D01*
X132450000Y-103090788D01*
X132450000Y-104894999D01*
X132450001Y-104895000D01*
X133399999Y-104895000D01*
X133400000Y-104894999D01*
X133400000Y-102695001D01*
X133600000Y-102695001D01*
X133600000Y-104894999D01*
X133600001Y-104895000D01*
X134549998Y-104895000D01*
X134549999Y-104894999D01*
X134549999Y-103641531D01*
X134989496Y-103641531D01*
X134989496Y-106348466D01*
X135029865Y-106551417D01*
X135109054Y-106742596D01*
X135213700Y-106899211D01*
X135224019Y-106914654D01*
X135370341Y-107060976D01*
X135542398Y-107175940D01*
X135733576Y-107255129D01*
X135936531Y-107295499D01*
X135936532Y-107295499D01*
X136143460Y-107295499D01*
X136143461Y-107295499D01*
X136346416Y-107255129D01*
X136537594Y-107175940D01*
X136709651Y-107060976D01*
X136855973Y-106914654D01*
X136970937Y-106742597D01*
X137050126Y-106551419D01*
X137090496Y-106348464D01*
X137090496Y-103641534D01*
X137050126Y-103438579D01*
X136970937Y-103247401D01*
X136855973Y-103075344D01*
X136709651Y-102929022D01*
X136632607Y-102877543D01*
X136537593Y-102814057D01*
X136346414Y-102734868D01*
X136143463Y-102694499D01*
X136143461Y-102694499D01*
X135936531Y-102694499D01*
X135936528Y-102694499D01*
X135733577Y-102734868D01*
X135542398Y-102814057D01*
X135370344Y-102929019D01*
X135224016Y-103075347D01*
X135109054Y-103247401D01*
X135029865Y-103438580D01*
X134989496Y-103641531D01*
X134549999Y-103641531D01*
X134549999Y-103090796D01*
X134547149Y-103060399D01*
X134547149Y-103060397D01*
X134502345Y-102932352D01*
X134421792Y-102823209D01*
X134421790Y-102823207D01*
X134312647Y-102742654D01*
X134184601Y-102697850D01*
X134154211Y-102695000D01*
X133600001Y-102695000D01*
X133600000Y-102695001D01*
X133400000Y-102695001D01*
X133399999Y-102695000D01*
X132845796Y-102695000D01*
X132815399Y-102697850D01*
X132815397Y-102697850D01*
X132687352Y-102742654D01*
X132578209Y-102823207D01*
X132578207Y-102823209D01*
X132497654Y-102932352D01*
X132452850Y-103060398D01*
X132450000Y-103090788D01*
X131786296Y-103090788D01*
X131775977Y-103075345D01*
X131629655Y-102929023D01*
X131629651Y-102929020D01*
X131457597Y-102814058D01*
X131266418Y-102734869D01*
X131063467Y-102694500D01*
X131063465Y-102694500D01*
X130856535Y-102694500D01*
X130856532Y-102694500D01*
X130653581Y-102734869D01*
X130462402Y-102814058D01*
X130290348Y-102929020D01*
X130144020Y-103075348D01*
X130029058Y-103247402D01*
X129949869Y-103438581D01*
X129909500Y-103641532D01*
X129470501Y-103641532D01*
X129430131Y-103438577D01*
X129350942Y-103247399D01*
X129235978Y-103075342D01*
X129089656Y-102929020D01*
X129012615Y-102877543D01*
X128917598Y-102814055D01*
X128726419Y-102734866D01*
X128523468Y-102694497D01*
X128523466Y-102694497D01*
X128316536Y-102694497D01*
X128316533Y-102694497D01*
X128113582Y-102734866D01*
X127922403Y-102814055D01*
X127750349Y-102929017D01*
X127604021Y-103075345D01*
X127489059Y-103247399D01*
X127409870Y-103438578D01*
X127369501Y-103641529D01*
X126930499Y-103641529D01*
X126902261Y-103499564D01*
X126890131Y-103438580D01*
X126810942Y-103247402D01*
X126695978Y-103075345D01*
X126549656Y-102929023D01*
X126549652Y-102929020D01*
X126377598Y-102814058D01*
X126186419Y-102734869D01*
X125983468Y-102694500D01*
X125983466Y-102694500D01*
X125776536Y-102694500D01*
X125776533Y-102694500D01*
X125573582Y-102734869D01*
X125382403Y-102814058D01*
X125210349Y-102929020D01*
X125064021Y-103075348D01*
X124949059Y-103247402D01*
X124869870Y-103438581D01*
X124829501Y-103641532D01*
X124390499Y-103641532D01*
X124350130Y-103438580D01*
X124270941Y-103247402D01*
X124155977Y-103075345D01*
X124009655Y-102929023D01*
X124009651Y-102929020D01*
X123837597Y-102814058D01*
X123646418Y-102734869D01*
X123443467Y-102694500D01*
X123443465Y-102694500D01*
X123236535Y-102694500D01*
X123236532Y-102694500D01*
X123033581Y-102734869D01*
X122842402Y-102814058D01*
X122670348Y-102929020D01*
X122524020Y-103075348D01*
X122409058Y-103247402D01*
X122329869Y-103438581D01*
X122289500Y-103641532D01*
X121849999Y-103641532D01*
X121849999Y-103090796D01*
X121847149Y-103060399D01*
X121847149Y-103060397D01*
X121802345Y-102932352D01*
X121721792Y-102823209D01*
X121721790Y-102823207D01*
X121612647Y-102742654D01*
X121484601Y-102697850D01*
X121454211Y-102695000D01*
X120900001Y-102695000D01*
X120900000Y-102695001D01*
X120700000Y-102695001D01*
X120699999Y-102695000D01*
X120145796Y-102695000D01*
X120115399Y-102697850D01*
X120115397Y-102697850D01*
X119987352Y-102742654D01*
X119878209Y-102823207D01*
X119878207Y-102823209D01*
X119797654Y-102932352D01*
X119752850Y-103060398D01*
X119750000Y-103090788D01*
X119086296Y-103090788D01*
X119075977Y-103075345D01*
X118929655Y-102929023D01*
X118929651Y-102929020D01*
X118757597Y-102814058D01*
X118566418Y-102734869D01*
X118363467Y-102694500D01*
X118363465Y-102694500D01*
X118156535Y-102694500D01*
X118156532Y-102694500D01*
X117953581Y-102734869D01*
X117762402Y-102814058D01*
X117590348Y-102929020D01*
X117444020Y-103075348D01*
X117329058Y-103247402D01*
X117249869Y-103438581D01*
X117209500Y-103641532D01*
X116770501Y-103641532D01*
X116730132Y-103438580D01*
X116650943Y-103247402D01*
X116535979Y-103075345D01*
X116389657Y-102929023D01*
X116389653Y-102929020D01*
X116217599Y-102814058D01*
X116026420Y-102734869D01*
X115823469Y-102694500D01*
X115823467Y-102694500D01*
X115616537Y-102694500D01*
X115616534Y-102694500D01*
X115413583Y-102734869D01*
X115222404Y-102814058D01*
X115050350Y-102929020D01*
X114904022Y-103075348D01*
X114789060Y-103247402D01*
X114709871Y-103438581D01*
X114669502Y-103641532D01*
X114230499Y-103641532D01*
X114190130Y-103438580D01*
X114110941Y-103247402D01*
X113995977Y-103075345D01*
X113849655Y-102929023D01*
X113849651Y-102929020D01*
X113677597Y-102814058D01*
X113486418Y-102734869D01*
X113283467Y-102694500D01*
X113283465Y-102694500D01*
X113076535Y-102694500D01*
X113076532Y-102694500D01*
X112873581Y-102734869D01*
X112682402Y-102814058D01*
X112510348Y-102929020D01*
X112364020Y-103075348D01*
X112249058Y-103247402D01*
X112169869Y-103438581D01*
X112129500Y-103641532D01*
X111690499Y-103641532D01*
X111650130Y-103438580D01*
X111570941Y-103247402D01*
X111455977Y-103075345D01*
X111309655Y-102929023D01*
X111309651Y-102929020D01*
X111137597Y-102814058D01*
X110946418Y-102734869D01*
X110743467Y-102694500D01*
X110743465Y-102694500D01*
X110536535Y-102694500D01*
X110536532Y-102694500D01*
X110333581Y-102734869D01*
X110142402Y-102814058D01*
X109970348Y-102929020D01*
X109824020Y-103075348D01*
X109709058Y-103247402D01*
X109629869Y-103438581D01*
X109589500Y-103641532D01*
X109149999Y-103641532D01*
X109149999Y-103090795D01*
X109147149Y-103060398D01*
X109147149Y-103060396D01*
X109102345Y-102932351D01*
X109021792Y-102823208D01*
X109021790Y-102823206D01*
X108912647Y-102742653D01*
X108784601Y-102697849D01*
X108754211Y-102694999D01*
X108200001Y-102694999D01*
X108200000Y-102695000D01*
X108000000Y-102695000D01*
X107999999Y-102694999D01*
X107445796Y-102694999D01*
X107415399Y-102697849D01*
X107415397Y-102697849D01*
X107287352Y-102742653D01*
X107178209Y-102823206D01*
X107178207Y-102823208D01*
X107097654Y-102932351D01*
X107052850Y-103060397D01*
X107050000Y-103090787D01*
X106386295Y-103090787D01*
X106375977Y-103075345D01*
X106229655Y-102929023D01*
X106229651Y-102929020D01*
X106057597Y-102814058D01*
X105866418Y-102734869D01*
X105663467Y-102694500D01*
X105663465Y-102694500D01*
X105456535Y-102694500D01*
X105456532Y-102694500D01*
X105253581Y-102734869D01*
X105062402Y-102814058D01*
X104890348Y-102929020D01*
X104744020Y-103075348D01*
X104629058Y-103247402D01*
X104549869Y-103438581D01*
X104509500Y-103641532D01*
X104070499Y-103641532D01*
X104030130Y-103438580D01*
X103950941Y-103247402D01*
X103835977Y-103075345D01*
X103689655Y-102929023D01*
X103689651Y-102929020D01*
X103517597Y-102814058D01*
X103326418Y-102734869D01*
X103123467Y-102694500D01*
X103123465Y-102694500D01*
X102916535Y-102694500D01*
X102916532Y-102694500D01*
X102713581Y-102734869D01*
X102522402Y-102814058D01*
X102350348Y-102929020D01*
X102204020Y-103075348D01*
X102089058Y-103247402D01*
X102009869Y-103438581D01*
X101969500Y-103641532D01*
X101530502Y-103641532D01*
X101490133Y-103438580D01*
X101410944Y-103247402D01*
X101295980Y-103075345D01*
X101149658Y-102929023D01*
X101149654Y-102929020D01*
X100977600Y-102814058D01*
X100786421Y-102734869D01*
X100583470Y-102694500D01*
X100583468Y-102694500D01*
X100376538Y-102694500D01*
X100376535Y-102694500D01*
X100173584Y-102734869D01*
X99982405Y-102814058D01*
X99810351Y-102929020D01*
X99664023Y-103075348D01*
X99549061Y-103247402D01*
X99469872Y-103438581D01*
X99429503Y-103641532D01*
X98990499Y-103641532D01*
X98950130Y-103438580D01*
X98870941Y-103247402D01*
X98755977Y-103075345D01*
X98609655Y-102929023D01*
X98609651Y-102929020D01*
X98437597Y-102814058D01*
X98246418Y-102734869D01*
X98043467Y-102694500D01*
X98043465Y-102694500D01*
X97836535Y-102694500D01*
X97836532Y-102694500D01*
X97633581Y-102734869D01*
X97442402Y-102814058D01*
X97270348Y-102929020D01*
X97124020Y-103075348D01*
X97009058Y-103247402D01*
X96929869Y-103438581D01*
X96889500Y-103641532D01*
X96449999Y-103641532D01*
X96449999Y-103090796D01*
X96447149Y-103060399D01*
X96447149Y-103060397D01*
X96402345Y-102932352D01*
X96321792Y-102823209D01*
X96321790Y-102823207D01*
X96212647Y-102742654D01*
X96084601Y-102697850D01*
X96054211Y-102695000D01*
X95500001Y-102695000D01*
X95500000Y-102695001D01*
X95300000Y-102695001D01*
X95299999Y-102695000D01*
X94745796Y-102695000D01*
X94715399Y-102697850D01*
X94715397Y-102697850D01*
X94587352Y-102742654D01*
X94478209Y-102823207D01*
X94478207Y-102823209D01*
X94397654Y-102932352D01*
X94352850Y-103060398D01*
X94350000Y-103090788D01*
X93686294Y-103090788D01*
X93675975Y-103075344D01*
X93529653Y-102929022D01*
X93452609Y-102877543D01*
X93357595Y-102814057D01*
X93166416Y-102734868D01*
X92963465Y-102694499D01*
X92963463Y-102694499D01*
X92756533Y-102694499D01*
X92756530Y-102694499D01*
X92553579Y-102734868D01*
X92362400Y-102814057D01*
X92190346Y-102929019D01*
X92044018Y-103075347D01*
X91929056Y-103247401D01*
X91849867Y-103438580D01*
X91809498Y-103641531D01*
X91809498Y-106348466D01*
X91849867Y-106551417D01*
X91929056Y-106742596D01*
X92033702Y-106899211D01*
X92044021Y-106914654D01*
X92190343Y-107060976D01*
X92362400Y-107175940D01*
X92498383Y-107232266D01*
X92518827Y-107249726D01*
X92540591Y-107265539D01*
X92541839Y-107269380D01*
X92544909Y-107272002D01*
X92559498Y-107323730D01*
X92559498Y-107374523D01*
X92540591Y-107432714D01*
X92530502Y-107444527D01*
X92304525Y-107670504D01*
X92250008Y-107698281D01*
X92234521Y-107699500D01*
X89365479Y-107699500D01*
X89307288Y-107680593D01*
X89295475Y-107670504D01*
X88289475Y-106664504D01*
X88261698Y-106609987D01*
X88271269Y-106549555D01*
X88314534Y-106506290D01*
X88359479Y-106495500D01*
X89220558Y-106495500D01*
X89278749Y-106514407D01*
X89312020Y-106556612D01*
X89337123Y-106617213D01*
X89389058Y-106742597D01*
X89504020Y-106914651D01*
X89504023Y-106914655D01*
X89650345Y-107060977D01*
X89822402Y-107175941D01*
X90013580Y-107255130D01*
X90216535Y-107295500D01*
X90216536Y-107295500D01*
X90423464Y-107295500D01*
X90423465Y-107295500D01*
X90626420Y-107255130D01*
X90817598Y-107175941D01*
X90989655Y-107060977D01*
X91135977Y-106914655D01*
X91250941Y-106742598D01*
X91330130Y-106551420D01*
X91370500Y-106348465D01*
X91370500Y-103641535D01*
X91330130Y-103438580D01*
X91250941Y-103247402D01*
X91135977Y-103075345D01*
X90989655Y-102929023D01*
X90989651Y-102929020D01*
X90817597Y-102814058D01*
X90626418Y-102734869D01*
X90423467Y-102694500D01*
X90423465Y-102694500D01*
X90216535Y-102694500D01*
X90216532Y-102694500D01*
X90013581Y-102734869D01*
X89822402Y-102814058D01*
X89650348Y-102929020D01*
X89504020Y-103075348D01*
X89389058Y-103247402D01*
X89309869Y-103438581D01*
X89269500Y-103641532D01*
X89269500Y-105795500D01*
X89250593Y-105853691D01*
X89201093Y-105889655D01*
X89170500Y-105894500D01*
X88126165Y-105894500D01*
X88067974Y-105875593D01*
X88056161Y-105865504D01*
X86775425Y-104584768D01*
X85450197Y-103259540D01*
X85450194Y-103259538D01*
X85429173Y-103247401D01*
X85429173Y-103247402D01*
X85381675Y-103219979D01*
X85381674Y-103219978D01*
X85381673Y-103219978D01*
X85305250Y-103199500D01*
X85305248Y-103199500D01*
X61906823Y-103199500D01*
X61827699Y-103199500D01*
X61780922Y-103212033D01*
X61751268Y-103219979D01*
X61682754Y-103259536D01*
X61682749Y-103259540D01*
X61470502Y-103471787D01*
X61415986Y-103499564D01*
X61400499Y-103500783D01*
X61351203Y-103500783D01*
X61226911Y-103537278D01*
X61226904Y-103537281D01*
X61117930Y-103607314D01*
X61033095Y-103705221D01*
X60979280Y-103823057D01*
X60960845Y-103951280D01*
X60436251Y-103951280D01*
X59610546Y-103125575D01*
X59582769Y-103071058D01*
X59582558Y-103041482D01*
X59585647Y-103020000D01*
X59585646Y-103019996D01*
X59565165Y-102877543D01*
X59543026Y-102829066D01*
X59505377Y-102746627D01*
X59411128Y-102637857D01*
X59411127Y-102637856D01*
X59411126Y-102637855D01*
X59290057Y-102560049D01*
X59290054Y-102560047D01*
X59290053Y-102560047D01*
X59290050Y-102560046D01*
X59151964Y-102519500D01*
X59151961Y-102519500D01*
X59008039Y-102519500D01*
X59008035Y-102519500D01*
X58869949Y-102560046D01*
X58869942Y-102560049D01*
X58748873Y-102637855D01*
X58654622Y-102746628D01*
X58594834Y-102877543D01*
X58574353Y-103019997D01*
X43115583Y-103019997D01*
X43115583Y-103019993D01*
X43095301Y-102814070D01*
X43095300Y-102814065D01*
X43071276Y-102734868D01*
X43035232Y-102616046D01*
X42937685Y-102433550D01*
X42921825Y-102414225D01*
X42806414Y-102273595D01*
X42806410Y-102273590D01*
X42742212Y-102220904D01*
X42646452Y-102142316D01*
X42463954Y-102044768D01*
X42265934Y-101984699D01*
X42265929Y-101984698D01*
X42060003Y-101964417D01*
X42059997Y-101964417D01*
X41854070Y-101984698D01*
X41854065Y-101984699D01*
X41656045Y-102044768D01*
X41473547Y-102142316D01*
X41313595Y-102273585D01*
X41313585Y-102273595D01*
X41182316Y-102433547D01*
X41084768Y-102616045D01*
X41024699Y-102814065D01*
X41024698Y-102814070D01*
X41004417Y-103019996D01*
X40570500Y-103019996D01*
X40570500Y-102150252D01*
X40568921Y-102142316D01*
X40561851Y-102106772D01*
X40558867Y-102091769D01*
X40514552Y-102025448D01*
X40514548Y-102025445D01*
X40448233Y-101981134D01*
X40448231Y-101981133D01*
X40448228Y-101981132D01*
X40448227Y-101981132D01*
X40389758Y-101969501D01*
X40389748Y-101969500D01*
X38650252Y-101969500D01*
X38650251Y-101969500D01*
X38650241Y-101969501D01*
X38591772Y-101981132D01*
X38591766Y-101981134D01*
X38525451Y-102025445D01*
X38525445Y-102025451D01*
X38481134Y-102091766D01*
X38481132Y-102091772D01*
X38469501Y-102150241D01*
X38469500Y-102150253D01*
X27388238Y-102150253D01*
X27218954Y-102059768D01*
X27020934Y-101999699D01*
X27020929Y-101999698D01*
X26815003Y-101979417D01*
X26814997Y-101979417D01*
X26609070Y-101999698D01*
X26609065Y-101999699D01*
X26411045Y-102059768D01*
X26228547Y-102157316D01*
X26068595Y-102288585D01*
X26068585Y-102288595D01*
X25937316Y-102448547D01*
X25839768Y-102631045D01*
X25779699Y-102829065D01*
X25779698Y-102829070D01*
X25759417Y-103034996D01*
X25325500Y-103034996D01*
X25325500Y-102165252D01*
X25323921Y-102157316D01*
X25322711Y-102151231D01*
X25313867Y-102106769D01*
X25269552Y-102040448D01*
X25247108Y-102025451D01*
X25203233Y-101996134D01*
X25203231Y-101996133D01*
X25203228Y-101996132D01*
X25203227Y-101996132D01*
X25144758Y-101984501D01*
X25144748Y-101984500D01*
X23405252Y-101984500D01*
X23405251Y-101984500D01*
X23405241Y-101984501D01*
X23346772Y-101996132D01*
X23346766Y-101996134D01*
X23280451Y-102040445D01*
X23280445Y-102040451D01*
X23236134Y-102106766D01*
X23236132Y-102106772D01*
X23224501Y-102165241D01*
X23224500Y-102165253D01*
X500500Y-102165253D01*
X500500Y-100479996D01*
X6704417Y-100479996D01*
X6704417Y-100480003D01*
X6724698Y-100685929D01*
X6724699Y-100685934D01*
X6784768Y-100883954D01*
X6882316Y-101066452D01*
X7013585Y-101226404D01*
X7013590Y-101226410D01*
X7013595Y-101226414D01*
X7173547Y-101357683D01*
X7173548Y-101357683D01*
X7173550Y-101357685D01*
X7356046Y-101455232D01*
X7493997Y-101497078D01*
X7554065Y-101515300D01*
X7554070Y-101515301D01*
X7759997Y-101535583D01*
X7760000Y-101535583D01*
X7760003Y-101535583D01*
X7965929Y-101515301D01*
X7965934Y-101515300D01*
X8163954Y-101455232D01*
X8346450Y-101357685D01*
X8506410Y-101226410D01*
X8637685Y-101066450D01*
X8735232Y-100883954D01*
X8795300Y-100685934D01*
X8795301Y-100685929D01*
X8815583Y-100480003D01*
X8815583Y-100479996D01*
X16864417Y-100479996D01*
X16864417Y-100480003D01*
X16884698Y-100685929D01*
X16884699Y-100685934D01*
X16944768Y-100883954D01*
X17042316Y-101066452D01*
X17173585Y-101226404D01*
X17173590Y-101226410D01*
X17173595Y-101226414D01*
X17333547Y-101357683D01*
X17333548Y-101357683D01*
X17333550Y-101357685D01*
X17516046Y-101455232D01*
X17653997Y-101497078D01*
X17714065Y-101515300D01*
X17714070Y-101515301D01*
X17919997Y-101535583D01*
X17920000Y-101535583D01*
X17920003Y-101535583D01*
X18125929Y-101515301D01*
X18125934Y-101515300D01*
X18323954Y-101455232D01*
X18506450Y-101357685D01*
X18666410Y-101226410D01*
X18797685Y-101066450D01*
X18895232Y-100883954D01*
X18955300Y-100685934D01*
X18955301Y-100685929D01*
X18975583Y-100480003D01*
X18975583Y-100479996D01*
X18955301Y-100274070D01*
X18955300Y-100274065D01*
X18937078Y-100213997D01*
X18895232Y-100076046D01*
X18797685Y-99893550D01*
X18666410Y-99733590D01*
X18666404Y-99733585D01*
X18506452Y-99602316D01*
X18323954Y-99504768D01*
X18125934Y-99444699D01*
X18125929Y-99444698D01*
X17920003Y-99424417D01*
X17919997Y-99424417D01*
X17714070Y-99444698D01*
X17714065Y-99444699D01*
X17516045Y-99504768D01*
X17333547Y-99602316D01*
X17173595Y-99733585D01*
X17173585Y-99733595D01*
X17042316Y-99893547D01*
X16944768Y-100076045D01*
X16884699Y-100274065D01*
X16884698Y-100274070D01*
X16864417Y-100479996D01*
X8815583Y-100479996D01*
X8795301Y-100274070D01*
X8795300Y-100274065D01*
X8777078Y-100213997D01*
X8735232Y-100076046D01*
X8637685Y-99893550D01*
X8506410Y-99733590D01*
X8506404Y-99733585D01*
X8346452Y-99602316D01*
X8163954Y-99504768D01*
X7965934Y-99444699D01*
X7965929Y-99444698D01*
X7760003Y-99424417D01*
X7759997Y-99424417D01*
X7554070Y-99444698D01*
X7554065Y-99444699D01*
X7356045Y-99504768D01*
X7173547Y-99602316D01*
X7013595Y-99733585D01*
X7013585Y-99733595D01*
X6882316Y-99893547D01*
X6784768Y-100076045D01*
X6724699Y-100274065D01*
X6724698Y-100274070D01*
X6704417Y-100479996D01*
X500500Y-100479996D01*
X500500Y-70406699D01*
X66456400Y-70406699D01*
X66456400Y-71189999D01*
X66456401Y-71190000D01*
X67020874Y-71190000D01*
X67012000Y-71223120D01*
X67012000Y-71356880D01*
X67020874Y-71390000D01*
X66456401Y-71390000D01*
X66456400Y-71390001D01*
X66456400Y-72173300D01*
X66468003Y-72231636D01*
X66512206Y-72297789D01*
X66512210Y-72297793D01*
X66578363Y-72341996D01*
X66636699Y-72353599D01*
X66636703Y-72353600D01*
X67419999Y-72353600D01*
X67420000Y-72353599D01*
X67420000Y-71789125D01*
X67453120Y-71798000D01*
X67586880Y-71798000D01*
X67620000Y-71789125D01*
X67620000Y-72353599D01*
X67620001Y-72353600D01*
X68403297Y-72353600D01*
X68403300Y-72353599D01*
X68461636Y-72341996D01*
X68527789Y-72297793D01*
X68527793Y-72297789D01*
X68571996Y-72231636D01*
X68583599Y-72173300D01*
X68583600Y-72173297D01*
X68583600Y-71390001D01*
X68583599Y-71390000D01*
X68019126Y-71390000D01*
X68028000Y-71356880D01*
X68028000Y-71289996D01*
X68990751Y-71289996D01*
X68990751Y-71290003D01*
X69011294Y-71498594D01*
X69011295Y-71498597D01*
X69011296Y-71498600D01*
X69071329Y-71696502D01*
X69072144Y-71699187D01*
X69072145Y-71699189D01*
X69170944Y-71884031D01*
X69170950Y-71884040D01*
X69170952Y-71884043D01*
X69226402Y-71951609D01*
X69303922Y-72046068D01*
X69303931Y-72046077D01*
X69379497Y-72108092D01*
X69465957Y-72179048D01*
X69465961Y-72179050D01*
X69465968Y-72179055D01*
X69650810Y-72277854D01*
X69650816Y-72277857D01*
X69851400Y-72338704D01*
X69851402Y-72338704D01*
X69851405Y-72338705D01*
X70059997Y-72359249D01*
X70060000Y-72359249D01*
X70060003Y-72359249D01*
X70268594Y-72338705D01*
X70268595Y-72338704D01*
X70268600Y-72338704D01*
X70469184Y-72277857D01*
X70555658Y-72231636D01*
X70654031Y-72179055D01*
X70654034Y-72179052D01*
X70654043Y-72179048D01*
X70816073Y-72046073D01*
X70949048Y-71884043D01*
X70949052Y-71884034D01*
X70949055Y-71884031D01*
X71047854Y-71699189D01*
X71047855Y-71699187D01*
X71047857Y-71699184D01*
X71108704Y-71498600D01*
X71129249Y-71290000D01*
X71129249Y-71289996D01*
X71530751Y-71289996D01*
X71530751Y-71290003D01*
X71551294Y-71498594D01*
X71551295Y-71498597D01*
X71551296Y-71498600D01*
X71611329Y-71696502D01*
X71612144Y-71699187D01*
X71612145Y-71699189D01*
X71710944Y-71884031D01*
X71710950Y-71884040D01*
X71710952Y-71884043D01*
X71766402Y-71951609D01*
X71843922Y-72046068D01*
X71843931Y-72046077D01*
X71919497Y-72108092D01*
X72005957Y-72179048D01*
X72005961Y-72179050D01*
X72005968Y-72179055D01*
X72190810Y-72277854D01*
X72190816Y-72277857D01*
X72391400Y-72338704D01*
X72391402Y-72338704D01*
X72391405Y-72338705D01*
X72599997Y-72359249D01*
X72600000Y-72359249D01*
X72600003Y-72359249D01*
X72808594Y-72338705D01*
X72808595Y-72338704D01*
X72808600Y-72338704D01*
X73009184Y-72277857D01*
X73095658Y-72231636D01*
X73194031Y-72179055D01*
X73194034Y-72179052D01*
X73194043Y-72179048D01*
X73356073Y-72046073D01*
X73489048Y-71884043D01*
X73489052Y-71884034D01*
X73489055Y-71884031D01*
X73587854Y-71699189D01*
X73587855Y-71699187D01*
X73587857Y-71699184D01*
X73648704Y-71498600D01*
X73669249Y-71290000D01*
X73649937Y-71093919D01*
X73648705Y-71081405D01*
X73648704Y-71081402D01*
X73648704Y-71081400D01*
X73587857Y-70880816D01*
X73587854Y-70880810D01*
X73489055Y-70695968D01*
X73489050Y-70695961D01*
X73489048Y-70695957D01*
X73418092Y-70609497D01*
X73356077Y-70533931D01*
X73356068Y-70533922D01*
X73201049Y-70406702D01*
X73194043Y-70400952D01*
X73194040Y-70400950D01*
X73194031Y-70400944D01*
X73009189Y-70302145D01*
X73009187Y-70302144D01*
X72808597Y-70241295D01*
X72808594Y-70241294D01*
X72600003Y-70220751D01*
X72599997Y-70220751D01*
X72391405Y-70241294D01*
X72391402Y-70241295D01*
X72190812Y-70302144D01*
X72190810Y-70302145D01*
X72005968Y-70400944D01*
X72005958Y-70400951D01*
X71843931Y-70533922D01*
X71843922Y-70533931D01*
X71710951Y-70695958D01*
X71710944Y-70695968D01*
X71612145Y-70880810D01*
X71612144Y-70880812D01*
X71551295Y-71081402D01*
X71551294Y-71081405D01*
X71530751Y-71289996D01*
X71129249Y-71289996D01*
X71109937Y-71093919D01*
X71108705Y-71081405D01*
X71108704Y-71081402D01*
X71108704Y-71081400D01*
X71047857Y-70880816D01*
X71047854Y-70880810D01*
X70949055Y-70695968D01*
X70949050Y-70695961D01*
X70949048Y-70695957D01*
X70878092Y-70609497D01*
X70816077Y-70533931D01*
X70816068Y-70533922D01*
X70661049Y-70406702D01*
X70654043Y-70400952D01*
X70654040Y-70400950D01*
X70654031Y-70400944D01*
X70469189Y-70302145D01*
X70469187Y-70302144D01*
X70268597Y-70241295D01*
X70268594Y-70241294D01*
X70060003Y-70220751D01*
X70059997Y-70220751D01*
X69851405Y-70241294D01*
X69851402Y-70241295D01*
X69650812Y-70302144D01*
X69650810Y-70302145D01*
X69465968Y-70400944D01*
X69465958Y-70400951D01*
X69303931Y-70533922D01*
X69303922Y-70533931D01*
X69170951Y-70695958D01*
X69170944Y-70695968D01*
X69072145Y-70880810D01*
X69072144Y-70880812D01*
X69011295Y-71081402D01*
X69011294Y-71081405D01*
X68990751Y-71289996D01*
X68028000Y-71289996D01*
X68028000Y-71223120D01*
X68019126Y-71190000D01*
X68583599Y-71190000D01*
X68583600Y-71189999D01*
X68583600Y-70406702D01*
X68583599Y-70406699D01*
X68571996Y-70348363D01*
X68527793Y-70282210D01*
X68527789Y-70282206D01*
X68461636Y-70238003D01*
X68403300Y-70226400D01*
X67620001Y-70226400D01*
X67620000Y-70226401D01*
X67620000Y-70790874D01*
X67586880Y-70782000D01*
X67453120Y-70782000D01*
X67420000Y-70790874D01*
X67420000Y-70226401D01*
X67419999Y-70226400D01*
X66636699Y-70226400D01*
X66578363Y-70238003D01*
X66512210Y-70282206D01*
X66512206Y-70282210D01*
X66468003Y-70348363D01*
X66456400Y-70406699D01*
X500500Y-70406699D01*
X500500Y-68749996D01*
X66450751Y-68749996D01*
X66450751Y-68750003D01*
X66471294Y-68958594D01*
X66471295Y-68958597D01*
X66532144Y-69159187D01*
X66532145Y-69159189D01*
X66630944Y-69344031D01*
X66630950Y-69344040D01*
X66630952Y-69344043D01*
X66686402Y-69411609D01*
X66763922Y-69506068D01*
X66763931Y-69506077D01*
X66839497Y-69568092D01*
X66925957Y-69639048D01*
X66925961Y-69639050D01*
X66925968Y-69639055D01*
X67110810Y-69737854D01*
X67110816Y-69737857D01*
X67311400Y-69798704D01*
X67311402Y-69798704D01*
X67311405Y-69798705D01*
X67519997Y-69819249D01*
X67520000Y-69819249D01*
X67520003Y-69819249D01*
X67728594Y-69798705D01*
X67728595Y-69798704D01*
X67728600Y-69798704D01*
X67929184Y-69737857D01*
X67995459Y-69702432D01*
X68114031Y-69639055D01*
X68114034Y-69639052D01*
X68114043Y-69639048D01*
X68276073Y-69506073D01*
X68409048Y-69344043D01*
X68409052Y-69344034D01*
X68409055Y-69344031D01*
X68507854Y-69159189D01*
X68507855Y-69159187D01*
X68507857Y-69159184D01*
X68568704Y-68958600D01*
X68589249Y-68750000D01*
X68589249Y-68749996D01*
X68990751Y-68749996D01*
X68990751Y-68750003D01*
X69011294Y-68958594D01*
X69011295Y-68958597D01*
X69072144Y-69159187D01*
X69072145Y-69159189D01*
X69170944Y-69344031D01*
X69170950Y-69344040D01*
X69170952Y-69344043D01*
X69226402Y-69411609D01*
X69303922Y-69506068D01*
X69303931Y-69506077D01*
X69379497Y-69568092D01*
X69465957Y-69639048D01*
X69465961Y-69639050D01*
X69465968Y-69639055D01*
X69650810Y-69737854D01*
X69650816Y-69737857D01*
X69851400Y-69798704D01*
X69851402Y-69798704D01*
X69851405Y-69798705D01*
X70059997Y-69819249D01*
X70060000Y-69819249D01*
X70060003Y-69819249D01*
X70268594Y-69798705D01*
X70268595Y-69798704D01*
X70268600Y-69798704D01*
X70469184Y-69737857D01*
X70535459Y-69702432D01*
X70654031Y-69639055D01*
X70654034Y-69639052D01*
X70654043Y-69639048D01*
X70816073Y-69506073D01*
X70949048Y-69344043D01*
X70949052Y-69344034D01*
X70949055Y-69344031D01*
X71047854Y-69159189D01*
X71047855Y-69159187D01*
X71047857Y-69159184D01*
X71108704Y-68958600D01*
X71129249Y-68750000D01*
X71129249Y-68749996D01*
X71530751Y-68749996D01*
X71530751Y-68750003D01*
X71551294Y-68958594D01*
X71551295Y-68958597D01*
X71612144Y-69159187D01*
X71612145Y-69159189D01*
X71710944Y-69344031D01*
X71710950Y-69344040D01*
X71710952Y-69344043D01*
X71766402Y-69411609D01*
X71843922Y-69506068D01*
X71843931Y-69506077D01*
X71919497Y-69568092D01*
X72005957Y-69639048D01*
X72005961Y-69639050D01*
X72005968Y-69639055D01*
X72190810Y-69737854D01*
X72190816Y-69737857D01*
X72391400Y-69798704D01*
X72391402Y-69798704D01*
X72391405Y-69798705D01*
X72599997Y-69819249D01*
X72600000Y-69819249D01*
X72600003Y-69819249D01*
X72808594Y-69798705D01*
X72808595Y-69798704D01*
X72808600Y-69798704D01*
X73009184Y-69737857D01*
X73075459Y-69702432D01*
X73194031Y-69639055D01*
X73194034Y-69639052D01*
X73194043Y-69639048D01*
X73356073Y-69506073D01*
X73489048Y-69344043D01*
X73489052Y-69344034D01*
X73489055Y-69344031D01*
X73587854Y-69159189D01*
X73587855Y-69159187D01*
X73587857Y-69159184D01*
X73648704Y-68958600D01*
X73669249Y-68750000D01*
X73669249Y-68749996D01*
X73648705Y-68541405D01*
X73648704Y-68541402D01*
X73648704Y-68541400D01*
X73587857Y-68340816D01*
X73587854Y-68340810D01*
X73489055Y-68155968D01*
X73489050Y-68155961D01*
X73489048Y-68155957D01*
X73418092Y-68069497D01*
X73356077Y-67993931D01*
X73356068Y-67993922D01*
X73261609Y-67916402D01*
X73194043Y-67860952D01*
X73194040Y-67860950D01*
X73194031Y-67860944D01*
X73009189Y-67762145D01*
X73009187Y-67762144D01*
X72808597Y-67701295D01*
X72808594Y-67701294D01*
X72600003Y-67680751D01*
X72599997Y-67680751D01*
X72391405Y-67701294D01*
X72391402Y-67701295D01*
X72190812Y-67762144D01*
X72190810Y-67762145D01*
X72005968Y-67860944D01*
X72005958Y-67860951D01*
X71843931Y-67993922D01*
X71843922Y-67993931D01*
X71710951Y-68155958D01*
X71710944Y-68155968D01*
X71612145Y-68340810D01*
X71612144Y-68340812D01*
X71551295Y-68541402D01*
X71551294Y-68541405D01*
X71530751Y-68749996D01*
X71129249Y-68749996D01*
X71108705Y-68541405D01*
X71108704Y-68541402D01*
X71108704Y-68541400D01*
X71047857Y-68340816D01*
X71047854Y-68340810D01*
X70949055Y-68155968D01*
X70949050Y-68155961D01*
X70949048Y-68155957D01*
X70878092Y-68069497D01*
X70816077Y-67993931D01*
X70816068Y-67993922D01*
X70721609Y-67916402D01*
X70654043Y-67860952D01*
X70654040Y-67860950D01*
X70654031Y-67860944D01*
X70469189Y-67762145D01*
X70469187Y-67762144D01*
X70268597Y-67701295D01*
X70268594Y-67701294D01*
X70060003Y-67680751D01*
X70059997Y-67680751D01*
X69851405Y-67701294D01*
X69851402Y-67701295D01*
X69650812Y-67762144D01*
X69650810Y-67762145D01*
X69465968Y-67860944D01*
X69465958Y-67860951D01*
X69303931Y-67993922D01*
X69303922Y-67993931D01*
X69170951Y-68155958D01*
X69170944Y-68155968D01*
X69072145Y-68340810D01*
X69072144Y-68340812D01*
X69011295Y-68541402D01*
X69011294Y-68541405D01*
X68990751Y-68749996D01*
X68589249Y-68749996D01*
X68568705Y-68541405D01*
X68568704Y-68541402D01*
X68568704Y-68541400D01*
X68507857Y-68340816D01*
X68507854Y-68340810D01*
X68409055Y-68155968D01*
X68409050Y-68155961D01*
X68409048Y-68155957D01*
X68338092Y-68069497D01*
X68276077Y-67993931D01*
X68276068Y-67993922D01*
X68181609Y-67916402D01*
X68114043Y-67860952D01*
X68114040Y-67860950D01*
X68114031Y-67860944D01*
X67929189Y-67762145D01*
X67929187Y-67762144D01*
X67728597Y-67701295D01*
X67728594Y-67701294D01*
X67520003Y-67680751D01*
X67519997Y-67680751D01*
X67311405Y-67701294D01*
X67311402Y-67701295D01*
X67110812Y-67762144D01*
X67110810Y-67762145D01*
X66925968Y-67860944D01*
X66925958Y-67860951D01*
X66763931Y-67993922D01*
X66763922Y-67993931D01*
X66630951Y-68155958D01*
X66630944Y-68155968D01*
X66532145Y-68340810D01*
X66532144Y-68340812D01*
X66471295Y-68541402D01*
X66471294Y-68541405D01*
X66450751Y-68749996D01*
X500500Y-68749996D01*
X500500Y-5002165D01*
X500547Y-5000000D01*
X2594754Y-5000000D01*
X2613720Y-5301462D01*
X2670317Y-5598151D01*
X2670319Y-5598160D01*
X2763659Y-5885430D01*
X2763661Y-5885436D01*
X2892267Y-6158736D01*
X2892274Y-6158749D01*
X3054114Y-6413767D01*
X3246645Y-6646497D01*
X3246655Y-6646508D01*
X3466837Y-6853274D01*
X3466840Y-6853276D01*
X3711192Y-7030807D01*
X3711196Y-7030809D01*
X3711205Y-7030816D01*
X3975896Y-7176332D01*
X4256738Y-7287525D01*
X4549302Y-7362642D01*
X4749082Y-7387880D01*
X4848972Y-7400500D01*
X4848973Y-7400500D01*
X5151028Y-7400500D01*
X5200972Y-7394190D01*
X5450698Y-7362642D01*
X5743262Y-7287525D01*
X6024104Y-7176332D01*
X6288795Y-7030816D01*
X6533162Y-6853274D01*
X6753349Y-6646504D01*
X6945885Y-6413768D01*
X7107733Y-6158736D01*
X7236341Y-5885430D01*
X7329681Y-5598160D01*
X7386280Y-5301457D01*
X7405246Y-5000000D01*
X132594754Y-5000000D01*
X132613720Y-5301462D01*
X132670317Y-5598151D01*
X132670319Y-5598160D01*
X132763659Y-5885430D01*
X132763661Y-5885436D01*
X132892267Y-6158736D01*
X132892274Y-6158749D01*
X133054114Y-6413767D01*
X133246645Y-6646497D01*
X133246655Y-6646508D01*
X133466837Y-6853274D01*
X133466840Y-6853276D01*
X133711192Y-7030807D01*
X133711196Y-7030809D01*
X133711205Y-7030816D01*
X133975896Y-7176332D01*
X134256738Y-7287525D01*
X134549302Y-7362642D01*
X134749082Y-7387880D01*
X134848972Y-7400500D01*
X134848973Y-7400500D01*
X135151028Y-7400500D01*
X135200972Y-7394190D01*
X135450698Y-7362642D01*
X135743262Y-7287525D01*
X136024104Y-7176332D01*
X136288795Y-7030816D01*
X136533162Y-6853274D01*
X136753349Y-6646504D01*
X136945885Y-6413768D01*
X137107733Y-6158736D01*
X137236341Y-5885430D01*
X137329681Y-5598160D01*
X137386280Y-5301457D01*
X137405246Y-5000000D01*
X137386280Y-4698543D01*
X137329681Y-4401840D01*
X137236341Y-4114570D01*
X137107733Y-3841264D01*
X137107729Y-3841259D01*
X137107725Y-3841250D01*
X136945885Y-3586232D01*
X136753354Y-3353502D01*
X136753344Y-3353491D01*
X136533162Y-3146725D01*
X136533159Y-3146723D01*
X136288807Y-2969192D01*
X136288800Y-2969187D01*
X136288795Y-2969184D01*
X136024104Y-2823668D01*
X136024102Y-2823667D01*
X136024100Y-2823666D01*
X135743262Y-2712475D01*
X135450698Y-2637358D01*
X135450691Y-2637357D01*
X135450695Y-2637357D01*
X135151028Y-2599500D01*
X135151027Y-2599500D01*
X134848973Y-2599500D01*
X134848972Y-2599500D01*
X134549306Y-2637357D01*
X134256737Y-2712475D01*
X133975899Y-2823666D01*
X133711213Y-2969179D01*
X133711192Y-2969192D01*
X133466840Y-3146723D01*
X133466837Y-3146725D01*
X133246655Y-3353491D01*
X133246645Y-3353502D01*
X133054114Y-3586232D01*
X132892274Y-3841250D01*
X132892267Y-3841263D01*
X132763661Y-4114563D01*
X132670320Y-4401838D01*
X132670317Y-4401848D01*
X132613720Y-4698537D01*
X132594754Y-5000000D01*
X7405246Y-5000000D01*
X7386280Y-4698543D01*
X7329681Y-4401840D01*
X7236341Y-4114570D01*
X7107733Y-3841264D01*
X7107729Y-3841259D01*
X7107725Y-3841250D01*
X6945885Y-3586232D01*
X6753354Y-3353502D01*
X6753344Y-3353491D01*
X6533162Y-3146725D01*
X6533159Y-3146723D01*
X6288807Y-2969192D01*
X6288800Y-2969187D01*
X6288795Y-2969184D01*
X6024104Y-2823668D01*
X6024102Y-2823667D01*
X6024100Y-2823666D01*
X5743262Y-2712475D01*
X5450698Y-2637358D01*
X5450691Y-2637357D01*
X5450695Y-2637357D01*
X5151028Y-2599500D01*
X5151027Y-2599500D01*
X4848973Y-2599500D01*
X4848972Y-2599500D01*
X4549306Y-2637357D01*
X4256737Y-2712475D01*
X3975899Y-2823666D01*
X3711213Y-2969179D01*
X3711192Y-2969192D01*
X3466840Y-3146723D01*
X3466837Y-3146725D01*
X3246655Y-3353491D01*
X3246645Y-3353502D01*
X3054114Y-3586232D01*
X2892274Y-3841250D01*
X2892267Y-3841263D01*
X2763661Y-4114563D01*
X2670320Y-4401838D01*
X2670317Y-4401848D01*
X2613720Y-4698537D01*
X2594754Y-5000000D01*
X500547Y-5000000D01*
X500594Y-4997853D01*
X500824Y-4992577D01*
X500824Y-4992571D01*
X503377Y-4934108D01*
X517434Y-4612144D01*
X518184Y-4603568D01*
X568295Y-4222942D01*
X569791Y-4214459D01*
X652883Y-3839655D01*
X655115Y-3831326D01*
X770553Y-3465202D01*
X773507Y-3457086D01*
X816413Y-3353502D01*
X920421Y-3102403D01*
X924056Y-3094609D01*
X1101325Y-2754079D01*
X1105632Y-2746618D01*
X1311913Y-2422820D01*
X1316851Y-2415769D01*
X1550564Y-2111189D01*
X1556083Y-2104612D01*
X1815481Y-1821528D01*
X1821528Y-1815481D01*
X2104612Y-1556083D01*
X2111189Y-1550564D01*
X2415769Y-1316851D01*
X2422820Y-1311913D01*
X2746618Y-1105632D01*
X2754079Y-1101325D01*
X3094609Y-924056D01*
X3102403Y-920421D01*
X3457093Y-773504D01*
X3465194Y-770555D01*
X3831334Y-655112D01*
X3839655Y-652883D01*
X4214459Y-569791D01*
X4222942Y-568295D01*
X4603568Y-518184D01*
X4612144Y-517434D01*
X4997847Y-500593D01*
X5002165Y-500500D01*
X5065892Y-500500D01*
X134934108Y-500500D01*
X134997835Y-500500D01*
X135002152Y-500593D01*
G37*
%TD.AperFunction*%
%TD*%
M02*
