%TF.GenerationSoftware,KiCad,Pcbnew,8.99.0-2433-g53022ab347*%
%TF.CreationDate,2024-09-29T19:38:35+02:00*%
%TF.ProjectId,SAO Dev Board,53414f20-4465-4762-9042-6f6172642e6b,1.0*%
%TF.SameCoordinates,PX1c9c380PY1c9c380*%
%TF.FileFunction,Copper,L2,Bot*%
%TF.FilePolarity,Positive*%
%FSLAX46Y46*%
G04 Gerber Fmt 4.6, Leading zero omitted, Abs format (unit mm)*
G04 Created by KiCad (PCBNEW 8.99.0-2433-g53022ab347) date 2024-09-29 19:38:35*
%MOMM*%
%LPD*%
G01*
G04 APERTURE LIST*
G04 Aperture macros list*
%AMRoundRect*
0 Rectangle with rounded corners*
0 $1 Rounding radius*
0 $2 $3 $4 $5 $6 $7 $8 $9 X,Y pos of 4 corners*
0 Add a 4 corners polygon primitive as box body*
4,1,4,$2,$3,$4,$5,$6,$7,$8,$9,$2,$3,0*
0 Add four circle primitives for the rounded corners*
1,1,$1+$1,$2,$3*
1,1,$1+$1,$4,$5*
1,1,$1+$1,$6,$7*
1,1,$1+$1,$8,$9*
0 Add four rect primitives between the rounded corners*
20,1,$1+$1,$2,$3,$4,$5,0*
20,1,$1+$1,$4,$5,$6,$7,0*
20,1,$1+$1,$6,$7,$8,$9,0*
20,1,$1+$1,$8,$9,$2,$3,0*%
G04 Aperture macros list end*
%TA.AperFunction,ComponentPad*%
%ADD10C,1.727200*%
%TD*%
%TA.AperFunction,ComponentPad*%
%ADD11O,1.727200X1.727200*%
%TD*%
%TA.AperFunction,ComponentPad*%
%ADD12R,1.727200X1.727200*%
%TD*%
%TA.AperFunction,ComponentPad*%
%ADD13O,1.700000X4.200000*%
%TD*%
%TA.AperFunction,ComponentPad*%
%ADD14RoundRect,0.250000X-0.600000X1.850000X-0.600000X-1.850000X0.600000X-1.850000X0.600000X1.850000X0*%
%TD*%
%TA.AperFunction,ComponentPad*%
%ADD15C,0.700000*%
%TD*%
%TA.AperFunction,ComponentPad*%
%ADD16C,4.400000*%
%TD*%
%TA.AperFunction,ComponentPad*%
%ADD17C,3.500000*%
%TD*%
%TA.AperFunction,WasherPad*%
%ADD18C,1.700000*%
%TD*%
%TA.AperFunction,ComponentPad*%
%ADD19O,1.700000X1.700000*%
%TD*%
%TA.AperFunction,ComponentPad*%
%ADD20R,1.700000X1.700000*%
%TD*%
%TA.AperFunction,ViaPad*%
%ADD21C,0.600000*%
%TD*%
%TA.AperFunction,ViaPad*%
%ADD22C,1.000000*%
%TD*%
%TA.AperFunction,ViaPad*%
%ADD23C,0.500000*%
%TD*%
%TA.AperFunction,Conductor*%
%ADD24C,0.200000*%
%TD*%
%TA.AperFunction,Conductor*%
%ADD25C,1.000000*%
%TD*%
G04 APERTURE END LIST*
D10*
%TO.P,X1,6,GPIO2*%
%TO.N,SAO_GPIO2*%
X72600000Y-71290000D03*
%TO.P,X1,5,GPIO1*%
%TO.N,SAO_GPIO1*%
X72600000Y-68750000D03*
D11*
%TO.P,X1,4,SCL*%
%TO.N,I2C0_SCL*%
X70060000Y-71290000D03*
%TO.P,X1,3,SDA*%
%TO.N,I2C0_SDA*%
X70060000Y-68750000D03*
D12*
%TO.P,X1,2,GND*%
%TO.N,GND*%
X67520000Y-71290000D03*
D11*
%TO.P,X1,1,VCC*%
%TO.N,SAO_VCC*%
X67520000Y-68750000D03*
%TD*%
D13*
%TO.P,J8,20,Pin_20*%
%TO.N,VBUS*%
X90319999Y-125174999D03*
%TO.P,J8,19,Pin_19*%
%TO.N,PICO_VIN*%
X92859997Y-125174998D03*
D14*
%TO.P,J8,18,Pin_18*%
%TO.N,GND*%
X95399999Y-125174999D03*
D13*
%TO.P,J8,17,Pin_17*%
%TO.N,/RPi Pico X/3V3_EN*%
X97939999Y-125174999D03*
%TO.P,J8,16,Pin_16*%
%TO.N,VCC*%
X100480002Y-125174999D03*
%TO.P,J8,15,Pin_15*%
%TO.N,/RPi Pico X/ADC_VREF*%
X103019999Y-125174999D03*
%TO.P,J8,14,Pin_14*%
%TO.N,/RPi Pico X/GP28_A2*%
X105559999Y-125174999D03*
D14*
%TO.P,J8,13,Pin_13*%
%TO.N,GNDA*%
X108099999Y-125174998D03*
D13*
%TO.P,J8,12,Pin_12*%
%TO.N,SAO_GPIO2*%
X110639999Y-125174999D03*
%TO.P,J8,11,Pin_11*%
%TO.N,SAO_GPIO1*%
X113179999Y-125174999D03*
%TO.P,J8,10,Pin_10*%
%TO.N,/RPi Pico X/RUN*%
X115720001Y-125174999D03*
%TO.P,J8,9,Pin_9*%
%TO.N,BTN_CENTER*%
X118259999Y-125174999D03*
D14*
%TO.P,J8,8,Pin_8*%
%TO.N,GND*%
X120799999Y-125174999D03*
D13*
%TO.P,J8,7,Pin_7*%
%TO.N,BTN_RIGHT*%
X123339999Y-125174999D03*
%TO.P,J8,6,Pin_6*%
%TO.N,BTN_LEFT*%
X125880000Y-125174999D03*
%TO.P,J8,5,Pin_5*%
%TO.N,BTN_DOWN*%
X128420000Y-125174996D03*
%TO.P,J8,4,Pin_4*%
%TO.N,BTN_UP*%
X130959999Y-125174999D03*
D14*
%TO.P,J8,3,Pin_3*%
%TO.N,GND*%
X133499999Y-125174999D03*
D13*
%TO.P,J8,2,Pin_2*%
%TO.N,LED_GREEN*%
X136039995Y-125174998D03*
%TO.P,J8,1,Pin_1*%
%TO.N,LED_RED*%
X138579999Y-125174999D03*
%TD*%
D15*
%TO.P,REF\u002A\u002A,1*%
%TO.N,N/C*%
X136650000Y-5000000D03*
X136166726Y-6166726D03*
X136166726Y-3833274D03*
X135000000Y-6650000D03*
D16*
X135000000Y-5000000D03*
D15*
X135000000Y-3350000D03*
X133833274Y-6166726D03*
X133833274Y-3833274D03*
X133350000Y-5000000D03*
%TD*%
D17*
%TO.P,J2,1,Pin_1*%
%TO.N,Net-(J2-Pin_1)*%
X14120000Y-124610000D03*
D18*
%TO.P,J2,*%
%TO.N,*%
X17920000Y-129690000D03*
X17920000Y-119530000D03*
X7760000Y-129690000D03*
X7760000Y-119530000D03*
%TD*%
D19*
%TO.P,J4,4,Pin_4*%
%TO.N,GND*%
X26815000Y-125875000D03*
%TO.P,J4,3,Pin_3*%
%TO.N,Net-(J2-Pin_1)*%
X24275000Y-125875000D03*
%TO.P,J4,2,Pin_2*%
%TO.N,SAO_VCC*%
X26815000Y-123335000D03*
D20*
%TO.P,J4,1,Pin_1*%
%TO.N,Net-(J2-Pin_1)*%
X24275000Y-123335000D03*
%TD*%
D19*
%TO.P,J5,4,Pin_4*%
%TO.N,SAO_VCC*%
X42060000Y-105560000D03*
%TO.P,J5,3,Pin_3*%
%TO.N,Net-(J3-Pin_4)*%
X39520000Y-105560000D03*
%TO.P,J5,2,Pin_2*%
%TO.N,SAO_VCC*%
X42060000Y-103020000D03*
D20*
%TO.P,J5,1,Pin_1*%
%TO.N,VCC*%
X39520000Y-103020000D03*
%TD*%
D19*
%TO.P,J3,6,Pin_6*%
%TO.N,PICO_VIN*%
X26815000Y-108115000D03*
%TO.P,J3,5,Pin_5*%
%TO.N,Net-(J1-Pin_1)*%
X24275000Y-108115000D03*
%TO.P,J3,4,Pin_4*%
%TO.N,Net-(J3-Pin_4)*%
X26815000Y-105575000D03*
%TO.P,J3,3,Pin_3*%
%TO.N,Net-(J1-Pin_1)*%
X24275000Y-105575000D03*
%TO.P,J3,2,Pin_2*%
%TO.N,VCC*%
X26815000Y-103035000D03*
D20*
%TO.P,J3,1,Pin_1*%
%TO.N,Net-(J1-Pin_1)*%
X24275000Y-103035000D03*
%TD*%
D17*
%TO.P,J1,1,Pin_1*%
%TO.N,Net-(J1-Pin_1)*%
X14120000Y-105560000D03*
D18*
%TO.P,J1,*%
%TO.N,*%
X17920000Y-110640000D03*
X17920000Y-100480000D03*
X7760000Y-110640000D03*
X7760000Y-100480000D03*
%TD*%
D13*
%TO.P,J7,20,Pin_20*%
%TO.N,I2C1_SCL*%
X90320000Y-104995000D03*
%TO.P,J7,19,Pin_19*%
%TO.N,I2C1_SDA*%
X92859998Y-104994999D03*
D14*
%TO.P,J7,18,Pin_18*%
%TO.N,GND*%
X95400000Y-104995000D03*
D13*
%TO.P,J7,17,Pin_17*%
%TO.N,/RPi Pico X/GP13*%
X97940000Y-104995000D03*
%TO.P,J7,16,Pin_16*%
%TO.N,/RPi Pico X/GP12*%
X100480003Y-104995000D03*
%TO.P,J7,15,Pin_15*%
%TO.N,/RPi Pico X/GP11*%
X103020000Y-104995000D03*
%TO.P,J7,14,Pin_14*%
%TO.N,/RPi Pico X/GP10*%
X105560000Y-104995000D03*
D14*
%TO.P,J7,13,Pin_13*%
%TO.N,GND*%
X108100000Y-104994999D03*
D13*
%TO.P,J7,12,Pin_12*%
%TO.N,/RPi Pico X/GP9*%
X110640000Y-104995000D03*
%TO.P,J7,11,Pin_11*%
%TO.N,/RPi Pico X/GP8*%
X113180000Y-104995000D03*
%TO.P,J7,10,Pin_10*%
%TO.N,/RPi Pico X/GP7*%
X115720002Y-104995000D03*
%TO.P,J7,9,Pin_9*%
%TO.N,/RPi Pico X/GP6*%
X118260000Y-104995000D03*
D14*
%TO.P,J7,8,Pin_8*%
%TO.N,GND*%
X120800000Y-104995000D03*
D13*
%TO.P,J7,7,Pin_7*%
%TO.N,I2C0_SCL*%
X123340000Y-104995000D03*
%TO.P,J7,6,Pin_6*%
%TO.N,I2C0_SDA*%
X125880001Y-104995000D03*
%TO.P,J7,5,Pin_5*%
%TO.N,/RPi Pico X/GP3*%
X128420001Y-104994997D03*
%TO.P,J7,4,Pin_4*%
%TO.N,/RPi Pico X/GP2*%
X130960000Y-104995000D03*
D14*
%TO.P,J7,3,Pin_3*%
%TO.N,GND*%
X133500000Y-104995000D03*
D13*
%TO.P,J7,2,Pin_2*%
%TO.N,/RPi Pico X/GP1*%
X136039996Y-104994999D03*
%TO.P,J7,1,Pin_1*%
%TO.N,/RPi Pico X/GP0*%
X138580000Y-104995000D03*
%TD*%
D15*
%TO.P,REF\u002A\u002A,1*%
%TO.N,N/C*%
X6650000Y-135000000D03*
X6166726Y-136166726D03*
X6166726Y-133833274D03*
X5000000Y-136650000D03*
D16*
X5000000Y-135000000D03*
D15*
X5000000Y-133350000D03*
X3833274Y-136166726D03*
X3833274Y-133833274D03*
X3350000Y-135000000D03*
%TD*%
%TO.P,REF\u002A\u002A,1*%
%TO.N,N/C*%
X136650000Y-135000000D03*
X136166726Y-136166726D03*
X136166726Y-133833274D03*
X135000000Y-136650000D03*
D16*
X135000000Y-135000000D03*
D15*
X135000000Y-133350000D03*
X133833274Y-136166726D03*
X133833274Y-133833274D03*
X133350000Y-135000000D03*
%TD*%
%TO.P,REF\u002A\u002A,1*%
%TO.N,N/C*%
X6650000Y-5000000D03*
X6166726Y-6166726D03*
X6166726Y-3833274D03*
X5000000Y-6650000D03*
D16*
X5000000Y-5000000D03*
D15*
X5000000Y-3350000D03*
X3833274Y-6166726D03*
X3833274Y-3833274D03*
X3350000Y-5000000D03*
%TD*%
D21*
%TO.N,GND*%
X42178000Y-123900000D03*
X45078000Y-123900000D03*
D22*
%TO.N,VCC*%
X44350000Y-107800000D03*
D21*
%TO.N,GND*%
X44678000Y-134800000D03*
X46678000Y-134750000D03*
X51928000Y-127900000D03*
X53528000Y-128400000D03*
X50528000Y-130050000D03*
X47628000Y-128550000D03*
X46328000Y-129850000D03*
X44028000Y-129750000D03*
X42328000Y-129750000D03*
X40228000Y-129600000D03*
D23*
%TO.N,I2C1_SDA*%
X62100000Y-104100000D03*
%TO.N,I2C1_SCL*%
X61415978Y-103951283D03*
D21*
%TO.N,SAO_VCC*%
X80800000Y-105100000D03*
X59080000Y-103020000D03*
%TO.N,BTN_LEFT*%
X66600000Y-121500000D03*
%TO.N,BTN_UP*%
X67200000Y-114900000D03*
%TO.N,BTN_CENTER*%
X69100000Y-119100000D03*
%TO.N,BTN_RIGHT*%
X79400000Y-126000000D03*
%TO.N,BTN_DOWN*%
X74800000Y-129900000D03*
%TD*%
D24*
%TO.N,I2C1_SCL*%
X61867261Y-103500000D02*
X85265686Y-103500000D01*
X85265686Y-103500000D02*
X87960686Y-106195000D01*
X61415978Y-103951283D02*
X61867261Y-103500000D01*
X87960686Y-106195000D02*
X90320000Y-106195000D01*
%TO.N,I2C1_SDA*%
X92859998Y-106194999D02*
X92859998Y-107540002D01*
X85300000Y-104100000D02*
X62100000Y-104100000D01*
X92859998Y-107540002D02*
X92400000Y-108000000D01*
X92400000Y-108000000D02*
X89200000Y-108000000D01*
X89200000Y-108000000D02*
X85300000Y-104100000D01*
D25*
%TO.N,VCC*%
X85900000Y-107800000D02*
X34600000Y-107800000D01*
X29835000Y-103035000D02*
X26815000Y-103035000D01*
X34600000Y-107800000D02*
X29835000Y-103035000D01*
X100480002Y-123974999D02*
X100480002Y-122380002D01*
X100480002Y-122380002D02*
X85900000Y-107800000D01*
%TO.N,PICO_VIN*%
X92859997Y-122359997D02*
X92859997Y-123974998D01*
X81900000Y-111400000D02*
X92859997Y-122359997D01*
X30100000Y-111400000D02*
X81900000Y-111400000D01*
X26815000Y-108115000D02*
X30100000Y-111400000D01*
D24*
%TO.N,SAO_VCC*%
X80800000Y-105100000D02*
X61160000Y-105100000D01*
X61160000Y-105100000D02*
X59080000Y-103020000D01*
%TO.N,BTN_LEFT*%
X123700000Y-130500000D02*
X80100000Y-130500000D01*
X125880000Y-123974999D02*
X125900000Y-123994999D01*
X125900000Y-123994999D02*
X125900000Y-128300000D01*
X71100000Y-121500000D02*
X66600000Y-121500000D01*
X80100000Y-130500000D02*
X71100000Y-121500000D01*
X125900000Y-128300000D02*
X123700000Y-130500000D01*
%TO.N,BTN_UP*%
X127900000Y-131300000D02*
X130959999Y-128240001D01*
X73700000Y-131300000D02*
X127900000Y-131300000D01*
X65200000Y-116900000D02*
X65200000Y-122800000D01*
X67200000Y-114900000D02*
X65200000Y-116900000D01*
X130959999Y-128240001D02*
X130959999Y-123974999D01*
X65200000Y-122800000D02*
X73700000Y-131300000D01*
%TO.N,BTN_CENTER*%
X116800000Y-129700000D02*
X85500000Y-129700000D01*
X74900000Y-119100000D02*
X69100000Y-119100000D01*
X118259999Y-123974999D02*
X118259999Y-128240001D01*
X85500000Y-129700000D02*
X74900000Y-119100000D01*
X118259999Y-128240001D02*
X116800000Y-129700000D01*
%TO.N,BTN_RIGHT*%
X83500000Y-130100000D02*
X79400000Y-126000000D01*
X121500000Y-130100000D02*
X83500000Y-130100000D01*
X123339999Y-123974999D02*
X123339999Y-128260001D01*
X123339999Y-128260001D02*
X121500000Y-130100000D01*
%TO.N,BTN_DOWN*%
X128420000Y-128280000D02*
X125800000Y-130900000D01*
X128420000Y-123974996D02*
X128420000Y-128280000D01*
X125800000Y-130900000D02*
X75800000Y-130900000D01*
X75800000Y-130900000D02*
X74800000Y-129900000D01*
%TD*%
%TA.AperFunction,Conductor*%
%TO.N,GND*%
G36*
X135002152Y-500593D02*
G01*
X135387853Y-517434D01*
X135396432Y-518184D01*
X135777053Y-568295D01*
X135785544Y-569792D01*
X136160338Y-652881D01*
X136168673Y-655115D01*
X136534797Y-770553D01*
X136542913Y-773507D01*
X136897587Y-920418D01*
X136905398Y-924060D01*
X137245910Y-1101320D01*
X137253390Y-1105638D01*
X137577167Y-1311906D01*
X137584241Y-1316860D01*
X137888797Y-1550554D01*
X137895398Y-1556093D01*
X138178459Y-1815470D01*
X138184529Y-1821540D01*
X138443905Y-2104599D01*
X138449445Y-2111202D01*
X138683139Y-2415758D01*
X138688093Y-2422832D01*
X138894361Y-2746609D01*
X138898679Y-2754089D01*
X139075935Y-3094593D01*
X139079585Y-3102420D01*
X139226492Y-3457086D01*
X139229446Y-3465202D01*
X139344884Y-3831326D01*
X139347119Y-3839668D01*
X139430205Y-4214445D01*
X139431705Y-4222951D01*
X139481813Y-4603554D01*
X139482566Y-4612158D01*
X139499406Y-4997847D01*
X139499500Y-5002165D01*
X139499500Y-102939861D01*
X139480593Y-102998052D01*
X139431093Y-103034016D01*
X139369907Y-103034016D01*
X139330498Y-103009866D01*
X139249655Y-102929023D01*
X139249651Y-102929020D01*
X139077597Y-102814058D01*
X138886418Y-102734869D01*
X138683467Y-102694500D01*
X138683465Y-102694500D01*
X138476535Y-102694500D01*
X138476532Y-102694500D01*
X138273581Y-102734869D01*
X138082402Y-102814058D01*
X137910348Y-102929020D01*
X137764020Y-103075348D01*
X137649058Y-103247402D01*
X137569869Y-103438581D01*
X137529500Y-103641532D01*
X137529500Y-106348467D01*
X137569869Y-106551418D01*
X137649058Y-106742597D01*
X137764020Y-106914651D01*
X137764023Y-106914655D01*
X137910345Y-107060977D01*
X138082402Y-107175941D01*
X138273580Y-107255130D01*
X138476535Y-107295500D01*
X138476536Y-107295500D01*
X138683464Y-107295500D01*
X138683465Y-107295500D01*
X138886420Y-107255130D01*
X139077598Y-107175941D01*
X139249655Y-107060977D01*
X139330498Y-106980133D01*
X139385013Y-106952358D01*
X139445445Y-106961929D01*
X139488710Y-107005194D01*
X139499500Y-107050139D01*
X139499500Y-123119861D01*
X139480593Y-123178052D01*
X139431093Y-123214016D01*
X139369907Y-123214016D01*
X139330498Y-123189866D01*
X139249654Y-123109022D01*
X139249650Y-123109019D01*
X139077596Y-122994057D01*
X138886417Y-122914868D01*
X138683466Y-122874499D01*
X138683464Y-122874499D01*
X138476534Y-122874499D01*
X138476531Y-122874499D01*
X138273580Y-122914868D01*
X138082401Y-122994057D01*
X137910347Y-123109019D01*
X137764019Y-123255347D01*
X137649057Y-123427401D01*
X137569868Y-123618580D01*
X137529499Y-123821531D01*
X137529499Y-126528466D01*
X137569868Y-126731417D01*
X137649057Y-126922596D01*
X137764019Y-127094650D01*
X137764022Y-127094654D01*
X137910344Y-127240976D01*
X138082401Y-127355940D01*
X138273579Y-127435129D01*
X138476534Y-127475499D01*
X138476535Y-127475499D01*
X138683463Y-127475499D01*
X138683464Y-127475499D01*
X138886419Y-127435129D01*
X139077597Y-127355940D01*
X139249654Y-127240976D01*
X139330498Y-127160131D01*
X139385013Y-127132356D01*
X139445445Y-127141927D01*
X139488710Y-127185192D01*
X139499500Y-127230137D01*
X139499500Y-134997834D01*
X139499406Y-135002152D01*
X139482566Y-135387841D01*
X139481813Y-135396445D01*
X139431705Y-135777048D01*
X139430205Y-135785554D01*
X139347119Y-136160331D01*
X139344884Y-136168673D01*
X139229446Y-136534797D01*
X139226492Y-136542913D01*
X139079585Y-136897579D01*
X139075935Y-136905406D01*
X138898679Y-137245910D01*
X138894361Y-137253390D01*
X138688093Y-137577167D01*
X138683139Y-137584241D01*
X138449445Y-137888797D01*
X138443895Y-137895411D01*
X138184540Y-138178447D01*
X138178447Y-138184540D01*
X138162727Y-138198946D01*
X137895413Y-138443894D01*
X137888797Y-138449445D01*
X137584241Y-138683139D01*
X137577167Y-138688093D01*
X137253390Y-138894361D01*
X137245910Y-138898679D01*
X136905406Y-139075935D01*
X136897579Y-139079585D01*
X136542913Y-139226492D01*
X136534797Y-139229446D01*
X136168673Y-139344884D01*
X136160331Y-139347119D01*
X135785554Y-139430205D01*
X135777048Y-139431705D01*
X135396445Y-139481813D01*
X135387841Y-139482566D01*
X135002153Y-139499406D01*
X134997835Y-139499500D01*
X5002165Y-139499500D01*
X4997847Y-139499406D01*
X4612158Y-139482566D01*
X4603554Y-139481813D01*
X4222951Y-139431705D01*
X4214445Y-139430205D01*
X3839668Y-139347119D01*
X3831326Y-139344884D01*
X3465202Y-139229446D01*
X3457086Y-139226492D01*
X3102420Y-139079585D01*
X3094593Y-139075935D01*
X2754089Y-138898679D01*
X2746609Y-138894361D01*
X2422832Y-138688093D01*
X2415758Y-138683139D01*
X2111202Y-138449445D01*
X2104599Y-138443905D01*
X1821540Y-138184529D01*
X1815470Y-138178459D01*
X1556093Y-137895398D01*
X1550554Y-137888797D01*
X1316860Y-137584241D01*
X1311906Y-137577167D01*
X1105638Y-137253390D01*
X1101320Y-137245910D01*
X924064Y-136905406D01*
X920414Y-136897579D01*
X902063Y-136853276D01*
X773507Y-136542913D01*
X770553Y-136534797D01*
X655115Y-136168673D01*
X652880Y-136160331D01*
X569792Y-135785544D01*
X568294Y-135777048D01*
X544743Y-135598160D01*
X518184Y-135396432D01*
X517434Y-135387853D01*
X500594Y-135002152D01*
X500547Y-135000000D01*
X2594754Y-135000000D01*
X2613720Y-135301462D01*
X2670317Y-135598151D01*
X2670319Y-135598160D01*
X2729835Y-135781330D01*
X2763661Y-135885436D01*
X2892267Y-136158736D01*
X2892274Y-136158749D01*
X3054114Y-136413767D01*
X3246645Y-136646497D01*
X3246655Y-136646508D01*
X3466837Y-136853274D01*
X3466840Y-136853276D01*
X3711192Y-137030807D01*
X3711196Y-137030809D01*
X3711205Y-137030816D01*
X3975896Y-137176332D01*
X4256738Y-137287525D01*
X4549302Y-137362642D01*
X4749082Y-137387880D01*
X4848972Y-137400500D01*
X4848973Y-137400500D01*
X5151028Y-137400500D01*
X5200972Y-137394190D01*
X5450698Y-137362642D01*
X5743262Y-137287525D01*
X6024104Y-137176332D01*
X6288795Y-137030816D01*
X6533162Y-136853274D01*
X6753349Y-136646504D01*
X6945885Y-136413768D01*
X7107733Y-136158736D01*
X7236341Y-135885430D01*
X7329681Y-135598160D01*
X7386280Y-135301457D01*
X7405246Y-135000000D01*
X132594754Y-135000000D01*
X132613720Y-135301462D01*
X132670317Y-135598151D01*
X132670319Y-135598160D01*
X132729835Y-135781330D01*
X132763661Y-135885436D01*
X132892267Y-136158736D01*
X132892274Y-136158749D01*
X133054114Y-136413767D01*
X133246645Y-136646497D01*
X133246655Y-136646508D01*
X133466837Y-136853274D01*
X133466840Y-136853276D01*
X133711192Y-137030807D01*
X133711196Y-137030809D01*
X133711205Y-137030816D01*
X133975896Y-137176332D01*
X134256738Y-137287525D01*
X134549302Y-137362642D01*
X134749082Y-137387880D01*
X134848972Y-137400500D01*
X134848973Y-137400500D01*
X135151028Y-137400500D01*
X135200972Y-137394190D01*
X135450698Y-137362642D01*
X135743262Y-137287525D01*
X136024104Y-137176332D01*
X136288795Y-137030816D01*
X136533162Y-136853274D01*
X136753349Y-136646504D01*
X136945885Y-136413768D01*
X137107733Y-136158736D01*
X137236341Y-135885430D01*
X137329681Y-135598160D01*
X137386280Y-135301457D01*
X137405246Y-135000000D01*
X137386280Y-134698543D01*
X137329681Y-134401840D01*
X137236341Y-134114570D01*
X137107733Y-133841264D01*
X137107729Y-133841259D01*
X137107725Y-133841250D01*
X136945885Y-133586232D01*
X136753354Y-133353502D01*
X136753344Y-133353491D01*
X136533162Y-133146725D01*
X136533159Y-133146723D01*
X136288807Y-132969192D01*
X136288800Y-132969187D01*
X136288795Y-132969184D01*
X136024104Y-132823668D01*
X136024102Y-132823667D01*
X136024100Y-132823666D01*
X135743262Y-132712475D01*
X135450698Y-132637358D01*
X135450691Y-132637357D01*
X135450695Y-132637357D01*
X135151028Y-132599500D01*
X135151027Y-132599500D01*
X134848973Y-132599500D01*
X134848972Y-132599500D01*
X134549306Y-132637357D01*
X134256737Y-132712475D01*
X133975899Y-132823666D01*
X133711213Y-132969179D01*
X133711192Y-132969192D01*
X133466840Y-133146723D01*
X133466837Y-133146725D01*
X133246655Y-133353491D01*
X133246645Y-133353502D01*
X133054114Y-133586232D01*
X132892274Y-133841250D01*
X132892267Y-133841263D01*
X132763661Y-134114563D01*
X132670320Y-134401838D01*
X132670317Y-134401848D01*
X132613720Y-134698537D01*
X132594754Y-135000000D01*
X7405246Y-135000000D01*
X7386280Y-134698543D01*
X7329681Y-134401840D01*
X7236341Y-134114570D01*
X7107733Y-133841264D01*
X7107729Y-133841259D01*
X7107725Y-133841250D01*
X6945885Y-133586232D01*
X6753354Y-133353502D01*
X6753344Y-133353491D01*
X6533162Y-133146725D01*
X6533159Y-133146723D01*
X6288807Y-132969192D01*
X6288800Y-132969187D01*
X6288795Y-132969184D01*
X6024104Y-132823668D01*
X6024102Y-132823667D01*
X6024100Y-132823666D01*
X5743262Y-132712475D01*
X5450698Y-132637358D01*
X5450691Y-132637357D01*
X5450695Y-132637357D01*
X5151028Y-132599500D01*
X5151027Y-132599500D01*
X4848973Y-132599500D01*
X4848972Y-132599500D01*
X4549306Y-132637357D01*
X4256737Y-132712475D01*
X3975899Y-132823666D01*
X3711213Y-132969179D01*
X3711192Y-132969192D01*
X3466840Y-133146723D01*
X3466837Y-133146725D01*
X3246655Y-133353491D01*
X3246645Y-133353502D01*
X3054114Y-133586232D01*
X2892274Y-133841250D01*
X2892267Y-133841263D01*
X2763661Y-134114563D01*
X2670320Y-134401838D01*
X2670317Y-134401848D01*
X2613720Y-134698537D01*
X2594754Y-135000000D01*
X500547Y-135000000D01*
X500500Y-134997834D01*
X500500Y-129689996D01*
X6704417Y-129689996D01*
X6704417Y-129690003D01*
X6724698Y-129895929D01*
X6724699Y-129895934D01*
X6784768Y-130093954D01*
X6882316Y-130276452D01*
X7013585Y-130436404D01*
X7013590Y-130436410D01*
X7013595Y-130436414D01*
X7173547Y-130567683D01*
X7173548Y-130567683D01*
X7173550Y-130567685D01*
X7356046Y-130665232D01*
X7493997Y-130707078D01*
X7554065Y-130725300D01*
X7554070Y-130725301D01*
X7759997Y-130745583D01*
X7760000Y-130745583D01*
X7760003Y-130745583D01*
X7965929Y-130725301D01*
X7965934Y-130725300D01*
X8163954Y-130665232D01*
X8346450Y-130567685D01*
X8506410Y-130436410D01*
X8637685Y-130276450D01*
X8735232Y-130093954D01*
X8795300Y-129895934D01*
X8795301Y-129895929D01*
X8815583Y-129690003D01*
X8815583Y-129689996D01*
X16864417Y-129689996D01*
X16864417Y-129690003D01*
X16884698Y-129895929D01*
X16884699Y-129895934D01*
X16944768Y-130093954D01*
X17042316Y-130276452D01*
X17173585Y-130436404D01*
X17173590Y-130436410D01*
X17173595Y-130436414D01*
X17333547Y-130567683D01*
X17333548Y-130567683D01*
X17333550Y-130567685D01*
X17516046Y-130665232D01*
X17653997Y-130707078D01*
X17714065Y-130725300D01*
X17714070Y-130725301D01*
X17919997Y-130745583D01*
X17920000Y-130745583D01*
X17920003Y-130745583D01*
X18125929Y-130725301D01*
X18125934Y-130725300D01*
X18311859Y-130668901D01*
X69284855Y-130668901D01*
X69284855Y-130816738D01*
X69313697Y-130961734D01*
X69370270Y-131098313D01*
X69370271Y-131098315D01*
X69452404Y-131221236D01*
X69556939Y-131325771D01*
X69679860Y-131407904D01*
X69816442Y-131464478D01*
X69961437Y-131493320D01*
X69961438Y-131493320D01*
X70109272Y-131493320D01*
X70109273Y-131493320D01*
X70254268Y-131464478D01*
X70390850Y-131407904D01*
X70513771Y-131325771D01*
X70618306Y-131221236D01*
X70700439Y-131098315D01*
X70757013Y-130961733D01*
X70785855Y-130816738D01*
X70785855Y-130668902D01*
X70757013Y-130523907D01*
X70700439Y-130387325D01*
X70618306Y-130264404D01*
X70513771Y-130159869D01*
X70390850Y-130077736D01*
X70390848Y-130077735D01*
X70254269Y-130021162D01*
X70109273Y-129992320D01*
X69961437Y-129992320D01*
X69961436Y-129992320D01*
X69816440Y-130021162D01*
X69679861Y-130077735D01*
X69556940Y-130159868D01*
X69452403Y-130264405D01*
X69370270Y-130387326D01*
X69313697Y-130523905D01*
X69284855Y-130668901D01*
X18311859Y-130668901D01*
X18323954Y-130665232D01*
X18506450Y-130567685D01*
X18666410Y-130436410D01*
X18797685Y-130276450D01*
X18895232Y-130093954D01*
X18955300Y-129895934D01*
X18955301Y-129895929D01*
X18975583Y-129690003D01*
X18975583Y-129689996D01*
X18955301Y-129484070D01*
X18955300Y-129484065D01*
X18923912Y-129380593D01*
X18895232Y-129286046D01*
X18797685Y-129103550D01*
X18666410Y-128943590D01*
X18666404Y-128943585D01*
X18506452Y-128812316D01*
X18323954Y-128714768D01*
X18125934Y-128654699D01*
X18125929Y-128654698D01*
X17920003Y-128634417D01*
X17919997Y-128634417D01*
X17714070Y-128654698D01*
X17714065Y-128654699D01*
X17516045Y-128714768D01*
X17333547Y-128812316D01*
X17173595Y-128943585D01*
X17173585Y-128943595D01*
X17042316Y-129103547D01*
X16944768Y-129286045D01*
X16884699Y-129484065D01*
X16884698Y-129484070D01*
X16864417Y-129689996D01*
X8815583Y-129689996D01*
X8795301Y-129484070D01*
X8795300Y-129484065D01*
X8763912Y-129380593D01*
X8735232Y-129286046D01*
X8637685Y-129103550D01*
X8506410Y-128943590D01*
X8506404Y-128943585D01*
X8346452Y-128812316D01*
X8163954Y-128714768D01*
X7965934Y-128654699D01*
X7965929Y-128654698D01*
X7760003Y-128634417D01*
X7759997Y-128634417D01*
X7554070Y-128654698D01*
X7554065Y-128654699D01*
X7356045Y-128714768D01*
X7173547Y-128812316D01*
X7013595Y-128943585D01*
X7013585Y-128943595D01*
X6882316Y-129103547D01*
X6784768Y-129286045D01*
X6724699Y-129484065D01*
X6724698Y-129484070D01*
X6704417Y-129689996D01*
X500500Y-129689996D01*
X500500Y-124610000D01*
X12164518Y-124610000D01*
X12184421Y-124888288D01*
X12184421Y-124888291D01*
X12184422Y-124888294D01*
X12243729Y-125160923D01*
X12243730Y-125160927D01*
X12341231Y-125422338D01*
X12341232Y-125422340D01*
X12474944Y-125667213D01*
X12474943Y-125667213D01*
X12642140Y-125890562D01*
X12642142Y-125890564D01*
X12642145Y-125890568D01*
X12839432Y-126087855D01*
X12839435Y-126087857D01*
X12839437Y-126087859D01*
X13062786Y-126255056D01*
X13282447Y-126375000D01*
X13307663Y-126388769D01*
X13569072Y-126486269D01*
X13569077Y-126486271D01*
X13841706Y-126545578D01*
X14120000Y-126565482D01*
X14398294Y-126545578D01*
X14670923Y-126486271D01*
X14932337Y-126388769D01*
X15177213Y-126255056D01*
X15400568Y-126087855D01*
X15597855Y-125890568D01*
X15609512Y-125874996D01*
X23219417Y-125874996D01*
X23219417Y-125875003D01*
X23239698Y-126080929D01*
X23239699Y-126080934D01*
X23299768Y-126278954D01*
X23397316Y-126461452D01*
X23528302Y-126621059D01*
X23528590Y-126621410D01*
X23528595Y-126621414D01*
X23688547Y-126752683D01*
X23688548Y-126752683D01*
X23688550Y-126752685D01*
X23871046Y-126850232D01*
X24008997Y-126892078D01*
X24069065Y-126910300D01*
X24069070Y-126910301D01*
X24274997Y-126930583D01*
X24275000Y-126930583D01*
X24275003Y-126930583D01*
X24480929Y-126910301D01*
X24480934Y-126910300D01*
X24482556Y-126909808D01*
X24678954Y-126850232D01*
X24861450Y-126752685D01*
X25021410Y-126621410D01*
X25152685Y-126461450D01*
X25250232Y-126278954D01*
X25310300Y-126080934D01*
X25310301Y-126080928D01*
X25325036Y-125931327D01*
X25325036Y-125931326D01*
X25330583Y-125875004D01*
X25330583Y-125874995D01*
X25325036Y-125818672D01*
X25320734Y-125774999D01*
X25769767Y-125774999D01*
X25769768Y-125775000D01*
X26324157Y-125775000D01*
X26315000Y-125809174D01*
X26315000Y-125940826D01*
X26324157Y-125975000D01*
X25769767Y-125975000D01*
X25780190Y-126080831D01*
X25780191Y-126080836D01*
X25840232Y-126278762D01*
X25840234Y-126278767D01*
X25937724Y-126461160D01*
X25937731Y-126461170D01*
X26068940Y-126621050D01*
X26068949Y-126621059D01*
X26228829Y-126752268D01*
X26228839Y-126752275D01*
X26411232Y-126849765D01*
X26411237Y-126849767D01*
X26609166Y-126909808D01*
X26714998Y-126920231D01*
X26715000Y-126920230D01*
X26715000Y-126365842D01*
X26749174Y-126375000D01*
X26880826Y-126375000D01*
X26915000Y-126365842D01*
X26915000Y-126920230D01*
X26915001Y-126920231D01*
X27020833Y-126909808D01*
X27218762Y-126849767D01*
X27218767Y-126849765D01*
X27401160Y-126752275D01*
X27401170Y-126752268D01*
X27561050Y-126621059D01*
X27561059Y-126621050D01*
X27692268Y-126461170D01*
X27692275Y-126461160D01*
X27789765Y-126278767D01*
X27789767Y-126278762D01*
X27849808Y-126080836D01*
X27849809Y-126080831D01*
X27860232Y-125975000D01*
X27305843Y-125975000D01*
X27315000Y-125940826D01*
X27315000Y-125809174D01*
X27305843Y-125775000D01*
X27860232Y-125775000D01*
X27860232Y-125774999D01*
X27849809Y-125669168D01*
X27849808Y-125669163D01*
X27789767Y-125471237D01*
X27789765Y-125471232D01*
X27692275Y-125288839D01*
X27692268Y-125288829D01*
X27561059Y-125128949D01*
X27561050Y-125128940D01*
X27401170Y-124997731D01*
X27401160Y-124997724D01*
X27218767Y-124900234D01*
X27218762Y-124900232D01*
X27020836Y-124840191D01*
X27020831Y-124840190D01*
X26915000Y-124829767D01*
X26915000Y-125384157D01*
X26880826Y-125375000D01*
X26749174Y-125375000D01*
X26715000Y-125384157D01*
X26715000Y-124829767D01*
X26714999Y-124829767D01*
X26609168Y-124840190D01*
X26609163Y-124840191D01*
X26411237Y-124900232D01*
X26411232Y-124900234D01*
X26228839Y-124997724D01*
X26228829Y-124997731D01*
X26068949Y-125128940D01*
X26068940Y-125128949D01*
X25937731Y-125288829D01*
X25937724Y-125288839D01*
X25840234Y-125471232D01*
X25840232Y-125471237D01*
X25780191Y-125669163D01*
X25780190Y-125669168D01*
X25769767Y-125774999D01*
X25320734Y-125774999D01*
X25310301Y-125669071D01*
X25310300Y-125669065D01*
X25279640Y-125567993D01*
X25250232Y-125471046D01*
X25152685Y-125288550D01*
X25021410Y-125128590D01*
X24956108Y-125074998D01*
X24861452Y-124997316D01*
X24678954Y-124899768D01*
X24480934Y-124839699D01*
X24480929Y-124839698D01*
X24275003Y-124819417D01*
X24274997Y-124819417D01*
X24069070Y-124839698D01*
X24069065Y-124839699D01*
X23871045Y-124899768D01*
X23688547Y-124997316D01*
X23528595Y-125128585D01*
X23528585Y-125128595D01*
X23397316Y-125288547D01*
X23299768Y-125471045D01*
X23239699Y-125669065D01*
X23239698Y-125669070D01*
X23219417Y-125874996D01*
X15609512Y-125874996D01*
X15765056Y-125667213D01*
X15898769Y-125422337D01*
X15996271Y-125160923D01*
X16055578Y-124888294D01*
X16075482Y-124610000D01*
X16055578Y-124331706D01*
X15996271Y-124059077D01*
X15898769Y-123797663D01*
X15765056Y-123552787D01*
X15765055Y-123552786D01*
X15765056Y-123552786D01*
X15597859Y-123329437D01*
X15597857Y-123329435D01*
X15597855Y-123329432D01*
X15400568Y-123132145D01*
X15400564Y-123132142D01*
X15400562Y-123132140D01*
X15177213Y-122964943D01*
X14932340Y-122831232D01*
X14932338Y-122831231D01*
X14670926Y-122733730D01*
X14670928Y-122733730D01*
X14567207Y-122711167D01*
X14398294Y-122674422D01*
X14398291Y-122674421D01*
X14398288Y-122674421D01*
X14120000Y-122654518D01*
X13841711Y-122674421D01*
X13841706Y-122674421D01*
X13841706Y-122674422D01*
X13835951Y-122675674D01*
X13569072Y-122733730D01*
X13307661Y-122831231D01*
X13307659Y-122831232D01*
X13062786Y-122964943D01*
X12839437Y-123132140D01*
X12642140Y-123329437D01*
X12474943Y-123552786D01*
X12341232Y-123797659D01*
X12341231Y-123797661D01*
X12243730Y-124059072D01*
X12243729Y-124059077D01*
X12184892Y-124329548D01*
X12184421Y-124331711D01*
X12164518Y-124610000D01*
X500500Y-124610000D01*
X500500Y-122465253D01*
X23224500Y-122465253D01*
X23224500Y-124204746D01*
X23224501Y-124204758D01*
X23236132Y-124263227D01*
X23236134Y-124263233D01*
X23280445Y-124329548D01*
X23280448Y-124329552D01*
X23346769Y-124373867D01*
X23391231Y-124382711D01*
X23405241Y-124385498D01*
X23405246Y-124385498D01*
X23405252Y-124385500D01*
X23405253Y-124385500D01*
X25144747Y-124385500D01*
X25144748Y-124385500D01*
X25203231Y-124373867D01*
X25269552Y-124329552D01*
X25313867Y-124263231D01*
X25325500Y-124204748D01*
X25325500Y-123334996D01*
X25759417Y-123334996D01*
X25759417Y-123335003D01*
X25779698Y-123540929D01*
X25779699Y-123540934D01*
X25839768Y-123738954D01*
X25937316Y-123921452D01*
X26035283Y-124040825D01*
X26068590Y-124081410D01*
X26068595Y-124081414D01*
X26228547Y-124212683D01*
X26228548Y-124212683D01*
X26228550Y-124212685D01*
X26411046Y-124310232D01*
X26548997Y-124352078D01*
X26609065Y-124370300D01*
X26609070Y-124370301D01*
X26814997Y-124390583D01*
X26815000Y-124390583D01*
X26815003Y-124390583D01*
X27020929Y-124370301D01*
X27020934Y-124370300D01*
X27218954Y-124310232D01*
X27401450Y-124212685D01*
X27561410Y-124081410D01*
X27692685Y-123921450D01*
X27790232Y-123738954D01*
X27850300Y-123540934D01*
X27850301Y-123540929D01*
X27870583Y-123335003D01*
X27870583Y-123334996D01*
X27850301Y-123129070D01*
X27850300Y-123129065D01*
X27836319Y-123082977D01*
X27790232Y-122931046D01*
X27768680Y-122890726D01*
X61506680Y-122890726D01*
X61506680Y-123038563D01*
X61535522Y-123183559D01*
X61592095Y-123320138D01*
X61592096Y-123320140D01*
X61674229Y-123443061D01*
X61778764Y-123547596D01*
X61901685Y-123629729D01*
X62038267Y-123686303D01*
X62183262Y-123715145D01*
X62183263Y-123715145D01*
X62331097Y-123715145D01*
X62331098Y-123715145D01*
X62476093Y-123686303D01*
X62612675Y-123629729D01*
X62735596Y-123547596D01*
X62840131Y-123443061D01*
X62922264Y-123320140D01*
X62978838Y-123183558D01*
X63007680Y-123038563D01*
X63007680Y-122890727D01*
X62978838Y-122745732D01*
X62922264Y-122609150D01*
X62840131Y-122486229D01*
X62735596Y-122381694D01*
X62612675Y-122299561D01*
X62612673Y-122299560D01*
X62476094Y-122242987D01*
X62331098Y-122214145D01*
X62183262Y-122214145D01*
X62183261Y-122214145D01*
X62038265Y-122242987D01*
X61901686Y-122299560D01*
X61778765Y-122381693D01*
X61674228Y-122486230D01*
X61592095Y-122609151D01*
X61535522Y-122745730D01*
X61506680Y-122890726D01*
X27768680Y-122890726D01*
X27692685Y-122748550D01*
X27690372Y-122745732D01*
X27561414Y-122588595D01*
X27561410Y-122588590D01*
X27561404Y-122588585D01*
X27401452Y-122457316D01*
X27218954Y-122359768D01*
X27020934Y-122299699D01*
X27020929Y-122299698D01*
X26815003Y-122279417D01*
X26814997Y-122279417D01*
X26609070Y-122299698D01*
X26609065Y-122299699D01*
X26411045Y-122359768D01*
X26228547Y-122457316D01*
X26068595Y-122588585D01*
X26068585Y-122588595D01*
X25937316Y-122748547D01*
X25839768Y-122931045D01*
X25779699Y-123129065D01*
X25779698Y-123129070D01*
X25759417Y-123334996D01*
X25325500Y-123334996D01*
X25325500Y-122465252D01*
X25323921Y-122457316D01*
X25322711Y-122451231D01*
X25313867Y-122406769D01*
X25269552Y-122340448D01*
X25269548Y-122340445D01*
X25203233Y-122296134D01*
X25203231Y-122296133D01*
X25203228Y-122296132D01*
X25203227Y-122296132D01*
X25144758Y-122284501D01*
X25144748Y-122284500D01*
X23405252Y-122284500D01*
X23405251Y-122284500D01*
X23405241Y-122284501D01*
X23346772Y-122296132D01*
X23346766Y-122296134D01*
X23280451Y-122340445D01*
X23280445Y-122340451D01*
X23236134Y-122406766D01*
X23236132Y-122406772D01*
X23224501Y-122465241D01*
X23224500Y-122465253D01*
X500500Y-122465253D01*
X500500Y-119529996D01*
X6704417Y-119529996D01*
X6704417Y-119530003D01*
X6724698Y-119735929D01*
X6724699Y-119735934D01*
X6784768Y-119933954D01*
X6882316Y-120116452D01*
X7013585Y-120276404D01*
X7013590Y-120276410D01*
X7013595Y-120276414D01*
X7173547Y-120407683D01*
X7173548Y-120407683D01*
X7173550Y-120407685D01*
X7356046Y-120505232D01*
X7493997Y-120547078D01*
X7554065Y-120565300D01*
X7554070Y-120565301D01*
X7759997Y-120585583D01*
X7760000Y-120585583D01*
X7760003Y-120585583D01*
X7965929Y-120565301D01*
X7965934Y-120565300D01*
X8163954Y-120505232D01*
X8346450Y-120407685D01*
X8506410Y-120276410D01*
X8637685Y-120116450D01*
X8735232Y-119933954D01*
X8795300Y-119735934D01*
X8795301Y-119735929D01*
X8815583Y-119530003D01*
X8815583Y-119529996D01*
X16864417Y-119529996D01*
X16864417Y-119530003D01*
X16884698Y-119735929D01*
X16884699Y-119735934D01*
X16944768Y-119933954D01*
X17042316Y-120116452D01*
X17173585Y-120276404D01*
X17173590Y-120276410D01*
X17173595Y-120276414D01*
X17333547Y-120407683D01*
X17333548Y-120407683D01*
X17333550Y-120407685D01*
X17516046Y-120505232D01*
X17653997Y-120547078D01*
X17714065Y-120565300D01*
X17714070Y-120565301D01*
X17919997Y-120585583D01*
X17920000Y-120585583D01*
X17920003Y-120585583D01*
X18125929Y-120565301D01*
X18125934Y-120565300D01*
X18323954Y-120505232D01*
X18506450Y-120407685D01*
X18666410Y-120276410D01*
X18797685Y-120116450D01*
X18895232Y-119933954D01*
X18955300Y-119735934D01*
X18955301Y-119735929D01*
X18975583Y-119530003D01*
X18975583Y-119529996D01*
X18955301Y-119324070D01*
X18955300Y-119324065D01*
X18930544Y-119242456D01*
X18895232Y-119126046D01*
X18797685Y-118943550D01*
X18666410Y-118783590D01*
X18586314Y-118717857D01*
X18506452Y-118652316D01*
X18323954Y-118554768D01*
X18125934Y-118494699D01*
X18125929Y-118494698D01*
X17920003Y-118474417D01*
X17919997Y-118474417D01*
X17714070Y-118494698D01*
X17714065Y-118494699D01*
X17516045Y-118554768D01*
X17333547Y-118652316D01*
X17173595Y-118783585D01*
X17173585Y-118783595D01*
X17042316Y-118943547D01*
X16944768Y-119126045D01*
X16884699Y-119324065D01*
X16884698Y-119324070D01*
X16864417Y-119529996D01*
X8815583Y-119529996D01*
X8795301Y-119324070D01*
X8795300Y-119324065D01*
X8770544Y-119242456D01*
X8735232Y-119126046D01*
X8637685Y-118943550D01*
X8506410Y-118783590D01*
X8426314Y-118717857D01*
X8346452Y-118652316D01*
X8163954Y-118554768D01*
X7965934Y-118494699D01*
X7965929Y-118494698D01*
X7760003Y-118474417D01*
X7759997Y-118474417D01*
X7554070Y-118494698D01*
X7554065Y-118494699D01*
X7356045Y-118554768D01*
X7173547Y-118652316D01*
X7013595Y-118783585D01*
X7013585Y-118783595D01*
X6882316Y-118943547D01*
X6784768Y-119126045D01*
X6724699Y-119324065D01*
X6724698Y-119324070D01*
X6704417Y-119529996D01*
X500500Y-119529996D01*
X500500Y-116860435D01*
X64899500Y-116860435D01*
X64899500Y-122839564D01*
X64919977Y-122915985D01*
X64919979Y-122915990D01*
X64948241Y-122964942D01*
X64959538Y-122984508D01*
X64959540Y-122984511D01*
X73459540Y-131484511D01*
X73459539Y-131484511D01*
X73515489Y-131540460D01*
X73584007Y-131580019D01*
X73584011Y-131580021D01*
X73660435Y-131600499D01*
X73660437Y-131600500D01*
X73660438Y-131600500D01*
X127939563Y-131600500D01*
X127939563Y-131600499D01*
X128015989Y-131580021D01*
X128084511Y-131540460D01*
X128140460Y-131484511D01*
X131200459Y-128424512D01*
X131205380Y-128415988D01*
X131240020Y-128355990D01*
X131260499Y-128279563D01*
X131260499Y-127503730D01*
X131279406Y-127445539D01*
X131321613Y-127412266D01*
X131457597Y-127355940D01*
X131629654Y-127240976D01*
X131775976Y-127094654D01*
X131890940Y-126922597D01*
X131970129Y-126731419D01*
X132010499Y-126528464D01*
X132010499Y-125275000D01*
X132450000Y-125275000D01*
X132450000Y-127079202D01*
X132452849Y-127109599D01*
X132452849Y-127109601D01*
X132497653Y-127237646D01*
X132578206Y-127346789D01*
X132578208Y-127346791D01*
X132687351Y-127427344D01*
X132815397Y-127472148D01*
X132845788Y-127474998D01*
X133399997Y-127474998D01*
X133399999Y-127474997D01*
X133399999Y-125275000D01*
X133599999Y-125275000D01*
X133599999Y-127474997D01*
X133600000Y-127474998D01*
X134154202Y-127474998D01*
X134184599Y-127472148D01*
X134184601Y-127472148D01*
X134312646Y-127427344D01*
X134421789Y-127346791D01*
X134421791Y-127346789D01*
X134502344Y-127237646D01*
X134547148Y-127109600D01*
X134549998Y-127079210D01*
X134549999Y-127079209D01*
X134549999Y-125275000D01*
X134549998Y-125274999D01*
X133600000Y-125274999D01*
X133599999Y-125275000D01*
X133399999Y-125275000D01*
X133399998Y-125274999D01*
X132450001Y-125274999D01*
X132450000Y-125275000D01*
X132010499Y-125275000D01*
X132010499Y-123821534D01*
X131970129Y-123618579D01*
X131890940Y-123427401D01*
X131786295Y-123270787D01*
X132449999Y-123270787D01*
X132449999Y-125074998D01*
X132450000Y-125074999D01*
X133399998Y-125074999D01*
X133399999Y-125074998D01*
X133399999Y-124465841D01*
X133434173Y-124474999D01*
X133565825Y-124474999D01*
X133599999Y-124465841D01*
X133599999Y-125074998D01*
X133600000Y-125074999D01*
X134549997Y-125074999D01*
X134549998Y-125074998D01*
X134549998Y-123821530D01*
X134989495Y-123821530D01*
X134989495Y-126528465D01*
X135029864Y-126731416D01*
X135109053Y-126922595D01*
X135224014Y-127094647D01*
X135224018Y-127094653D01*
X135370340Y-127240975D01*
X135542397Y-127355939D01*
X135733575Y-127435128D01*
X135936530Y-127475498D01*
X135936531Y-127475498D01*
X136143459Y-127475498D01*
X136143460Y-127475498D01*
X136346415Y-127435128D01*
X136537593Y-127355939D01*
X136709650Y-127240975D01*
X136855972Y-127094653D01*
X136970936Y-126922596D01*
X137050125Y-126731418D01*
X137090495Y-126528463D01*
X137090495Y-123821533D01*
X137050125Y-123618578D01*
X136970936Y-123427400D01*
X136855972Y-123255343D01*
X136709650Y-123109021D01*
X136709643Y-123109016D01*
X136537592Y-122994056D01*
X136346413Y-122914867D01*
X136143462Y-122874498D01*
X136143460Y-122874498D01*
X135936530Y-122874498D01*
X135936527Y-122874498D01*
X135733576Y-122914867D01*
X135542397Y-122994056D01*
X135370343Y-123109018D01*
X135224015Y-123255346D01*
X135109053Y-123427400D01*
X135029864Y-123618579D01*
X134989495Y-123821530D01*
X134549998Y-123821530D01*
X134549998Y-123270795D01*
X134547148Y-123240398D01*
X134547148Y-123240396D01*
X134502344Y-123112351D01*
X134421791Y-123003208D01*
X134421789Y-123003206D01*
X134312646Y-122922653D01*
X134184600Y-122877849D01*
X134154210Y-122874999D01*
X133600000Y-122874999D01*
X133599999Y-122875000D01*
X133599999Y-123484156D01*
X133565825Y-123474999D01*
X133434173Y-123474999D01*
X133399999Y-123484156D01*
X133399999Y-122875000D01*
X133399998Y-122874999D01*
X132845795Y-122874999D01*
X132815398Y-122877849D01*
X132815396Y-122877849D01*
X132687351Y-122922653D01*
X132578208Y-123003206D01*
X132578206Y-123003208D01*
X132497653Y-123112351D01*
X132452849Y-123240397D01*
X132449999Y-123270787D01*
X131786295Y-123270787D01*
X131775976Y-123255344D01*
X131629654Y-123109022D01*
X131629650Y-123109019D01*
X131457596Y-122994057D01*
X131266417Y-122914868D01*
X131063466Y-122874499D01*
X131063464Y-122874499D01*
X130856534Y-122874499D01*
X130856531Y-122874499D01*
X130653580Y-122914868D01*
X130462401Y-122994057D01*
X130290347Y-123109019D01*
X130144019Y-123255347D01*
X130029057Y-123427401D01*
X129949868Y-123618580D01*
X129909499Y-123821531D01*
X129909499Y-126528466D01*
X129949868Y-126731417D01*
X130029057Y-126922596D01*
X130144019Y-127094650D01*
X130144022Y-127094654D01*
X130290344Y-127240976D01*
X130462401Y-127355940D01*
X130598384Y-127412266D01*
X130644910Y-127452002D01*
X130659499Y-127503730D01*
X130659499Y-128074522D01*
X130640592Y-128132713D01*
X130630503Y-128144526D01*
X127804525Y-130970504D01*
X127750008Y-130998281D01*
X127734521Y-130999500D01*
X126364479Y-130999500D01*
X126306288Y-130980593D01*
X126270324Y-130931093D01*
X126270324Y-130869907D01*
X126294475Y-130830496D01*
X126860567Y-130264404D01*
X128660460Y-128464511D01*
X128660463Y-128464506D01*
X128700020Y-128395992D01*
X128700020Y-128395990D01*
X128700022Y-128395988D01*
X128720500Y-128319562D01*
X128720500Y-128240438D01*
X128720500Y-127503727D01*
X128739407Y-127445536D01*
X128781614Y-127412263D01*
X128917598Y-127355937D01*
X129089655Y-127240973D01*
X129235977Y-127094651D01*
X129350941Y-126922594D01*
X129430130Y-126731416D01*
X129470500Y-126528461D01*
X129470500Y-123821531D01*
X129430130Y-123618576D01*
X129350941Y-123427398D01*
X129235977Y-123255341D01*
X129089655Y-123109019D01*
X129089651Y-123109016D01*
X128917597Y-122994054D01*
X128726418Y-122914865D01*
X128523467Y-122874496D01*
X128523465Y-122874496D01*
X128316535Y-122874496D01*
X128316532Y-122874496D01*
X128113581Y-122914865D01*
X127922402Y-122994054D01*
X127750348Y-123109016D01*
X127604020Y-123255344D01*
X127489058Y-123427398D01*
X127409869Y-123618577D01*
X127369500Y-123821528D01*
X127369500Y-126528463D01*
X127409869Y-126731414D01*
X127489058Y-126922593D01*
X127593746Y-127079271D01*
X127604023Y-127094651D01*
X127750345Y-127240973D01*
X127922402Y-127355937D01*
X127922403Y-127355937D01*
X127922404Y-127355938D01*
X127967657Y-127374682D01*
X128058385Y-127412263D01*
X128104911Y-127451999D01*
X128119500Y-127503727D01*
X128119500Y-128114521D01*
X128100593Y-128172712D01*
X128090504Y-128184525D01*
X125704525Y-130570504D01*
X125650008Y-130598281D01*
X125634521Y-130599500D01*
X124264479Y-130599500D01*
X124206288Y-130580593D01*
X124170324Y-130531093D01*
X124170324Y-130469907D01*
X124194475Y-130430496D01*
X124673913Y-129951058D01*
X126140460Y-128484511D01*
X126175100Y-128424512D01*
X126180021Y-128415989D01*
X126200500Y-128339562D01*
X126200500Y-127495445D01*
X126219407Y-127437254D01*
X126261613Y-127403981D01*
X126377598Y-127355940D01*
X126549655Y-127240976D01*
X126695977Y-127094654D01*
X126810941Y-126922597D01*
X126890130Y-126731419D01*
X126930500Y-126528464D01*
X126930500Y-123821534D01*
X126890130Y-123618579D01*
X126810941Y-123427401D01*
X126695977Y-123255344D01*
X126549655Y-123109022D01*
X126549651Y-123109019D01*
X126377597Y-122994057D01*
X126186418Y-122914868D01*
X125983467Y-122874499D01*
X125983465Y-122874499D01*
X125776535Y-122874499D01*
X125776532Y-122874499D01*
X125573581Y-122914868D01*
X125382402Y-122994057D01*
X125210348Y-123109019D01*
X125064020Y-123255347D01*
X124949058Y-123427401D01*
X124869869Y-123618580D01*
X124829500Y-123821531D01*
X124829500Y-126528466D01*
X124869869Y-126731417D01*
X124949058Y-126922596D01*
X125064020Y-127094650D01*
X125064023Y-127094654D01*
X125210345Y-127240976D01*
X125210348Y-127240978D01*
X125382402Y-127355940D01*
X125538386Y-127420551D01*
X125584911Y-127460288D01*
X125599500Y-127512015D01*
X125599500Y-128134521D01*
X125580593Y-128192712D01*
X125570504Y-128204525D01*
X123604525Y-130170504D01*
X123550008Y-130198281D01*
X123534521Y-130199500D01*
X122064479Y-130199500D01*
X122006288Y-130180593D01*
X121970324Y-130131093D01*
X121970324Y-130069907D01*
X121994475Y-130030496D01*
X122355064Y-129669907D01*
X123580459Y-128444512D01*
X123596927Y-128415989D01*
X123620019Y-128375993D01*
X123620019Y-128375991D01*
X123620021Y-128375989D01*
X123640499Y-128299563D01*
X123640499Y-128220439D01*
X123640499Y-127503730D01*
X123659406Y-127445539D01*
X123701613Y-127412266D01*
X123837597Y-127355940D01*
X124009654Y-127240976D01*
X124155976Y-127094654D01*
X124270940Y-126922597D01*
X124350129Y-126731419D01*
X124390499Y-126528464D01*
X124390499Y-123821534D01*
X124350129Y-123618579D01*
X124270940Y-123427401D01*
X124155976Y-123255344D01*
X124009654Y-123109022D01*
X124009650Y-123109019D01*
X123837596Y-122994057D01*
X123646417Y-122914868D01*
X123443466Y-122874499D01*
X123443464Y-122874499D01*
X123236534Y-122874499D01*
X123236531Y-122874499D01*
X123033580Y-122914868D01*
X122842401Y-122994057D01*
X122670347Y-123109019D01*
X122524019Y-123255347D01*
X122409057Y-123427401D01*
X122329868Y-123618580D01*
X122289499Y-123821531D01*
X122289499Y-126528466D01*
X122329868Y-126731417D01*
X122409057Y-126922596D01*
X122524019Y-127094650D01*
X122524022Y-127094654D01*
X122670344Y-127240976D01*
X122842401Y-127355940D01*
X122978384Y-127412266D01*
X123024910Y-127452002D01*
X123039499Y-127503730D01*
X123039499Y-128094522D01*
X123020592Y-128152713D01*
X123010503Y-128164526D01*
X121404525Y-129770504D01*
X121350008Y-129798281D01*
X121334521Y-129799500D01*
X117364479Y-129799500D01*
X117306288Y-129780593D01*
X117270324Y-129731093D01*
X117270324Y-129669907D01*
X117294475Y-129630496D01*
X117554467Y-129370504D01*
X118500459Y-128424512D01*
X118505380Y-128415988D01*
X118540020Y-128355990D01*
X118560499Y-128279563D01*
X118560499Y-127503730D01*
X118579406Y-127445539D01*
X118621613Y-127412266D01*
X118757597Y-127355940D01*
X118929654Y-127240976D01*
X119075976Y-127094654D01*
X119190940Y-126922597D01*
X119270129Y-126731419D01*
X119310499Y-126528464D01*
X119310499Y-125275000D01*
X119750000Y-125275000D01*
X119750000Y-127079202D01*
X119752849Y-127109599D01*
X119752849Y-127109601D01*
X119797653Y-127237646D01*
X119878206Y-127346789D01*
X119878208Y-127346791D01*
X119987351Y-127427344D01*
X120115397Y-127472148D01*
X120145788Y-127474998D01*
X120699997Y-127474998D01*
X120699999Y-127474997D01*
X120699999Y-125275000D01*
X120899999Y-125275000D01*
X120899999Y-127474997D01*
X120900000Y-127474998D01*
X121454202Y-127474998D01*
X121484599Y-127472148D01*
X121484601Y-127472148D01*
X121612646Y-127427344D01*
X121721789Y-127346791D01*
X121721791Y-127346789D01*
X121802344Y-127237646D01*
X121847148Y-127109600D01*
X121849998Y-127079210D01*
X121849999Y-127079209D01*
X121849999Y-125275000D01*
X121849998Y-125274999D01*
X120900000Y-125274999D01*
X120899999Y-125275000D01*
X120699999Y-125275000D01*
X120699998Y-125274999D01*
X119750001Y-125274999D01*
X119750000Y-125275000D01*
X119310499Y-125275000D01*
X119310499Y-123821534D01*
X119270129Y-123618579D01*
X119190940Y-123427401D01*
X119086295Y-123270787D01*
X119749999Y-123270787D01*
X119749999Y-125074998D01*
X119750000Y-125074999D01*
X120699998Y-125074999D01*
X120699999Y-125074998D01*
X120699999Y-124465841D01*
X120734173Y-124474999D01*
X120865825Y-124474999D01*
X120899999Y-124465841D01*
X120899999Y-125074998D01*
X120900000Y-125074999D01*
X121849997Y-125074999D01*
X121849998Y-125074998D01*
X121849998Y-123270795D01*
X121847148Y-123240398D01*
X121847148Y-123240396D01*
X121802344Y-123112351D01*
X121721791Y-123003208D01*
X121721789Y-123003206D01*
X121612646Y-122922653D01*
X121484600Y-122877849D01*
X121454210Y-122874999D01*
X120900000Y-122874999D01*
X120899999Y-122875000D01*
X120899999Y-123484156D01*
X120865825Y-123474999D01*
X120734173Y-123474999D01*
X120699999Y-123484156D01*
X120699999Y-122875000D01*
X120699998Y-122874999D01*
X120145795Y-122874999D01*
X120115398Y-122877849D01*
X120115396Y-122877849D01*
X119987351Y-122922653D01*
X119878208Y-123003206D01*
X119878206Y-123003208D01*
X119797653Y-123112351D01*
X119752849Y-123240397D01*
X119749999Y-123270787D01*
X119086295Y-123270787D01*
X119075976Y-123255344D01*
X118929654Y-123109022D01*
X118929650Y-123109019D01*
X118757596Y-122994057D01*
X118566417Y-122914868D01*
X118363466Y-122874499D01*
X118363464Y-122874499D01*
X118156534Y-122874499D01*
X118156531Y-122874499D01*
X117953580Y-122914868D01*
X117762401Y-122994057D01*
X117590347Y-123109019D01*
X117444019Y-123255347D01*
X117329057Y-123427401D01*
X117249868Y-123618580D01*
X117209499Y-123821531D01*
X117209499Y-126528466D01*
X117249868Y-126731417D01*
X117329057Y-126922596D01*
X117444019Y-127094650D01*
X117444022Y-127094654D01*
X117590344Y-127240976D01*
X117762401Y-127355940D01*
X117898384Y-127412266D01*
X117944910Y-127452002D01*
X117959499Y-127503730D01*
X117959499Y-128074522D01*
X117940592Y-128132713D01*
X117930503Y-128144526D01*
X116704525Y-129370504D01*
X116650008Y-129398281D01*
X116634521Y-129399500D01*
X85665479Y-129399500D01*
X85607288Y-129380593D01*
X85595475Y-129370504D01*
X82956385Y-126731414D01*
X80046502Y-123821531D01*
X89269499Y-123821531D01*
X89269499Y-126528466D01*
X89309868Y-126731417D01*
X89389057Y-126922596D01*
X89504019Y-127094650D01*
X89504022Y-127094654D01*
X89650344Y-127240976D01*
X89822401Y-127355940D01*
X90013579Y-127435129D01*
X90216534Y-127475499D01*
X90216535Y-127475499D01*
X90423463Y-127475499D01*
X90423464Y-127475499D01*
X90626419Y-127435129D01*
X90817597Y-127355940D01*
X90989654Y-127240976D01*
X91135976Y-127094654D01*
X91250940Y-126922597D01*
X91330129Y-126731419D01*
X91370499Y-126528464D01*
X91370499Y-123821534D01*
X91330129Y-123618579D01*
X91250940Y-123427401D01*
X91135976Y-123255344D01*
X90989654Y-123109022D01*
X90989650Y-123109019D01*
X90817596Y-122994057D01*
X90626417Y-122914868D01*
X90423466Y-122874499D01*
X90423464Y-122874499D01*
X90216534Y-122874499D01*
X90216531Y-122874499D01*
X90013580Y-122914868D01*
X89822401Y-122994057D01*
X89650347Y-123109019D01*
X89504019Y-123255347D01*
X89389057Y-123427401D01*
X89309868Y-123618580D01*
X89269499Y-123821531D01*
X80046502Y-123821531D01*
X75084511Y-118859540D01*
X75074808Y-118853938D01*
X75074806Y-118853936D01*
X75074806Y-118853937D01*
X75015989Y-118819979D01*
X75015988Y-118819978D01*
X75015987Y-118819978D01*
X74939564Y-118799500D01*
X74939562Y-118799500D01*
X69547083Y-118799500D01*
X69488892Y-118780593D01*
X69472264Y-118765331D01*
X69431128Y-118717857D01*
X69398182Y-118696684D01*
X69310057Y-118640049D01*
X69310054Y-118640047D01*
X69310053Y-118640047D01*
X69310050Y-118640046D01*
X69171964Y-118599500D01*
X69171961Y-118599500D01*
X69028039Y-118599500D01*
X69028035Y-118599500D01*
X68889949Y-118640046D01*
X68889942Y-118640049D01*
X68768873Y-118717855D01*
X68674622Y-118826628D01*
X68614834Y-118957543D01*
X68594353Y-119099997D01*
X68594353Y-119100002D01*
X68614834Y-119242456D01*
X68652105Y-119324066D01*
X68674623Y-119373373D01*
X68727736Y-119434669D01*
X68768873Y-119482144D01*
X68889942Y-119559950D01*
X68889947Y-119559953D01*
X68996403Y-119591211D01*
X69028035Y-119600499D01*
X69028036Y-119600499D01*
X69028039Y-119600500D01*
X69028041Y-119600500D01*
X69171959Y-119600500D01*
X69171961Y-119600500D01*
X69310053Y-119559953D01*
X69431128Y-119482143D01*
X69472264Y-119434668D01*
X69524660Y-119403073D01*
X69547083Y-119400500D01*
X74734521Y-119400500D01*
X74792712Y-119419407D01*
X74804525Y-119429496D01*
X85005525Y-129630496D01*
X85033302Y-129685013D01*
X85023731Y-129745445D01*
X84980466Y-129788710D01*
X84935521Y-129799500D01*
X83665479Y-129799500D01*
X83607288Y-129780593D01*
X83595475Y-129770504D01*
X79930546Y-126105575D01*
X79902769Y-126051058D01*
X79902558Y-126021482D01*
X79905647Y-126000000D01*
X79895773Y-125931327D01*
X79885165Y-125857543D01*
X79825377Y-125726628D01*
X79825377Y-125726627D01*
X79731128Y-125617857D01*
X79731127Y-125617856D01*
X79731126Y-125617855D01*
X79610057Y-125540049D01*
X79610054Y-125540047D01*
X79610053Y-125540047D01*
X79610050Y-125540046D01*
X79471964Y-125499500D01*
X79471961Y-125499500D01*
X79328039Y-125499500D01*
X79328035Y-125499500D01*
X79189949Y-125540046D01*
X79189942Y-125540049D01*
X79068873Y-125617855D01*
X78974622Y-125726628D01*
X78914834Y-125857543D01*
X78894353Y-125999997D01*
X78894353Y-126000002D01*
X78914834Y-126142456D01*
X78932897Y-126182007D01*
X78974623Y-126273373D01*
X79033157Y-126340925D01*
X79068873Y-126382144D01*
X79079182Y-126388769D01*
X79189947Y-126459953D01*
X79279572Y-126486269D01*
X79328035Y-126500499D01*
X79328036Y-126500499D01*
X79328039Y-126500500D01*
X79328041Y-126500500D01*
X79434521Y-126500500D01*
X79492712Y-126519407D01*
X79504525Y-126529496D01*
X83005525Y-130030496D01*
X83033302Y-130085013D01*
X83023731Y-130145445D01*
X82980466Y-130188710D01*
X82935521Y-130199500D01*
X80265479Y-130199500D01*
X80207288Y-130180593D01*
X80195475Y-130170504D01*
X75751598Y-125726627D01*
X71284511Y-121259540D01*
X71274808Y-121253938D01*
X71274806Y-121253936D01*
X71274806Y-121253937D01*
X71215989Y-121219979D01*
X71215988Y-121219978D01*
X71215987Y-121219978D01*
X71139564Y-121199500D01*
X71139562Y-121199500D01*
X67047083Y-121199500D01*
X66988892Y-121180593D01*
X66972264Y-121165331D01*
X66931128Y-121117857D01*
X66898182Y-121096684D01*
X66810057Y-121040049D01*
X66810054Y-121040047D01*
X66810053Y-121040047D01*
X66810050Y-121040046D01*
X66671964Y-120999500D01*
X66671961Y-120999500D01*
X66528039Y-120999500D01*
X66528035Y-120999500D01*
X66389949Y-121040046D01*
X66389942Y-121040049D01*
X66268873Y-121117855D01*
X66174622Y-121226628D01*
X66114834Y-121357543D01*
X66094353Y-121499997D01*
X66094353Y-121500002D01*
X66114834Y-121642456D01*
X66174622Y-121773371D01*
X66174623Y-121773373D01*
X66227736Y-121834669D01*
X66268873Y-121882144D01*
X66348721Y-121933459D01*
X66389947Y-121959953D01*
X66496403Y-121991211D01*
X66528035Y-122000499D01*
X66528036Y-122000499D01*
X66528039Y-122000500D01*
X66528041Y-122000500D01*
X66671959Y-122000500D01*
X66671961Y-122000500D01*
X66810053Y-121959953D01*
X66931128Y-121882143D01*
X66972264Y-121834668D01*
X67024660Y-121803073D01*
X67047083Y-121800500D01*
X70934521Y-121800500D01*
X70992712Y-121819407D01*
X71004525Y-121829496D01*
X79605525Y-130430496D01*
X79633302Y-130485013D01*
X79623731Y-130545445D01*
X79580466Y-130588710D01*
X79535521Y-130599500D01*
X75965479Y-130599500D01*
X75907288Y-130580593D01*
X75895475Y-130570504D01*
X75330546Y-130005575D01*
X75302769Y-129951058D01*
X75302558Y-129921482D01*
X75305647Y-129900000D01*
X75305062Y-129895934D01*
X75285165Y-129757543D01*
X75279640Y-129745445D01*
X75225377Y-129626627D01*
X75131128Y-129517857D01*
X75131127Y-129517856D01*
X75131126Y-129517855D01*
X75010057Y-129440049D01*
X75010054Y-129440047D01*
X75010053Y-129440047D01*
X75010050Y-129440046D01*
X74871964Y-129399500D01*
X74871961Y-129399500D01*
X74728039Y-129399500D01*
X74728035Y-129399500D01*
X74589949Y-129440046D01*
X74589942Y-129440049D01*
X74468873Y-129517855D01*
X74374622Y-129626628D01*
X74314834Y-129757543D01*
X74294353Y-129899997D01*
X74294353Y-129900002D01*
X74314834Y-130042456D01*
X74368455Y-130159868D01*
X74374623Y-130173373D01*
X74453501Y-130264404D01*
X74468873Y-130282144D01*
X74589942Y-130359950D01*
X74589947Y-130359953D01*
X74683169Y-130387325D01*
X74728035Y-130400499D01*
X74728036Y-130400499D01*
X74728039Y-130400500D01*
X74728041Y-130400500D01*
X74834521Y-130400500D01*
X74892712Y-130419407D01*
X74904525Y-130429496D01*
X75305525Y-130830496D01*
X75333302Y-130885013D01*
X75323731Y-130945445D01*
X75280466Y-130988710D01*
X75235521Y-130999500D01*
X73865479Y-130999500D01*
X73807288Y-130980593D01*
X73795475Y-130970504D01*
X65529496Y-122704525D01*
X65501719Y-122650008D01*
X65500500Y-122634521D01*
X65500500Y-117065478D01*
X65519407Y-117007287D01*
X65529490Y-116995480D01*
X67095474Y-115429495D01*
X67149991Y-115401719D01*
X67165478Y-115400500D01*
X67271959Y-115400500D01*
X67271961Y-115400500D01*
X67410053Y-115359953D01*
X67531128Y-115282143D01*
X67625377Y-115173373D01*
X67685165Y-115042457D01*
X67695506Y-114970534D01*
X67705647Y-114900002D01*
X67705647Y-114899997D01*
X67685165Y-114757543D01*
X67625377Y-114626628D01*
X67625377Y-114626627D01*
X67531128Y-114517857D01*
X67531127Y-114517856D01*
X67531126Y-114517855D01*
X67410057Y-114440049D01*
X67410054Y-114440047D01*
X67410053Y-114440047D01*
X67410050Y-114440046D01*
X67271964Y-114399500D01*
X67271961Y-114399500D01*
X67128039Y-114399500D01*
X67128035Y-114399500D01*
X66989949Y-114440046D01*
X66989942Y-114440049D01*
X66868873Y-114517855D01*
X66774622Y-114626628D01*
X66714834Y-114757543D01*
X66694353Y-114899997D01*
X66694353Y-114900003D01*
X66697441Y-114921482D01*
X66687007Y-114981771D01*
X66669453Y-115005574D01*
X65015489Y-116659540D01*
X65015488Y-116659539D01*
X64959539Y-116715489D01*
X64919980Y-116784007D01*
X64919978Y-116784011D01*
X64899500Y-116860435D01*
X500500Y-116860435D01*
X500500Y-110639996D01*
X6704417Y-110639996D01*
X6704417Y-110640003D01*
X6724698Y-110845929D01*
X6724699Y-110845934D01*
X6784768Y-111043954D01*
X6882316Y-111226452D01*
X7013585Y-111386404D01*
X7013590Y-111386410D01*
X7013595Y-111386414D01*
X7173547Y-111517683D01*
X7173548Y-111517683D01*
X7173550Y-111517685D01*
X7356046Y-111615232D01*
X7493997Y-111657078D01*
X7554065Y-111675300D01*
X7554070Y-111675301D01*
X7759997Y-111695583D01*
X7760000Y-111695583D01*
X7760003Y-111695583D01*
X7965929Y-111675301D01*
X7965934Y-111675300D01*
X8163954Y-111615232D01*
X8346450Y-111517685D01*
X8506410Y-111386410D01*
X8637685Y-111226450D01*
X8735232Y-111043954D01*
X8795300Y-110845934D01*
X8795301Y-110845929D01*
X8815583Y-110640003D01*
X8815583Y-110639996D01*
X16864417Y-110639996D01*
X16864417Y-110640003D01*
X16884698Y-110845929D01*
X16884699Y-110845934D01*
X16944768Y-111043954D01*
X17042316Y-111226452D01*
X17173585Y-111386404D01*
X17173590Y-111386410D01*
X17173595Y-111386414D01*
X17333547Y-111517683D01*
X17333548Y-111517683D01*
X17333550Y-111517685D01*
X17516046Y-111615232D01*
X17653997Y-111657078D01*
X17714065Y-111675300D01*
X17714070Y-111675301D01*
X17919997Y-111695583D01*
X17920000Y-111695583D01*
X17920003Y-111695583D01*
X18125929Y-111675301D01*
X18125934Y-111675300D01*
X18323954Y-111615232D01*
X18506450Y-111517685D01*
X18666410Y-111386410D01*
X18797685Y-111226450D01*
X18895232Y-111043954D01*
X18955300Y-110845934D01*
X18955301Y-110845929D01*
X18975583Y-110640003D01*
X18975583Y-110639996D01*
X18955301Y-110434070D01*
X18955300Y-110434065D01*
X18937078Y-110373997D01*
X18895232Y-110236046D01*
X18797685Y-110053550D01*
X18666410Y-109893590D01*
X18666404Y-109893585D01*
X18506452Y-109762316D01*
X18323954Y-109664768D01*
X18125934Y-109604699D01*
X18125929Y-109604698D01*
X17920003Y-109584417D01*
X17919997Y-109584417D01*
X17714070Y-109604698D01*
X17714065Y-109604699D01*
X17516045Y-109664768D01*
X17333547Y-109762316D01*
X17173595Y-109893585D01*
X17173585Y-109893595D01*
X17042316Y-110053547D01*
X16944768Y-110236045D01*
X16884699Y-110434065D01*
X16884698Y-110434070D01*
X16864417Y-110639996D01*
X8815583Y-110639996D01*
X8795301Y-110434070D01*
X8795300Y-110434065D01*
X8777078Y-110373997D01*
X8735232Y-110236046D01*
X8637685Y-110053550D01*
X8506410Y-109893590D01*
X8506404Y-109893585D01*
X8346452Y-109762316D01*
X8163954Y-109664768D01*
X7965934Y-109604699D01*
X7965929Y-109604698D01*
X7760003Y-109584417D01*
X7759997Y-109584417D01*
X7554070Y-109604698D01*
X7554065Y-109604699D01*
X7356045Y-109664768D01*
X7173547Y-109762316D01*
X7013595Y-109893585D01*
X7013585Y-109893595D01*
X6882316Y-110053547D01*
X6784768Y-110236045D01*
X6724699Y-110434065D01*
X6724698Y-110434070D01*
X6704417Y-110639996D01*
X500500Y-110639996D01*
X500500Y-108114996D01*
X23219417Y-108114996D01*
X23219417Y-108115003D01*
X23239698Y-108320929D01*
X23239699Y-108320934D01*
X23299768Y-108518954D01*
X23397316Y-108701452D01*
X23528585Y-108861404D01*
X23528590Y-108861410D01*
X23528595Y-108861414D01*
X23688547Y-108992683D01*
X23688548Y-108992683D01*
X23688550Y-108992685D01*
X23871046Y-109090232D01*
X24008997Y-109132078D01*
X24069065Y-109150300D01*
X24069070Y-109150301D01*
X24274997Y-109170583D01*
X24275000Y-109170583D01*
X24275003Y-109170583D01*
X24480929Y-109150301D01*
X24480934Y-109150300D01*
X24678954Y-109090232D01*
X24861450Y-108992685D01*
X25021410Y-108861410D01*
X25152685Y-108701450D01*
X25250232Y-108518954D01*
X25310300Y-108320934D01*
X25310301Y-108320929D01*
X25330583Y-108115003D01*
X25330583Y-108114996D01*
X25759417Y-108114996D01*
X25759417Y-108115003D01*
X25779698Y-108320929D01*
X25779699Y-108320934D01*
X25839768Y-108518954D01*
X25937316Y-108701452D01*
X26068585Y-108861404D01*
X26068590Y-108861410D01*
X26068595Y-108861414D01*
X26228547Y-108992683D01*
X26228548Y-108992683D01*
X26228550Y-108992685D01*
X26411046Y-109090232D01*
X26548997Y-109132078D01*
X26609065Y-109150300D01*
X26609070Y-109150301D01*
X26814998Y-109170583D01*
X26814998Y-109170582D01*
X26815000Y-109170583D01*
X26827503Y-109169351D01*
X26887266Y-109182461D01*
X26907213Y-109197870D01*
X29653457Y-111944114D01*
X29768189Y-112020775D01*
X29895672Y-112073580D01*
X30031006Y-112100500D01*
X30031007Y-112100500D01*
X81568835Y-112100500D01*
X81627026Y-112119407D01*
X81638839Y-112129496D01*
X92130501Y-122621157D01*
X92158278Y-122675674D01*
X92159497Y-122691161D01*
X92159497Y-123098858D01*
X92140590Y-123157049D01*
X92130501Y-123168861D01*
X92044019Y-123255343D01*
X91929055Y-123427400D01*
X91849866Y-123618579D01*
X91809497Y-123821530D01*
X91809497Y-126528465D01*
X91849866Y-126731416D01*
X91929055Y-126922595D01*
X92044016Y-127094647D01*
X92044020Y-127094653D01*
X92190342Y-127240975D01*
X92362399Y-127355939D01*
X92553577Y-127435128D01*
X92756532Y-127475498D01*
X92756533Y-127475498D01*
X92963461Y-127475498D01*
X92963462Y-127475498D01*
X93166417Y-127435128D01*
X93357595Y-127355939D01*
X93529652Y-127240975D01*
X93675974Y-127094653D01*
X93790938Y-126922596D01*
X93870127Y-126731418D01*
X93910497Y-126528463D01*
X93910497Y-125275000D01*
X94350000Y-125275000D01*
X94350000Y-127079202D01*
X94352849Y-127109599D01*
X94352849Y-127109601D01*
X94397653Y-127237646D01*
X94478206Y-127346789D01*
X94478208Y-127346791D01*
X94587351Y-127427344D01*
X94715397Y-127472148D01*
X94745788Y-127474998D01*
X95299997Y-127474998D01*
X95299999Y-127474997D01*
X95299999Y-125275000D01*
X95499999Y-125275000D01*
X95499999Y-127474997D01*
X95500000Y-127474998D01*
X96054202Y-127474998D01*
X96084599Y-127472148D01*
X96084601Y-127472148D01*
X96212646Y-127427344D01*
X96321789Y-127346791D01*
X96321791Y-127346789D01*
X96402344Y-127237646D01*
X96447148Y-127109600D01*
X96449998Y-127079210D01*
X96449999Y-127079209D01*
X96449999Y-125275000D01*
X96449998Y-125274999D01*
X95500000Y-125274999D01*
X95499999Y-125275000D01*
X95299999Y-125275000D01*
X95299998Y-125274999D01*
X94350001Y-125274999D01*
X94350000Y-125275000D01*
X93910497Y-125275000D01*
X93910497Y-123821533D01*
X93870127Y-123618578D01*
X93790938Y-123427400D01*
X93725482Y-123329437D01*
X93721503Y-123323482D01*
X93686293Y-123270787D01*
X94349999Y-123270787D01*
X94349999Y-125074998D01*
X94350000Y-125074999D01*
X95299998Y-125074999D01*
X95299999Y-125074998D01*
X95299999Y-124465841D01*
X95334173Y-124474999D01*
X95465825Y-124474999D01*
X95499999Y-124465841D01*
X95499999Y-125074998D01*
X95500000Y-125074999D01*
X96449997Y-125074999D01*
X96449998Y-125074998D01*
X96449998Y-123821531D01*
X96889499Y-123821531D01*
X96889499Y-126528466D01*
X96929868Y-126731417D01*
X97009057Y-126922596D01*
X97124019Y-127094650D01*
X97124022Y-127094654D01*
X97270344Y-127240976D01*
X97442401Y-127355940D01*
X97633579Y-127435129D01*
X97836534Y-127475499D01*
X97836535Y-127475499D01*
X98043463Y-127475499D01*
X98043464Y-127475499D01*
X98246419Y-127435129D01*
X98437597Y-127355940D01*
X98609654Y-127240976D01*
X98755976Y-127094654D01*
X98870940Y-126922597D01*
X98950129Y-126731419D01*
X98990499Y-126528464D01*
X98990499Y-123821534D01*
X98950129Y-123618579D01*
X98870940Y-123427401D01*
X98755976Y-123255344D01*
X98609654Y-123109022D01*
X98609650Y-123109019D01*
X98437596Y-122994057D01*
X98246417Y-122914868D01*
X98043466Y-122874499D01*
X98043464Y-122874499D01*
X97836534Y-122874499D01*
X97836531Y-122874499D01*
X97633580Y-122914868D01*
X97442401Y-122994057D01*
X97270347Y-123109019D01*
X97124019Y-123255347D01*
X97009057Y-123427401D01*
X96929868Y-123618580D01*
X96889499Y-123821531D01*
X96449998Y-123821531D01*
X96449998Y-123270795D01*
X96447148Y-123240398D01*
X96447148Y-123240396D01*
X96402344Y-123112351D01*
X96321791Y-123003208D01*
X96321789Y-123003206D01*
X96212646Y-122922653D01*
X96084600Y-122877849D01*
X96054210Y-122874999D01*
X95500000Y-122874999D01*
X95499999Y-122875000D01*
X95499999Y-123484156D01*
X95465825Y-123474999D01*
X95334173Y-123474999D01*
X95299999Y-123484156D01*
X95299999Y-122875000D01*
X95299998Y-122874999D01*
X94745795Y-122874999D01*
X94715398Y-122877849D01*
X94715396Y-122877849D01*
X94587351Y-122922653D01*
X94478208Y-123003206D01*
X94478206Y-123003208D01*
X94397653Y-123112351D01*
X94352849Y-123240397D01*
X94349999Y-123270787D01*
X93686293Y-123270787D01*
X93675974Y-123255343D01*
X93589493Y-123168861D01*
X93561716Y-123114344D01*
X93560497Y-123098858D01*
X93560497Y-122291005D01*
X93560496Y-122291001D01*
X93558192Y-122279417D01*
X93533577Y-122155669D01*
X93489059Y-122048193D01*
X93480774Y-122028190D01*
X93480768Y-122028179D01*
X93404111Y-121913455D01*
X88150195Y-116659539D01*
X82346543Y-110855886D01*
X82331641Y-110845929D01*
X82231808Y-110779223D01*
X82104328Y-110726420D01*
X81968996Y-110699500D01*
X81968994Y-110699500D01*
X81968993Y-110699500D01*
X30431165Y-110699500D01*
X30372974Y-110680593D01*
X30361161Y-110670504D01*
X27897870Y-108207213D01*
X27870093Y-108152696D01*
X27869351Y-108127502D01*
X27870583Y-108114998D01*
X27870583Y-108114997D01*
X27850301Y-107909070D01*
X27850300Y-107909065D01*
X27832078Y-107848997D01*
X27790232Y-107711046D01*
X27692685Y-107528550D01*
X27681960Y-107515482D01*
X27561414Y-107368595D01*
X27561410Y-107368590D01*
X27525072Y-107338768D01*
X27401452Y-107237316D01*
X27218954Y-107139768D01*
X27020934Y-107079699D01*
X27020929Y-107079698D01*
X26815003Y-107059417D01*
X26814997Y-107059417D01*
X26609070Y-107079698D01*
X26609065Y-107079699D01*
X26411045Y-107139768D01*
X26228547Y-107237316D01*
X26068595Y-107368585D01*
X26068585Y-107368595D01*
X25937316Y-107528547D01*
X25839768Y-107711045D01*
X25779699Y-107909065D01*
X25779698Y-107909070D01*
X25759417Y-108114996D01*
X25330583Y-108114996D01*
X25310301Y-107909070D01*
X25310300Y-107909065D01*
X25292078Y-107848997D01*
X25250232Y-107711046D01*
X25152685Y-107528550D01*
X25141960Y-107515482D01*
X25021414Y-107368595D01*
X25021410Y-107368590D01*
X24985072Y-107338768D01*
X24861452Y-107237316D01*
X24678954Y-107139768D01*
X24480934Y-107079699D01*
X24480929Y-107079698D01*
X24275003Y-107059417D01*
X24274997Y-107059417D01*
X24069070Y-107079698D01*
X24069065Y-107079699D01*
X23871045Y-107139768D01*
X23688547Y-107237316D01*
X23528595Y-107368585D01*
X23528585Y-107368595D01*
X23397316Y-107528547D01*
X23299768Y-107711045D01*
X23239699Y-107909065D01*
X23239698Y-107909070D01*
X23219417Y-108114996D01*
X500500Y-108114996D01*
X500500Y-105560000D01*
X12164518Y-105560000D01*
X12184421Y-105838288D01*
X12184421Y-105838291D01*
X12184422Y-105838294D01*
X12220036Y-106002007D01*
X12243730Y-106110927D01*
X12341231Y-106372338D01*
X12341232Y-106372340D01*
X12474944Y-106617213D01*
X12474943Y-106617213D01*
X12642140Y-106840562D01*
X12642142Y-106840564D01*
X12642145Y-106840568D01*
X12839432Y-107037855D01*
X12839435Y-107037857D01*
X12839437Y-107037859D01*
X13062786Y-107205056D01*
X13228418Y-107295498D01*
X13307663Y-107338769D01*
X13569072Y-107436269D01*
X13569077Y-107436271D01*
X13841706Y-107495578D01*
X14120000Y-107515482D01*
X14398294Y-107495578D01*
X14670923Y-107436271D01*
X14932337Y-107338769D01*
X15177213Y-107205056D01*
X15400568Y-107037855D01*
X15597855Y-106840568D01*
X15765056Y-106617213D01*
X15898769Y-106372337D01*
X15996271Y-106110923D01*
X16055578Y-105838294D01*
X16074409Y-105574996D01*
X23219417Y-105574996D01*
X23219417Y-105575003D01*
X23239698Y-105780929D01*
X23239699Y-105780934D01*
X23299768Y-105978954D01*
X23397316Y-106161452D01*
X23478869Y-106260825D01*
X23528590Y-106321410D01*
X23528595Y-106321414D01*
X23688547Y-106452683D01*
X23688548Y-106452683D01*
X23688550Y-106452685D01*
X23871046Y-106550232D01*
X24008997Y-106592078D01*
X24069065Y-106610300D01*
X24069070Y-106610301D01*
X24274997Y-106630583D01*
X24275000Y-106630583D01*
X24275003Y-106630583D01*
X24480929Y-106610301D01*
X24480934Y-106610300D01*
X24481966Y-106609987D01*
X24678954Y-106550232D01*
X24861450Y-106452685D01*
X25021410Y-106321410D01*
X25152685Y-106161450D01*
X25250232Y-105978954D01*
X25310300Y-105780934D01*
X25310301Y-105780929D01*
X25330583Y-105575003D01*
X25330583Y-105574996D01*
X25759417Y-105574996D01*
X25759417Y-105575003D01*
X25779698Y-105780929D01*
X25779699Y-105780934D01*
X25839768Y-105978954D01*
X25937316Y-106161452D01*
X26018869Y-106260825D01*
X26068590Y-106321410D01*
X26068595Y-106321414D01*
X26228547Y-106452683D01*
X26228548Y-106452683D01*
X26228550Y-106452685D01*
X26411046Y-106550232D01*
X26548997Y-106592078D01*
X26609065Y-106610300D01*
X26609070Y-106610301D01*
X26814997Y-106630583D01*
X26815000Y-106630583D01*
X26815003Y-106630583D01*
X27020929Y-106610301D01*
X27020934Y-106610300D01*
X27021966Y-106609987D01*
X27218954Y-106550232D01*
X27401450Y-106452685D01*
X27561410Y-106321410D01*
X27692685Y-106161450D01*
X27790232Y-105978954D01*
X27850300Y-105780934D01*
X27850301Y-105780929D01*
X27870583Y-105575003D01*
X27870583Y-105574996D01*
X27850301Y-105369070D01*
X27850300Y-105369065D01*
X27811894Y-105242457D01*
X27790232Y-105171046D01*
X27692685Y-104988550D01*
X27680372Y-104973547D01*
X27561414Y-104828595D01*
X27561410Y-104828590D01*
X27559018Y-104826627D01*
X27401452Y-104697316D01*
X27218954Y-104599768D01*
X27020934Y-104539699D01*
X27020929Y-104539698D01*
X26815003Y-104519417D01*
X26814997Y-104519417D01*
X26609070Y-104539698D01*
X26609065Y-104539699D01*
X26411045Y-104599768D01*
X26228547Y-104697316D01*
X26068595Y-104828585D01*
X26068585Y-104828595D01*
X25937316Y-104988547D01*
X25839768Y-105171045D01*
X25779699Y-105369065D01*
X25779698Y-105369070D01*
X25759417Y-105574996D01*
X25330583Y-105574996D01*
X25310301Y-105369070D01*
X25310300Y-105369065D01*
X25271894Y-105242457D01*
X25250232Y-105171046D01*
X25152685Y-104988550D01*
X25140372Y-104973547D01*
X25021414Y-104828595D01*
X25021410Y-104828590D01*
X25019018Y-104826627D01*
X24861452Y-104697316D01*
X24678954Y-104599768D01*
X24480934Y-104539699D01*
X24480929Y-104539698D01*
X24275003Y-104519417D01*
X24274997Y-104519417D01*
X24069070Y-104539698D01*
X24069065Y-104539699D01*
X23871045Y-104599768D01*
X23688547Y-104697316D01*
X23528595Y-104828585D01*
X23528585Y-104828595D01*
X23397316Y-104988547D01*
X23299768Y-105171045D01*
X23239699Y-105369065D01*
X23239698Y-105369070D01*
X23219417Y-105574996D01*
X16074409Y-105574996D01*
X16075482Y-105560000D01*
X16055578Y-105281706D01*
X15996271Y-105009077D01*
X15898769Y-104747663D01*
X15765056Y-104502787D01*
X15765055Y-104502786D01*
X15765056Y-104502786D01*
X15597859Y-104279437D01*
X15597857Y-104279435D01*
X15597855Y-104279432D01*
X15400568Y-104082145D01*
X15400564Y-104082142D01*
X15400562Y-104082140D01*
X15177213Y-103914943D01*
X14932340Y-103781232D01*
X14932338Y-103781231D01*
X14670926Y-103683730D01*
X14670928Y-103683730D01*
X14610082Y-103670493D01*
X14398294Y-103624422D01*
X14398291Y-103624421D01*
X14398288Y-103624421D01*
X14120000Y-103604518D01*
X13841711Y-103624421D01*
X13841706Y-103624421D01*
X13841706Y-103624422D01*
X13705391Y-103654075D01*
X13569072Y-103683730D01*
X13307661Y-103781231D01*
X13307659Y-103781232D01*
X13062786Y-103914943D01*
X12839437Y-104082140D01*
X12642140Y-104279437D01*
X12474943Y-104502786D01*
X12341232Y-104747659D01*
X12341231Y-104747661D01*
X12243730Y-105009072D01*
X12184421Y-105281711D01*
X12164518Y-105560000D01*
X500500Y-105560000D01*
X500500Y-102165253D01*
X23224500Y-102165253D01*
X23224500Y-103904746D01*
X23224501Y-103904758D01*
X23236132Y-103963227D01*
X23236134Y-103963233D01*
X23270422Y-104014548D01*
X23280448Y-104029552D01*
X23346769Y-104073867D01*
X23388360Y-104082140D01*
X23405241Y-104085498D01*
X23405246Y-104085498D01*
X23405252Y-104085500D01*
X23405253Y-104085500D01*
X25144747Y-104085500D01*
X25144748Y-104085500D01*
X25203231Y-104073867D01*
X25269552Y-104029552D01*
X25313867Y-103963231D01*
X25325500Y-103904748D01*
X25325500Y-103034996D01*
X25759417Y-103034996D01*
X25759417Y-103035003D01*
X25779698Y-103240929D01*
X25779699Y-103240934D01*
X25839768Y-103438954D01*
X25937316Y-103621452D01*
X26030913Y-103735500D01*
X26068590Y-103781410D01*
X26068595Y-103781414D01*
X26228547Y-103912683D01*
X26228548Y-103912683D01*
X26228550Y-103912685D01*
X26411046Y-104010232D01*
X26548997Y-104052078D01*
X26609065Y-104070300D01*
X26609070Y-104070301D01*
X26814997Y-104090583D01*
X26815000Y-104090583D01*
X26815003Y-104090583D01*
X27020929Y-104070301D01*
X27020934Y-104070300D01*
X27218954Y-104010232D01*
X27401450Y-103912685D01*
X27561410Y-103781410D01*
X27569384Y-103771693D01*
X27620915Y-103738707D01*
X27645911Y-103735500D01*
X29503835Y-103735500D01*
X29562026Y-103754407D01*
X29573839Y-103764496D01*
X34153457Y-108344114D01*
X34268189Y-108420775D01*
X34395672Y-108473580D01*
X34531006Y-108500500D01*
X34531007Y-108500500D01*
X44264944Y-108500500D01*
X44435056Y-108500500D01*
X85568835Y-108500500D01*
X85627026Y-108519407D01*
X85638839Y-108529496D01*
X99750506Y-122641163D01*
X99778283Y-122695680D01*
X99779502Y-122711167D01*
X99779502Y-123098859D01*
X99760595Y-123157050D01*
X99750506Y-123168862D01*
X99664024Y-123255344D01*
X99549060Y-123427401D01*
X99469871Y-123618580D01*
X99429502Y-123821531D01*
X99429502Y-126528466D01*
X99469871Y-126731417D01*
X99549060Y-126922596D01*
X99664022Y-127094650D01*
X99664025Y-127094654D01*
X99810347Y-127240976D01*
X99982404Y-127355940D01*
X100173582Y-127435129D01*
X100376537Y-127475499D01*
X100376538Y-127475499D01*
X100583466Y-127475499D01*
X100583467Y-127475499D01*
X100786422Y-127435129D01*
X100977600Y-127355940D01*
X101149657Y-127240976D01*
X101295979Y-127094654D01*
X101410943Y-126922597D01*
X101490132Y-126731419D01*
X101530502Y-126528464D01*
X101530502Y-123821534D01*
X101530501Y-123821531D01*
X101969499Y-123821531D01*
X101969499Y-126528466D01*
X102009868Y-126731417D01*
X102089057Y-126922596D01*
X102204019Y-127094650D01*
X102204022Y-127094654D01*
X102350344Y-127240976D01*
X102522401Y-127355940D01*
X102713579Y-127435129D01*
X102916534Y-127475499D01*
X102916535Y-127475499D01*
X103123463Y-127475499D01*
X103123464Y-127475499D01*
X103326419Y-127435129D01*
X103517597Y-127355940D01*
X103689654Y-127240976D01*
X103835976Y-127094654D01*
X103950940Y-126922597D01*
X104030129Y-126731419D01*
X104070499Y-126528464D01*
X104070499Y-123821534D01*
X104070498Y-123821531D01*
X104509499Y-123821531D01*
X104509499Y-126528466D01*
X104549868Y-126731417D01*
X104629057Y-126922596D01*
X104744019Y-127094650D01*
X104744022Y-127094654D01*
X104890344Y-127240976D01*
X105062401Y-127355940D01*
X105253579Y-127435129D01*
X105456534Y-127475499D01*
X105456535Y-127475499D01*
X105663463Y-127475499D01*
X105663464Y-127475499D01*
X105866419Y-127435129D01*
X106057597Y-127355940D01*
X106229654Y-127240976D01*
X106375976Y-127094654D01*
X106490940Y-126922597D01*
X106570129Y-126731419D01*
X106610499Y-126528464D01*
X106610499Y-123821534D01*
X106570129Y-123618579D01*
X106490940Y-123427401D01*
X106386252Y-123270723D01*
X107049499Y-123270723D01*
X107049499Y-127079272D01*
X107052352Y-127109692D01*
X107052354Y-127109701D01*
X107097206Y-127237881D01*
X107177844Y-127347142D01*
X107177846Y-127347144D01*
X107177849Y-127347148D01*
X107177852Y-127347150D01*
X107177854Y-127347152D01*
X107287115Y-127427790D01*
X107287116Y-127427790D01*
X107287117Y-127427791D01*
X107415300Y-127472644D01*
X107445724Y-127475497D01*
X107445726Y-127475498D01*
X107445733Y-127475498D01*
X108754272Y-127475498D01*
X108754272Y-127475497D01*
X108784698Y-127472644D01*
X108912881Y-127427791D01*
X109022149Y-127347148D01*
X109102792Y-127237880D01*
X109147645Y-127109697D01*
X109150498Y-127079271D01*
X109150499Y-127079271D01*
X109150499Y-123821531D01*
X109589499Y-123821531D01*
X109589499Y-126528466D01*
X109629868Y-126731417D01*
X109709057Y-126922596D01*
X109824019Y-127094650D01*
X109824022Y-127094654D01*
X109970344Y-127240976D01*
X110142401Y-127355940D01*
X110333579Y-127435129D01*
X110536534Y-127475499D01*
X110536535Y-127475499D01*
X110743463Y-127475499D01*
X110743464Y-127475499D01*
X110946419Y-127435129D01*
X111137597Y-127355940D01*
X111309654Y-127240976D01*
X111455976Y-127094654D01*
X111570940Y-126922597D01*
X111650129Y-126731419D01*
X111690499Y-126528464D01*
X111690499Y-123821534D01*
X111690498Y-123821531D01*
X112129499Y-123821531D01*
X112129499Y-126528466D01*
X112169868Y-126731417D01*
X112249057Y-126922596D01*
X112364019Y-127094650D01*
X112364022Y-127094654D01*
X112510344Y-127240976D01*
X112682401Y-127355940D01*
X112873579Y-127435129D01*
X113076534Y-127475499D01*
X113076535Y-127475499D01*
X113283463Y-127475499D01*
X113283464Y-127475499D01*
X113486419Y-127435129D01*
X113677597Y-127355940D01*
X113849654Y-127240976D01*
X113995976Y-127094654D01*
X114110940Y-126922597D01*
X114190129Y-126731419D01*
X114230499Y-126528464D01*
X114230499Y-123821534D01*
X114230498Y-123821531D01*
X114669501Y-123821531D01*
X114669501Y-126528466D01*
X114709870Y-126731417D01*
X114789059Y-126922596D01*
X114904021Y-127094650D01*
X114904024Y-127094654D01*
X115050346Y-127240976D01*
X115222403Y-127355940D01*
X115413581Y-127435129D01*
X115616536Y-127475499D01*
X115616537Y-127475499D01*
X115823465Y-127475499D01*
X115823466Y-127475499D01*
X116026421Y-127435129D01*
X116217599Y-127355940D01*
X116389656Y-127240976D01*
X116535978Y-127094654D01*
X116650942Y-126922597D01*
X116730131Y-126731419D01*
X116770501Y-126528464D01*
X116770501Y-123821534D01*
X116730131Y-123618579D01*
X116650942Y-123427401D01*
X116535978Y-123255344D01*
X116389656Y-123109022D01*
X116389652Y-123109019D01*
X116217598Y-122994057D01*
X116026419Y-122914868D01*
X115823468Y-122874499D01*
X115823466Y-122874499D01*
X115616536Y-122874499D01*
X115616533Y-122874499D01*
X115413582Y-122914868D01*
X115222403Y-122994057D01*
X115050349Y-123109019D01*
X114904021Y-123255347D01*
X114789059Y-123427401D01*
X114709870Y-123618580D01*
X114669501Y-123821531D01*
X114230498Y-123821531D01*
X114190129Y-123618579D01*
X114110940Y-123427401D01*
X113995976Y-123255344D01*
X113849654Y-123109022D01*
X113849650Y-123109019D01*
X113677596Y-122994057D01*
X113486417Y-122914868D01*
X113283466Y-122874499D01*
X113283464Y-122874499D01*
X113076534Y-122874499D01*
X113076531Y-122874499D01*
X112873580Y-122914868D01*
X112682401Y-122994057D01*
X112510347Y-123109019D01*
X112364019Y-123255347D01*
X112249057Y-123427401D01*
X112169868Y-123618580D01*
X112129499Y-123821531D01*
X111690498Y-123821531D01*
X111650129Y-123618579D01*
X111570940Y-123427401D01*
X111455976Y-123255344D01*
X111309654Y-123109022D01*
X111309650Y-123109019D01*
X111137596Y-122994057D01*
X110946417Y-122914868D01*
X110743466Y-122874499D01*
X110743464Y-122874499D01*
X110536534Y-122874499D01*
X110536531Y-122874499D01*
X110333580Y-122914868D01*
X110142401Y-122994057D01*
X109970347Y-123109019D01*
X109824019Y-123255347D01*
X109709057Y-123427401D01*
X109629868Y-123618580D01*
X109589499Y-123821531D01*
X109150499Y-123821531D01*
X109150499Y-123270725D01*
X109150498Y-123270723D01*
X109149056Y-123255343D01*
X109147645Y-123240299D01*
X109102792Y-123112116D01*
X109100506Y-123109019D01*
X109022153Y-123002853D01*
X109022151Y-123002851D01*
X109022149Y-123002848D01*
X109022145Y-123002845D01*
X109022143Y-123002843D01*
X108912882Y-122922205D01*
X108784702Y-122877353D01*
X108784693Y-122877351D01*
X108754273Y-122874498D01*
X108754265Y-122874498D01*
X107445733Y-122874498D01*
X107445724Y-122874498D01*
X107415304Y-122877351D01*
X107415295Y-122877353D01*
X107287115Y-122922205D01*
X107177854Y-123002843D01*
X107177844Y-123002853D01*
X107097206Y-123112114D01*
X107052354Y-123240294D01*
X107052352Y-123240303D01*
X107049499Y-123270723D01*
X106386252Y-123270723D01*
X106375976Y-123255344D01*
X106229654Y-123109022D01*
X106229650Y-123109019D01*
X106057596Y-122994057D01*
X105866417Y-122914868D01*
X105663466Y-122874499D01*
X105663464Y-122874499D01*
X105456534Y-122874499D01*
X105456531Y-122874499D01*
X105253580Y-122914868D01*
X105062401Y-122994057D01*
X104890347Y-123109019D01*
X104744019Y-123255347D01*
X104629057Y-123427401D01*
X104549868Y-123618580D01*
X104509499Y-123821531D01*
X104070498Y-123821531D01*
X104030129Y-123618579D01*
X103950940Y-123427401D01*
X103835976Y-123255344D01*
X103689654Y-123109022D01*
X103689650Y-123109019D01*
X103517596Y-122994057D01*
X103326417Y-122914868D01*
X103123466Y-122874499D01*
X103123464Y-122874499D01*
X102916534Y-122874499D01*
X102916531Y-122874499D01*
X102713580Y-122914868D01*
X102522401Y-122994057D01*
X102350347Y-123109019D01*
X102204019Y-123255347D01*
X102089057Y-123427401D01*
X102009868Y-123618580D01*
X101969499Y-123821531D01*
X101530501Y-123821531D01*
X101490132Y-123618579D01*
X101410943Y-123427401D01*
X101295979Y-123255344D01*
X101254651Y-123214016D01*
X101209498Y-123168862D01*
X101181721Y-123114345D01*
X101180502Y-123098859D01*
X101180502Y-122311011D01*
X101180501Y-122311006D01*
X101178252Y-122299699D01*
X101178251Y-122299696D01*
X101178224Y-122299560D01*
X101153582Y-122175674D01*
X101100777Y-122048191D01*
X101024116Y-121933459D01*
X86346543Y-107255886D01*
X86345410Y-107255129D01*
X86231808Y-107179223D01*
X86104328Y-107126420D01*
X85968996Y-107099500D01*
X85968994Y-107099500D01*
X85968993Y-107099500D01*
X34931165Y-107099500D01*
X34872974Y-107080593D01*
X34861161Y-107070504D01*
X33415797Y-105625140D01*
X33350653Y-105559996D01*
X38464417Y-105559996D01*
X38464417Y-105560003D01*
X38484698Y-105765929D01*
X38484699Y-105765934D01*
X38544768Y-105963954D01*
X38642316Y-106146452D01*
X38736180Y-106260826D01*
X38773590Y-106306410D01*
X38773595Y-106306414D01*
X38933547Y-106437683D01*
X38933548Y-106437683D01*
X38933550Y-106437685D01*
X39116046Y-106535232D01*
X39253997Y-106577078D01*
X39314065Y-106595300D01*
X39314070Y-106595301D01*
X39519997Y-106615583D01*
X39520000Y-106615583D01*
X39520003Y-106615583D01*
X39725929Y-106595301D01*
X39725934Y-106595300D01*
X39726600Y-106595098D01*
X39923954Y-106535232D01*
X40106450Y-106437685D01*
X40266410Y-106306410D01*
X40397685Y-106146450D01*
X40495232Y-105963954D01*
X40555300Y-105765934D01*
X40555301Y-105765929D01*
X40575583Y-105560003D01*
X40575583Y-105559996D01*
X41004417Y-105559996D01*
X41004417Y-105560003D01*
X41024698Y-105765929D01*
X41024699Y-105765934D01*
X41084768Y-105963954D01*
X41182316Y-106146452D01*
X41276180Y-106260826D01*
X41313590Y-106306410D01*
X41313595Y-106306414D01*
X41473547Y-106437683D01*
X41473548Y-106437683D01*
X41473550Y-106437685D01*
X41656046Y-106535232D01*
X41793997Y-106577078D01*
X41854065Y-106595300D01*
X41854070Y-106595301D01*
X42059997Y-106615583D01*
X42060000Y-106615583D01*
X42060003Y-106615583D01*
X42265929Y-106595301D01*
X42265934Y-106595300D01*
X42266600Y-106595098D01*
X42463954Y-106535232D01*
X42646450Y-106437685D01*
X42806410Y-106306410D01*
X42937685Y-106146450D01*
X43035232Y-105963954D01*
X43095300Y-105765934D01*
X43095301Y-105765929D01*
X43115583Y-105560003D01*
X43115583Y-105559996D01*
X43095301Y-105354070D01*
X43095300Y-105354065D01*
X43039782Y-105171046D01*
X43035232Y-105156046D01*
X42937685Y-104973550D01*
X42924548Y-104957543D01*
X42806414Y-104813595D01*
X42806410Y-104813590D01*
X42766203Y-104780593D01*
X42646452Y-104682316D01*
X42463954Y-104584768D01*
X42265934Y-104524699D01*
X42265929Y-104524698D01*
X42060003Y-104504417D01*
X42059997Y-104504417D01*
X41854070Y-104524698D01*
X41854065Y-104524699D01*
X41656045Y-104584768D01*
X41473547Y-104682316D01*
X41313595Y-104813585D01*
X41313585Y-104813595D01*
X41182316Y-104973547D01*
X41084768Y-105156045D01*
X41024699Y-105354065D01*
X41024698Y-105354070D01*
X41004417Y-105559996D01*
X40575583Y-105559996D01*
X40555301Y-105354070D01*
X40555300Y-105354065D01*
X40499782Y-105171046D01*
X40495232Y-105156046D01*
X40397685Y-104973550D01*
X40384548Y-104957543D01*
X40266414Y-104813595D01*
X40266410Y-104813590D01*
X40226203Y-104780593D01*
X40106452Y-104682316D01*
X39923954Y-104584768D01*
X39725934Y-104524699D01*
X39725929Y-104524698D01*
X39520003Y-104504417D01*
X39519997Y-104504417D01*
X39314070Y-104524698D01*
X39314065Y-104524699D01*
X39116045Y-104584768D01*
X38933547Y-104682316D01*
X38773595Y-104813585D01*
X38773585Y-104813595D01*
X38642316Y-104973547D01*
X38544768Y-105156045D01*
X38484699Y-105354065D01*
X38484698Y-105354070D01*
X38464417Y-105559996D01*
X33350653Y-105559996D01*
X31849522Y-104058865D01*
X30281543Y-102490886D01*
X30218182Y-102448550D01*
X30166808Y-102414223D01*
X30039328Y-102361420D01*
X29903996Y-102334500D01*
X29903994Y-102334500D01*
X29903993Y-102334500D01*
X27645911Y-102334500D01*
X27587720Y-102315593D01*
X27580702Y-102309991D01*
X27574562Y-102304616D01*
X27561410Y-102288590D01*
X27411123Y-102165253D01*
X27401452Y-102157316D01*
X27388238Y-102150253D01*
X38469500Y-102150253D01*
X38469500Y-103889746D01*
X38469501Y-103889758D01*
X38481132Y-103948227D01*
X38481134Y-103948233D01*
X38522561Y-104010232D01*
X38525448Y-104014552D01*
X38591769Y-104058867D01*
X38636231Y-104067711D01*
X38650241Y-104070498D01*
X38650246Y-104070498D01*
X38650252Y-104070500D01*
X38650253Y-104070500D01*
X40389747Y-104070500D01*
X40389748Y-104070500D01*
X40448231Y-104058867D01*
X40514552Y-104014552D01*
X40558867Y-103948231D01*
X40570500Y-103889748D01*
X40570500Y-103019996D01*
X41004417Y-103019996D01*
X41004417Y-103020003D01*
X41024698Y-103225929D01*
X41024699Y-103225934D01*
X41084768Y-103423954D01*
X41182316Y-103606452D01*
X41288223Y-103735500D01*
X41313590Y-103766410D01*
X41313595Y-103766414D01*
X41473547Y-103897683D01*
X41473548Y-103897683D01*
X41473550Y-103897685D01*
X41656046Y-103995232D01*
X41769192Y-104029554D01*
X41854065Y-104055300D01*
X41854070Y-104055301D01*
X42059997Y-104075583D01*
X42060000Y-104075583D01*
X42060003Y-104075583D01*
X42265929Y-104055301D01*
X42265934Y-104055300D01*
X42463954Y-103995232D01*
X42646450Y-103897685D01*
X42806410Y-103766410D01*
X42937685Y-103606450D01*
X43035232Y-103423954D01*
X43095300Y-103225934D01*
X43095301Y-103225929D01*
X43115583Y-103020003D01*
X43115583Y-103019997D01*
X58574353Y-103019997D01*
X58574353Y-103020002D01*
X58594834Y-103162456D01*
X58639170Y-103259536D01*
X58654623Y-103293373D01*
X58748872Y-103402143D01*
X58748873Y-103402144D01*
X58806151Y-103438954D01*
X58869947Y-103479953D01*
X58976403Y-103511211D01*
X59008035Y-103520499D01*
X59008036Y-103520499D01*
X59008039Y-103520500D01*
X59008041Y-103520500D01*
X59114521Y-103520500D01*
X59172712Y-103539407D01*
X59184525Y-103549496D01*
X60919540Y-105284511D01*
X60919539Y-105284511D01*
X60975489Y-105340460D01*
X61044007Y-105380019D01*
X61044011Y-105380021D01*
X61120435Y-105400499D01*
X61120437Y-105400500D01*
X61120438Y-105400500D01*
X61199562Y-105400500D01*
X80352917Y-105400500D01*
X80411108Y-105419407D01*
X80427733Y-105434667D01*
X80468872Y-105482143D01*
X80589947Y-105559953D01*
X80696403Y-105591211D01*
X80728035Y-105600499D01*
X80728036Y-105600499D01*
X80728039Y-105600500D01*
X80728041Y-105600500D01*
X80871959Y-105600500D01*
X80871961Y-105600500D01*
X81010053Y-105559953D01*
X81131128Y-105482143D01*
X81225377Y-105373373D01*
X81285165Y-105242457D01*
X81305647Y-105100000D01*
X81304928Y-105095001D01*
X81285165Y-104957543D01*
X81256601Y-104894998D01*
X81225377Y-104826627D01*
X81131128Y-104717857D01*
X81131127Y-104717856D01*
X81131126Y-104717855D01*
X81010057Y-104640049D01*
X81010054Y-104640047D01*
X81010053Y-104640047D01*
X81010050Y-104640046D01*
X80871964Y-104599500D01*
X80871961Y-104599500D01*
X80728039Y-104599500D01*
X80728035Y-104599500D01*
X80589949Y-104640046D01*
X80589942Y-104640049D01*
X80468876Y-104717854D01*
X80468875Y-104717855D01*
X80468872Y-104717857D01*
X80443049Y-104747659D01*
X80427736Y-104765331D01*
X80375340Y-104796927D01*
X80352917Y-104799500D01*
X61325479Y-104799500D01*
X61267288Y-104780593D01*
X61255475Y-104770504D01*
X60436251Y-103951280D01*
X60960845Y-103951280D01*
X60960845Y-103951285D01*
X60979280Y-104079508D01*
X60982016Y-104085498D01*
X61033096Y-104197346D01*
X61104223Y-104279432D01*
X61117930Y-104295251D01*
X61216393Y-104358529D01*
X61226909Y-104365287D01*
X61351206Y-104401783D01*
X61351208Y-104401783D01*
X61480748Y-104401783D01*
X61480750Y-104401783D01*
X61605047Y-104365287D01*
X61615562Y-104358528D01*
X61674736Y-104342972D01*
X61731754Y-104365169D01*
X61743908Y-104376981D01*
X61801951Y-104443967D01*
X61910931Y-104514004D01*
X62035228Y-104550500D01*
X62035230Y-104550500D01*
X62164770Y-104550500D01*
X62164772Y-104550500D01*
X62289069Y-104514004D01*
X62398049Y-104443967D01*
X62406105Y-104434670D01*
X62458500Y-104403073D01*
X62480925Y-104400500D01*
X85134521Y-104400500D01*
X85192712Y-104419407D01*
X85204525Y-104429496D01*
X88959540Y-108184511D01*
X88959539Y-108184511D01*
X89015489Y-108240460D01*
X89084007Y-108280019D01*
X89084011Y-108280021D01*
X89160435Y-108300499D01*
X89160437Y-108300500D01*
X89160438Y-108300500D01*
X92439563Y-108300500D01*
X92439563Y-108300499D01*
X92515989Y-108280021D01*
X92584511Y-108240460D01*
X92617758Y-108207213D01*
X92640461Y-108184511D01*
X92915906Y-107909065D01*
X93100458Y-107724513D01*
X93114899Y-107699500D01*
X93140019Y-107655991D01*
X93160498Y-107579564D01*
X93160498Y-107323730D01*
X93179405Y-107265539D01*
X93221612Y-107232266D01*
X93357596Y-107175940D01*
X93529653Y-107060976D01*
X93675975Y-106914654D01*
X93790939Y-106742597D01*
X93870128Y-106551419D01*
X93910498Y-106348464D01*
X93910498Y-105095001D01*
X94350001Y-105095001D01*
X94350001Y-106899203D01*
X94352850Y-106929600D01*
X94352850Y-106929602D01*
X94397654Y-107057647D01*
X94478207Y-107166790D01*
X94478209Y-107166792D01*
X94587352Y-107247345D01*
X94715398Y-107292149D01*
X94745789Y-107294999D01*
X95299998Y-107294999D01*
X95300000Y-107294998D01*
X95300000Y-106685842D01*
X95334174Y-106695000D01*
X95465826Y-106695000D01*
X95500000Y-106685842D01*
X95500000Y-107294998D01*
X95500001Y-107294999D01*
X96054203Y-107294999D01*
X96084600Y-107292149D01*
X96084602Y-107292149D01*
X96212647Y-107247345D01*
X96321790Y-107166792D01*
X96321792Y-107166790D01*
X96402345Y-107057647D01*
X96447149Y-106929601D01*
X96449999Y-106899211D01*
X96450000Y-106899210D01*
X96450000Y-105095001D01*
X96449999Y-105095000D01*
X95500001Y-105095000D01*
X95500000Y-105095001D01*
X95500000Y-105704157D01*
X95465826Y-105695000D01*
X95334174Y-105695000D01*
X95300000Y-105704157D01*
X95300000Y-105095001D01*
X95299999Y-105095000D01*
X94350002Y-105095000D01*
X94350001Y-105095001D01*
X93910498Y-105095001D01*
X93910498Y-103641534D01*
X93870128Y-103438579D01*
X93790939Y-103247401D01*
X93686294Y-103090788D01*
X94350000Y-103090788D01*
X94350000Y-104894999D01*
X94350001Y-104895000D01*
X95299999Y-104895000D01*
X95300000Y-104894999D01*
X95300000Y-102695001D01*
X95500000Y-102695001D01*
X95500000Y-104894999D01*
X95500001Y-104895000D01*
X96449998Y-104895000D01*
X96449999Y-104894999D01*
X96449999Y-103641532D01*
X96889500Y-103641532D01*
X96889500Y-106348467D01*
X96929869Y-106551418D01*
X97009058Y-106742597D01*
X97124020Y-106914651D01*
X97124023Y-106914655D01*
X97270345Y-107060977D01*
X97442402Y-107175941D01*
X97633580Y-107255130D01*
X97836535Y-107295500D01*
X97836536Y-107295500D01*
X98043464Y-107295500D01*
X98043465Y-107295500D01*
X98246420Y-107255130D01*
X98437598Y-107175941D01*
X98609655Y-107060977D01*
X98755977Y-106914655D01*
X98870941Y-106742598D01*
X98950130Y-106551420D01*
X98990500Y-106348465D01*
X98990500Y-103641535D01*
X98990499Y-103641532D01*
X99429503Y-103641532D01*
X99429503Y-106348467D01*
X99469872Y-106551418D01*
X99549061Y-106742597D01*
X99664023Y-106914651D01*
X99664026Y-106914655D01*
X99810348Y-107060977D01*
X99982405Y-107175941D01*
X100173583Y-107255130D01*
X100376538Y-107295500D01*
X100376539Y-107295500D01*
X100583467Y-107295500D01*
X100583468Y-107295500D01*
X100786423Y-107255130D01*
X100977601Y-107175941D01*
X101149658Y-107060977D01*
X101295980Y-106914655D01*
X101410944Y-106742598D01*
X101490133Y-106551420D01*
X101530503Y-106348465D01*
X101530503Y-103641535D01*
X101530502Y-103641532D01*
X101969500Y-103641532D01*
X101969500Y-106348467D01*
X102009869Y-106551418D01*
X102089058Y-106742597D01*
X102204020Y-106914651D01*
X102204023Y-106914655D01*
X102350345Y-107060977D01*
X102522402Y-107175941D01*
X102713580Y-107255130D01*
X102916535Y-107295500D01*
X102916536Y-107295500D01*
X103123464Y-107295500D01*
X103123465Y-107295500D01*
X103326420Y-107255130D01*
X103517598Y-107175941D01*
X103689655Y-107060977D01*
X103835977Y-106914655D01*
X103950941Y-106742598D01*
X104030130Y-106551420D01*
X104070500Y-106348465D01*
X104070500Y-103641535D01*
X104070499Y-103641532D01*
X104509500Y-103641532D01*
X104509500Y-106348467D01*
X104549869Y-106551418D01*
X104629058Y-106742597D01*
X104744020Y-106914651D01*
X104744023Y-106914655D01*
X104890345Y-107060977D01*
X105062402Y-107175941D01*
X105253580Y-107255130D01*
X105456535Y-107295500D01*
X105456536Y-107295500D01*
X105663464Y-107295500D01*
X105663465Y-107295500D01*
X105866420Y-107255130D01*
X106057598Y-107175941D01*
X106229655Y-107060977D01*
X106375977Y-106914655D01*
X106490941Y-106742598D01*
X106570130Y-106551420D01*
X106610500Y-106348465D01*
X106610500Y-105095000D01*
X107050001Y-105095000D01*
X107050001Y-106899202D01*
X107052850Y-106929599D01*
X107052850Y-106929601D01*
X107097654Y-107057646D01*
X107178207Y-107166789D01*
X107178209Y-107166791D01*
X107287352Y-107247344D01*
X107415398Y-107292148D01*
X107445789Y-107294998D01*
X107999998Y-107294998D01*
X108000000Y-107294997D01*
X108000000Y-106685841D01*
X108034174Y-106694999D01*
X108165826Y-106694999D01*
X108200000Y-106685841D01*
X108200000Y-107294997D01*
X108200001Y-107294998D01*
X108754203Y-107294998D01*
X108784600Y-107292148D01*
X108784602Y-107292148D01*
X108912647Y-107247344D01*
X109021790Y-107166791D01*
X109021792Y-107166789D01*
X109102345Y-107057646D01*
X109147149Y-106929600D01*
X109149999Y-106899210D01*
X109150000Y-106899209D01*
X109150000Y-105095000D01*
X109149999Y-105094999D01*
X108200001Y-105094999D01*
X108200000Y-105095000D01*
X108200000Y-105704156D01*
X108165826Y-105694999D01*
X108034174Y-105694999D01*
X108000000Y-105704156D01*
X108000000Y-105095000D01*
X107999999Y-105094999D01*
X107050002Y-105094999D01*
X107050001Y-105095000D01*
X106610500Y-105095000D01*
X106610500Y-103641535D01*
X106570130Y-103438580D01*
X106490941Y-103247402D01*
X106386295Y-103090787D01*
X107050000Y-103090787D01*
X107050000Y-104894998D01*
X107050001Y-104894999D01*
X107999999Y-104894999D01*
X108000000Y-104894998D01*
X108000000Y-102695000D01*
X108200000Y-102695000D01*
X108200000Y-104894998D01*
X108200001Y-104894999D01*
X109149998Y-104894999D01*
X109149999Y-104894998D01*
X109149999Y-103641532D01*
X109589500Y-103641532D01*
X109589500Y-106348467D01*
X109629869Y-106551418D01*
X109709058Y-106742597D01*
X109824020Y-106914651D01*
X109824023Y-106914655D01*
X109970345Y-107060977D01*
X110142402Y-107175941D01*
X110333580Y-107255130D01*
X110536535Y-107295500D01*
X110536536Y-107295500D01*
X110743464Y-107295500D01*
X110743465Y-107295500D01*
X110946420Y-107255130D01*
X111137598Y-107175941D01*
X111309655Y-107060977D01*
X111455977Y-106914655D01*
X111570941Y-106742598D01*
X111650130Y-106551420D01*
X111690500Y-106348465D01*
X111690500Y-103641535D01*
X111690499Y-103641532D01*
X112129500Y-103641532D01*
X112129500Y-106348467D01*
X112169869Y-106551418D01*
X112249058Y-106742597D01*
X112364020Y-106914651D01*
X112364023Y-106914655D01*
X112510345Y-107060977D01*
X112682402Y-107175941D01*
X112873580Y-107255130D01*
X113076535Y-107295500D01*
X113076536Y-107295500D01*
X113283464Y-107295500D01*
X113283465Y-107295500D01*
X113486420Y-107255130D01*
X113677598Y-107175941D01*
X113849655Y-107060977D01*
X113995977Y-106914655D01*
X114110941Y-106742598D01*
X114190130Y-106551420D01*
X114230500Y-106348465D01*
X114230500Y-103641535D01*
X114230499Y-103641532D01*
X114669502Y-103641532D01*
X114669502Y-106348467D01*
X114709871Y-106551418D01*
X114789060Y-106742597D01*
X114904022Y-106914651D01*
X114904025Y-106914655D01*
X115050347Y-107060977D01*
X115222404Y-107175941D01*
X115413582Y-107255130D01*
X115616537Y-107295500D01*
X115616538Y-107295500D01*
X115823466Y-107295500D01*
X115823467Y-107295500D01*
X116026422Y-107255130D01*
X116217600Y-107175941D01*
X116389657Y-107060977D01*
X116535979Y-106914655D01*
X116650943Y-106742598D01*
X116730132Y-106551420D01*
X116770502Y-106348465D01*
X116770502Y-103641535D01*
X116770501Y-103641532D01*
X117209500Y-103641532D01*
X117209500Y-106348467D01*
X117249869Y-106551418D01*
X117329058Y-106742597D01*
X117444020Y-106914651D01*
X117444023Y-106914655D01*
X117590345Y-107060977D01*
X117762402Y-107175941D01*
X117953580Y-107255130D01*
X118156535Y-107295500D01*
X118156536Y-107295500D01*
X118363464Y-107295500D01*
X118363465Y-107295500D01*
X118566420Y-107255130D01*
X118757598Y-107175941D01*
X118929655Y-107060977D01*
X119075977Y-106914655D01*
X119190941Y-106742598D01*
X119270130Y-106551420D01*
X119310500Y-106348465D01*
X119310500Y-105095001D01*
X119750001Y-105095001D01*
X119750001Y-106899203D01*
X119752850Y-106929600D01*
X119752850Y-106929602D01*
X119797654Y-107057647D01*
X119878207Y-107166790D01*
X119878209Y-107166792D01*
X119987352Y-107247345D01*
X120115398Y-107292149D01*
X120145789Y-107294999D01*
X120699998Y-107294999D01*
X120700000Y-107294998D01*
X120700000Y-106685842D01*
X120734174Y-106695000D01*
X120865826Y-106695000D01*
X120900000Y-106685842D01*
X120900000Y-107294998D01*
X120900001Y-107294999D01*
X121454203Y-107294999D01*
X121484600Y-107292149D01*
X121484602Y-107292149D01*
X121612647Y-107247345D01*
X121721790Y-107166792D01*
X121721792Y-107166790D01*
X121802345Y-107057647D01*
X121847149Y-106929601D01*
X121849999Y-106899211D01*
X121850000Y-106899210D01*
X121850000Y-105095001D01*
X121849999Y-105095000D01*
X120900001Y-105095000D01*
X120900000Y-105095001D01*
X120900000Y-105704157D01*
X120865826Y-105695000D01*
X120734174Y-105695000D01*
X120700000Y-105704157D01*
X120700000Y-105095001D01*
X120699999Y-105095000D01*
X119750002Y-105095000D01*
X119750001Y-105095001D01*
X119310500Y-105095001D01*
X119310500Y-103641535D01*
X119270130Y-103438580D01*
X119190941Y-103247402D01*
X119086296Y-103090788D01*
X119750000Y-103090788D01*
X119750000Y-104894999D01*
X119750001Y-104895000D01*
X120699999Y-104895000D01*
X120700000Y-104894999D01*
X120700000Y-102695001D01*
X120900000Y-102695001D01*
X120900000Y-104894999D01*
X120900001Y-104895000D01*
X121849998Y-104895000D01*
X121849999Y-104894999D01*
X121849999Y-103641532D01*
X122289500Y-103641532D01*
X122289500Y-106348467D01*
X122329869Y-106551418D01*
X122409058Y-106742597D01*
X122524020Y-106914651D01*
X122524023Y-106914655D01*
X122670345Y-107060977D01*
X122842402Y-107175941D01*
X123033580Y-107255130D01*
X123236535Y-107295500D01*
X123236536Y-107295500D01*
X123443464Y-107295500D01*
X123443465Y-107295500D01*
X123646420Y-107255130D01*
X123837598Y-107175941D01*
X124009655Y-107060977D01*
X124155977Y-106914655D01*
X124270941Y-106742598D01*
X124350130Y-106551420D01*
X124390500Y-106348465D01*
X124390500Y-103641535D01*
X124390499Y-103641532D01*
X124829501Y-103641532D01*
X124829501Y-106348467D01*
X124869870Y-106551418D01*
X124949059Y-106742597D01*
X125064021Y-106914651D01*
X125064024Y-106914655D01*
X125210346Y-107060977D01*
X125382403Y-107175941D01*
X125573581Y-107255130D01*
X125776536Y-107295500D01*
X125776537Y-107295500D01*
X125983465Y-107295500D01*
X125983466Y-107295500D01*
X126186421Y-107255130D01*
X126377599Y-107175941D01*
X126549656Y-107060977D01*
X126695978Y-106914655D01*
X126810942Y-106742598D01*
X126890131Y-106551420D01*
X126930501Y-106348465D01*
X126930501Y-103641535D01*
X126930500Y-103641532D01*
X126930499Y-103641529D01*
X127369501Y-103641529D01*
X127369501Y-106348464D01*
X127409870Y-106551415D01*
X127489059Y-106742594D01*
X127604021Y-106914648D01*
X127604024Y-106914652D01*
X127750346Y-107060974D01*
X127922403Y-107175938D01*
X128113581Y-107255127D01*
X128316536Y-107295497D01*
X128316537Y-107295497D01*
X128523465Y-107295497D01*
X128523466Y-107295497D01*
X128726421Y-107255127D01*
X128917599Y-107175938D01*
X129089656Y-107060974D01*
X129235978Y-106914652D01*
X129350942Y-106742595D01*
X129430131Y-106551417D01*
X129470501Y-106348462D01*
X129470501Y-103641532D01*
X129909500Y-103641532D01*
X129909500Y-106348467D01*
X129949869Y-106551418D01*
X130029058Y-106742597D01*
X130144020Y-106914651D01*
X130144023Y-106914655D01*
X130290345Y-107060977D01*
X130462402Y-107175941D01*
X130653580Y-107255130D01*
X130856535Y-107295500D01*
X130856536Y-107295500D01*
X131063464Y-107295500D01*
X131063465Y-107295500D01*
X131266420Y-107255130D01*
X131457598Y-107175941D01*
X131629655Y-107060977D01*
X131775977Y-106914655D01*
X131890941Y-106742598D01*
X131970130Y-106551420D01*
X132010500Y-106348465D01*
X132010500Y-105095001D01*
X132450001Y-105095001D01*
X132450001Y-106899203D01*
X132452850Y-106929600D01*
X132452850Y-106929602D01*
X132497654Y-107057647D01*
X132578207Y-107166790D01*
X132578209Y-107166792D01*
X132687352Y-107247345D01*
X132815398Y-107292149D01*
X132845789Y-107294999D01*
X133399998Y-107294999D01*
X133400000Y-107294998D01*
X133400000Y-106685842D01*
X133434174Y-106695000D01*
X133565826Y-106695000D01*
X133600000Y-106685842D01*
X133600000Y-107294998D01*
X133600001Y-107294999D01*
X134154203Y-107294999D01*
X134184600Y-107292149D01*
X134184602Y-107292149D01*
X134312647Y-107247345D01*
X134421790Y-107166792D01*
X134421792Y-107166790D01*
X134502345Y-107057647D01*
X134547149Y-106929601D01*
X134549999Y-106899211D01*
X134550000Y-106899210D01*
X134550000Y-105095001D01*
X134549999Y-105095000D01*
X133600001Y-105095000D01*
X133600000Y-105095001D01*
X133600000Y-105704157D01*
X133565826Y-105695000D01*
X133434174Y-105695000D01*
X133400000Y-105704157D01*
X133400000Y-105095001D01*
X133399999Y-105095000D01*
X132450002Y-105095000D01*
X132450001Y-105095001D01*
X132010500Y-105095001D01*
X132010500Y-103641535D01*
X131970130Y-103438580D01*
X131890941Y-103247402D01*
X131786296Y-103090788D01*
X132450000Y-103090788D01*
X132450000Y-104894999D01*
X132450001Y-104895000D01*
X133399999Y-104895000D01*
X133400000Y-104894999D01*
X133400000Y-102695001D01*
X133600000Y-102695001D01*
X133600000Y-104894999D01*
X133600001Y-104895000D01*
X134549998Y-104895000D01*
X134549999Y-104894999D01*
X134549999Y-103641531D01*
X134989496Y-103641531D01*
X134989496Y-106348466D01*
X135029865Y-106551417D01*
X135109054Y-106742596D01*
X135213700Y-106899211D01*
X135224019Y-106914654D01*
X135370341Y-107060976D01*
X135542398Y-107175940D01*
X135733576Y-107255129D01*
X135936531Y-107295499D01*
X135936532Y-107295499D01*
X136143460Y-107295499D01*
X136143461Y-107295499D01*
X136346416Y-107255129D01*
X136537594Y-107175940D01*
X136709651Y-107060976D01*
X136855973Y-106914654D01*
X136970937Y-106742597D01*
X137050126Y-106551419D01*
X137090496Y-106348464D01*
X137090496Y-103641534D01*
X137050126Y-103438579D01*
X136970937Y-103247401D01*
X136855973Y-103075344D01*
X136709651Y-102929022D01*
X136632607Y-102877543D01*
X136537593Y-102814057D01*
X136346414Y-102734868D01*
X136143463Y-102694499D01*
X136143461Y-102694499D01*
X135936531Y-102694499D01*
X135936528Y-102694499D01*
X135733577Y-102734868D01*
X135542398Y-102814057D01*
X135370344Y-102929019D01*
X135224016Y-103075347D01*
X135109054Y-103247401D01*
X135029865Y-103438580D01*
X134989496Y-103641531D01*
X134549999Y-103641531D01*
X134549999Y-103090796D01*
X134547149Y-103060399D01*
X134547149Y-103060397D01*
X134502345Y-102932352D01*
X134421792Y-102823209D01*
X134421790Y-102823207D01*
X134312647Y-102742654D01*
X134184601Y-102697850D01*
X134154211Y-102695000D01*
X133600001Y-102695000D01*
X133600000Y-102695001D01*
X133400000Y-102695001D01*
X133399999Y-102695000D01*
X132845796Y-102695000D01*
X132815399Y-102697850D01*
X132815397Y-102697850D01*
X132687352Y-102742654D01*
X132578209Y-102823207D01*
X132578207Y-102823209D01*
X132497654Y-102932352D01*
X132452850Y-103060398D01*
X132450000Y-103090788D01*
X131786296Y-103090788D01*
X131775977Y-103075345D01*
X131629655Y-102929023D01*
X131629651Y-102929020D01*
X131457597Y-102814058D01*
X131266418Y-102734869D01*
X131063467Y-102694500D01*
X131063465Y-102694500D01*
X130856535Y-102694500D01*
X130856532Y-102694500D01*
X130653581Y-102734869D01*
X130462402Y-102814058D01*
X130290348Y-102929020D01*
X130144020Y-103075348D01*
X130029058Y-103247402D01*
X129949869Y-103438581D01*
X129909500Y-103641532D01*
X129470501Y-103641532D01*
X129430131Y-103438577D01*
X129350942Y-103247399D01*
X129235978Y-103075342D01*
X129089656Y-102929020D01*
X129012615Y-102877543D01*
X128917598Y-102814055D01*
X128726419Y-102734866D01*
X128523468Y-102694497D01*
X128523466Y-102694497D01*
X128316536Y-102694497D01*
X128316533Y-102694497D01*
X128113582Y-102734866D01*
X127922403Y-102814055D01*
X127750349Y-102929017D01*
X127604021Y-103075345D01*
X127489059Y-103247399D01*
X127409870Y-103438578D01*
X127369501Y-103641529D01*
X126930499Y-103641529D01*
X126902261Y-103499564D01*
X126890131Y-103438580D01*
X126810942Y-103247402D01*
X126695978Y-103075345D01*
X126549656Y-102929023D01*
X126549652Y-102929020D01*
X126377598Y-102814058D01*
X126186419Y-102734869D01*
X125983468Y-102694500D01*
X125983466Y-102694500D01*
X125776536Y-102694500D01*
X125776533Y-102694500D01*
X125573582Y-102734869D01*
X125382403Y-102814058D01*
X125210349Y-102929020D01*
X125064021Y-103075348D01*
X124949059Y-103247402D01*
X124869870Y-103438581D01*
X124829501Y-103641532D01*
X124390499Y-103641532D01*
X124350130Y-103438580D01*
X124270941Y-103247402D01*
X124155977Y-103075345D01*
X124009655Y-102929023D01*
X124009651Y-102929020D01*
X123837597Y-102814058D01*
X123646418Y-102734869D01*
X123443467Y-102694500D01*
X123443465Y-102694500D01*
X123236535Y-102694500D01*
X123236532Y-102694500D01*
X123033581Y-102734869D01*
X122842402Y-102814058D01*
X122670348Y-102929020D01*
X122524020Y-103075348D01*
X122409058Y-103247402D01*
X122329869Y-103438581D01*
X122289500Y-103641532D01*
X121849999Y-103641532D01*
X121849999Y-103090796D01*
X121847149Y-103060399D01*
X121847149Y-103060397D01*
X121802345Y-102932352D01*
X121721792Y-102823209D01*
X121721790Y-102823207D01*
X121612647Y-102742654D01*
X121484601Y-102697850D01*
X121454211Y-102695000D01*
X120900001Y-102695000D01*
X120900000Y-102695001D01*
X120700000Y-102695001D01*
X120699999Y-102695000D01*
X120145796Y-102695000D01*
X120115399Y-102697850D01*
X120115397Y-102697850D01*
X119987352Y-102742654D01*
X119878209Y-102823207D01*
X119878207Y-102823209D01*
X119797654Y-102932352D01*
X119752850Y-103060398D01*
X119750000Y-103090788D01*
X119086296Y-103090788D01*
X119075977Y-103075345D01*
X118929655Y-102929023D01*
X118929651Y-102929020D01*
X118757597Y-102814058D01*
X118566418Y-102734869D01*
X118363467Y-102694500D01*
X118363465Y-102694500D01*
X118156535Y-102694500D01*
X118156532Y-102694500D01*
X117953581Y-102734869D01*
X117762402Y-102814058D01*
X117590348Y-102929020D01*
X117444020Y-103075348D01*
X117329058Y-103247402D01*
X117249869Y-103438581D01*
X117209500Y-103641532D01*
X116770501Y-103641532D01*
X116730132Y-103438580D01*
X116650943Y-103247402D01*
X116535979Y-103075345D01*
X116389657Y-102929023D01*
X116389653Y-102929020D01*
X116217599Y-102814058D01*
X116026420Y-102734869D01*
X115823469Y-102694500D01*
X115823467Y-102694500D01*
X115616537Y-102694500D01*
X115616534Y-102694500D01*
X115413583Y-102734869D01*
X115222404Y-102814058D01*
X115050350Y-102929020D01*
X114904022Y-103075348D01*
X114789060Y-103247402D01*
X114709871Y-103438581D01*
X114669502Y-103641532D01*
X114230499Y-103641532D01*
X114190130Y-103438580D01*
X114110941Y-103247402D01*
X113995977Y-103075345D01*
X113849655Y-102929023D01*
X113849651Y-102929020D01*
X113677597Y-102814058D01*
X113486418Y-102734869D01*
X113283467Y-102694500D01*
X113283465Y-102694500D01*
X113076535Y-102694500D01*
X113076532Y-102694500D01*
X112873581Y-102734869D01*
X112682402Y-102814058D01*
X112510348Y-102929020D01*
X112364020Y-103075348D01*
X112249058Y-103247402D01*
X112169869Y-103438581D01*
X112129500Y-103641532D01*
X111690499Y-103641532D01*
X111650130Y-103438580D01*
X111570941Y-103247402D01*
X111455977Y-103075345D01*
X111309655Y-102929023D01*
X111309651Y-102929020D01*
X111137597Y-102814058D01*
X110946418Y-102734869D01*
X110743467Y-102694500D01*
X110743465Y-102694500D01*
X110536535Y-102694500D01*
X110536532Y-102694500D01*
X110333581Y-102734869D01*
X110142402Y-102814058D01*
X109970348Y-102929020D01*
X109824020Y-103075348D01*
X109709058Y-103247402D01*
X109629869Y-103438581D01*
X109589500Y-103641532D01*
X109149999Y-103641532D01*
X109149999Y-103090795D01*
X109147149Y-103060398D01*
X109147149Y-103060396D01*
X109102345Y-102932351D01*
X109021792Y-102823208D01*
X109021790Y-102823206D01*
X108912647Y-102742653D01*
X108784601Y-102697849D01*
X108754211Y-102694999D01*
X108200001Y-102694999D01*
X108200000Y-102695000D01*
X108000000Y-102695000D01*
X107999999Y-102694999D01*
X107445796Y-102694999D01*
X107415399Y-102697849D01*
X107415397Y-102697849D01*
X107287352Y-102742653D01*
X107178209Y-102823206D01*
X107178207Y-102823208D01*
X107097654Y-102932351D01*
X107052850Y-103060397D01*
X107050000Y-103090787D01*
X106386295Y-103090787D01*
X106375977Y-103075345D01*
X106229655Y-102929023D01*
X106229651Y-102929020D01*
X106057597Y-102814058D01*
X105866418Y-102734869D01*
X105663467Y-102694500D01*
X105663465Y-102694500D01*
X105456535Y-102694500D01*
X105456532Y-102694500D01*
X105253581Y-102734869D01*
X105062402Y-102814058D01*
X104890348Y-102929020D01*
X104744020Y-103075348D01*
X104629058Y-103247402D01*
X104549869Y-103438581D01*
X104509500Y-103641532D01*
X104070499Y-103641532D01*
X104030130Y-103438580D01*
X103950941Y-103247402D01*
X103835977Y-103075345D01*
X103689655Y-102929023D01*
X103689651Y-102929020D01*
X103517597Y-102814058D01*
X103326418Y-102734869D01*
X103123467Y-102694500D01*
X103123465Y-102694500D01*
X102916535Y-102694500D01*
X102916532Y-102694500D01*
X102713581Y-102734869D01*
X102522402Y-102814058D01*
X102350348Y-102929020D01*
X102204020Y-103075348D01*
X102089058Y-103247402D01*
X102009869Y-103438581D01*
X101969500Y-103641532D01*
X101530502Y-103641532D01*
X101490133Y-103438580D01*
X101410944Y-103247402D01*
X101295980Y-103075345D01*
X101149658Y-102929023D01*
X101149654Y-102929020D01*
X100977600Y-102814058D01*
X100786421Y-102734869D01*
X100583470Y-102694500D01*
X100583468Y-102694500D01*
X100376538Y-102694500D01*
X100376535Y-102694500D01*
X100173584Y-102734869D01*
X99982405Y-102814058D01*
X99810351Y-102929020D01*
X99664023Y-103075348D01*
X99549061Y-103247402D01*
X99469872Y-103438581D01*
X99429503Y-103641532D01*
X98990499Y-103641532D01*
X98950130Y-103438580D01*
X98870941Y-103247402D01*
X98755977Y-103075345D01*
X98609655Y-102929023D01*
X98609651Y-102929020D01*
X98437597Y-102814058D01*
X98246418Y-102734869D01*
X98043467Y-102694500D01*
X98043465Y-102694500D01*
X97836535Y-102694500D01*
X97836532Y-102694500D01*
X97633581Y-102734869D01*
X97442402Y-102814058D01*
X97270348Y-102929020D01*
X97124020Y-103075348D01*
X97009058Y-103247402D01*
X96929869Y-103438581D01*
X96889500Y-103641532D01*
X96449999Y-103641532D01*
X96449999Y-103090796D01*
X96447149Y-103060399D01*
X96447149Y-103060397D01*
X96402345Y-102932352D01*
X96321792Y-102823209D01*
X96321790Y-102823207D01*
X96212647Y-102742654D01*
X96084601Y-102697850D01*
X96054211Y-102695000D01*
X95500001Y-102695000D01*
X95500000Y-102695001D01*
X95300000Y-102695001D01*
X95299999Y-102695000D01*
X94745796Y-102695000D01*
X94715399Y-102697850D01*
X94715397Y-102697850D01*
X94587352Y-102742654D01*
X94478209Y-102823207D01*
X94478207Y-102823209D01*
X94397654Y-102932352D01*
X94352850Y-103060398D01*
X94350000Y-103090788D01*
X93686294Y-103090788D01*
X93675975Y-103075344D01*
X93529653Y-102929022D01*
X93452609Y-102877543D01*
X93357595Y-102814057D01*
X93166416Y-102734868D01*
X92963465Y-102694499D01*
X92963463Y-102694499D01*
X92756533Y-102694499D01*
X92756530Y-102694499D01*
X92553579Y-102734868D01*
X92362400Y-102814057D01*
X92190346Y-102929019D01*
X92044018Y-103075347D01*
X91929056Y-103247401D01*
X91849867Y-103438580D01*
X91809498Y-103641531D01*
X91809498Y-106348466D01*
X91849867Y-106551417D01*
X91929056Y-106742596D01*
X92033702Y-106899211D01*
X92044021Y-106914654D01*
X92190343Y-107060976D01*
X92362400Y-107175940D01*
X92362401Y-107175940D01*
X92362402Y-107175941D01*
X92407655Y-107194685D01*
X92498383Y-107232266D01*
X92518827Y-107249726D01*
X92540591Y-107265539D01*
X92541839Y-107269380D01*
X92544909Y-107272002D01*
X92559498Y-107323730D01*
X92559498Y-107374523D01*
X92540591Y-107432714D01*
X92530502Y-107444527D01*
X92304525Y-107670504D01*
X92250008Y-107698281D01*
X92234521Y-107699500D01*
X89365479Y-107699500D01*
X89307288Y-107680593D01*
X89295475Y-107670504D01*
X88289475Y-106664504D01*
X88261698Y-106609987D01*
X88271269Y-106549555D01*
X88314534Y-106506290D01*
X88359479Y-106495500D01*
X89220558Y-106495500D01*
X89278749Y-106514407D01*
X89312020Y-106556612D01*
X89337123Y-106617213D01*
X89389058Y-106742597D01*
X89504020Y-106914651D01*
X89504023Y-106914655D01*
X89650345Y-107060977D01*
X89822402Y-107175941D01*
X90013580Y-107255130D01*
X90216535Y-107295500D01*
X90216536Y-107295500D01*
X90423464Y-107295500D01*
X90423465Y-107295500D01*
X90626420Y-107255130D01*
X90817598Y-107175941D01*
X90989655Y-107060977D01*
X91135977Y-106914655D01*
X91250941Y-106742598D01*
X91330130Y-106551420D01*
X91370500Y-106348465D01*
X91370500Y-103641535D01*
X91330130Y-103438580D01*
X91250941Y-103247402D01*
X91135977Y-103075345D01*
X90989655Y-102929023D01*
X90989651Y-102929020D01*
X90817597Y-102814058D01*
X90626418Y-102734869D01*
X90423467Y-102694500D01*
X90423465Y-102694500D01*
X90216535Y-102694500D01*
X90216532Y-102694500D01*
X90013581Y-102734869D01*
X89822402Y-102814058D01*
X89650348Y-102929020D01*
X89504020Y-103075348D01*
X89389058Y-103247402D01*
X89309869Y-103438581D01*
X89269500Y-103641532D01*
X89269500Y-105795500D01*
X89250593Y-105853691D01*
X89201093Y-105889655D01*
X89170500Y-105894500D01*
X88126165Y-105894500D01*
X88067974Y-105875593D01*
X88056161Y-105865504D01*
X86775425Y-104584768D01*
X85450197Y-103259540D01*
X85450194Y-103259538D01*
X85429173Y-103247401D01*
X85429173Y-103247402D01*
X85381675Y-103219979D01*
X85381674Y-103219978D01*
X85381673Y-103219978D01*
X85305250Y-103199500D01*
X85305248Y-103199500D01*
X61906823Y-103199500D01*
X61827699Y-103199500D01*
X61780922Y-103212033D01*
X61751268Y-103219979D01*
X61682754Y-103259536D01*
X61682749Y-103259540D01*
X61470502Y-103471787D01*
X61415986Y-103499564D01*
X61400499Y-103500783D01*
X61351203Y-103500783D01*
X61226911Y-103537278D01*
X61226904Y-103537281D01*
X61117930Y-103607314D01*
X61033095Y-103705221D01*
X60979280Y-103823057D01*
X60960845Y-103951280D01*
X60436251Y-103951280D01*
X59610546Y-103125575D01*
X59582769Y-103071058D01*
X59582558Y-103041482D01*
X59585647Y-103020000D01*
X59585646Y-103019996D01*
X59565165Y-102877543D01*
X59543026Y-102829066D01*
X59505377Y-102746627D01*
X59411128Y-102637857D01*
X59411127Y-102637856D01*
X59411126Y-102637855D01*
X59290057Y-102560049D01*
X59290054Y-102560047D01*
X59290053Y-102560047D01*
X59290050Y-102560046D01*
X59151964Y-102519500D01*
X59151961Y-102519500D01*
X59008039Y-102519500D01*
X59008035Y-102519500D01*
X58869949Y-102560046D01*
X58869942Y-102560049D01*
X58748873Y-102637855D01*
X58654622Y-102746628D01*
X58594834Y-102877543D01*
X58574353Y-103019997D01*
X43115583Y-103019997D01*
X43115583Y-103019993D01*
X43095301Y-102814070D01*
X43095300Y-102814065D01*
X43071276Y-102734868D01*
X43035232Y-102616046D01*
X42937685Y-102433550D01*
X42921825Y-102414225D01*
X42806414Y-102273595D01*
X42806410Y-102273590D01*
X42742212Y-102220904D01*
X42646452Y-102142316D01*
X42463954Y-102044768D01*
X42265934Y-101984699D01*
X42265929Y-101984698D01*
X42060003Y-101964417D01*
X42059997Y-101964417D01*
X41854070Y-101984698D01*
X41854065Y-101984699D01*
X41656045Y-102044768D01*
X41473547Y-102142316D01*
X41313595Y-102273585D01*
X41313585Y-102273595D01*
X41182316Y-102433547D01*
X41084768Y-102616045D01*
X41024699Y-102814065D01*
X41024698Y-102814070D01*
X41004417Y-103019996D01*
X40570500Y-103019996D01*
X40570500Y-102150252D01*
X40568921Y-102142316D01*
X40561851Y-102106772D01*
X40558867Y-102091769D01*
X40514552Y-102025448D01*
X40514548Y-102025445D01*
X40448233Y-101981134D01*
X40448231Y-101981133D01*
X40448228Y-101981132D01*
X40448227Y-101981132D01*
X40389758Y-101969501D01*
X40389748Y-101969500D01*
X38650252Y-101969500D01*
X38650251Y-101969500D01*
X38650241Y-101969501D01*
X38591772Y-101981132D01*
X38591766Y-101981134D01*
X38525451Y-102025445D01*
X38525445Y-102025451D01*
X38481134Y-102091766D01*
X38481132Y-102091772D01*
X38469501Y-102150241D01*
X38469500Y-102150253D01*
X27388238Y-102150253D01*
X27218954Y-102059768D01*
X27020934Y-101999699D01*
X27020929Y-101999698D01*
X26815003Y-101979417D01*
X26814997Y-101979417D01*
X26609070Y-101999698D01*
X26609065Y-101999699D01*
X26411045Y-102059768D01*
X26228547Y-102157316D01*
X26068595Y-102288585D01*
X26068585Y-102288595D01*
X25937316Y-102448547D01*
X25839768Y-102631045D01*
X25779699Y-102829065D01*
X25779698Y-102829070D01*
X25759417Y-103034996D01*
X25325500Y-103034996D01*
X25325500Y-102165252D01*
X25323921Y-102157316D01*
X25322711Y-102151231D01*
X25313867Y-102106769D01*
X25269552Y-102040448D01*
X25247108Y-102025451D01*
X25203233Y-101996134D01*
X25203231Y-101996133D01*
X25203228Y-101996132D01*
X25203227Y-101996132D01*
X25144758Y-101984501D01*
X25144748Y-101984500D01*
X23405252Y-101984500D01*
X23405251Y-101984500D01*
X23405241Y-101984501D01*
X23346772Y-101996132D01*
X23346766Y-101996134D01*
X23280451Y-102040445D01*
X23280445Y-102040451D01*
X23236134Y-102106766D01*
X23236132Y-102106772D01*
X23224501Y-102165241D01*
X23224500Y-102165253D01*
X500500Y-102165253D01*
X500500Y-100479996D01*
X6704417Y-100479996D01*
X6704417Y-100480003D01*
X6724698Y-100685929D01*
X6724699Y-100685934D01*
X6784768Y-100883954D01*
X6882316Y-101066452D01*
X7013585Y-101226404D01*
X7013590Y-101226410D01*
X7013595Y-101226414D01*
X7173547Y-101357683D01*
X7173548Y-101357683D01*
X7173550Y-101357685D01*
X7356046Y-101455232D01*
X7493997Y-101497078D01*
X7554065Y-101515300D01*
X7554070Y-101515301D01*
X7759997Y-101535583D01*
X7760000Y-101535583D01*
X7760003Y-101535583D01*
X7965929Y-101515301D01*
X7965934Y-101515300D01*
X8163954Y-101455232D01*
X8346450Y-101357685D01*
X8506410Y-101226410D01*
X8637685Y-101066450D01*
X8735232Y-100883954D01*
X8795300Y-100685934D01*
X8795301Y-100685929D01*
X8815583Y-100480003D01*
X8815583Y-100479996D01*
X16864417Y-100479996D01*
X16864417Y-100480003D01*
X16884698Y-100685929D01*
X16884699Y-100685934D01*
X16944768Y-100883954D01*
X17042316Y-101066452D01*
X17173585Y-101226404D01*
X17173590Y-101226410D01*
X17173595Y-101226414D01*
X17333547Y-101357683D01*
X17333548Y-101357683D01*
X17333550Y-101357685D01*
X17516046Y-101455232D01*
X17653997Y-101497078D01*
X17714065Y-101515300D01*
X17714070Y-101515301D01*
X17919997Y-101535583D01*
X17920000Y-101535583D01*
X17920003Y-101535583D01*
X18125929Y-101515301D01*
X18125934Y-101515300D01*
X18323954Y-101455232D01*
X18506450Y-101357685D01*
X18666410Y-101226410D01*
X18797685Y-101066450D01*
X18895232Y-100883954D01*
X18955300Y-100685934D01*
X18955301Y-100685929D01*
X18975583Y-100480003D01*
X18975583Y-100479996D01*
X18955301Y-100274070D01*
X18955300Y-100274065D01*
X18937078Y-100213997D01*
X18895232Y-100076046D01*
X18797685Y-99893550D01*
X18666410Y-99733590D01*
X18666404Y-99733585D01*
X18506452Y-99602316D01*
X18323954Y-99504768D01*
X18125934Y-99444699D01*
X18125929Y-99444698D01*
X17920003Y-99424417D01*
X17919997Y-99424417D01*
X17714070Y-99444698D01*
X17714065Y-99444699D01*
X17516045Y-99504768D01*
X17333547Y-99602316D01*
X17173595Y-99733585D01*
X17173585Y-99733595D01*
X17042316Y-99893547D01*
X16944768Y-100076045D01*
X16884699Y-100274065D01*
X16884698Y-100274070D01*
X16864417Y-100479996D01*
X8815583Y-100479996D01*
X8795301Y-100274070D01*
X8795300Y-100274065D01*
X8777078Y-100213997D01*
X8735232Y-100076046D01*
X8637685Y-99893550D01*
X8506410Y-99733590D01*
X8506404Y-99733585D01*
X8346452Y-99602316D01*
X8163954Y-99504768D01*
X7965934Y-99444699D01*
X7965929Y-99444698D01*
X7760003Y-99424417D01*
X7759997Y-99424417D01*
X7554070Y-99444698D01*
X7554065Y-99444699D01*
X7356045Y-99504768D01*
X7173547Y-99602316D01*
X7013595Y-99733585D01*
X7013585Y-99733595D01*
X6882316Y-99893547D01*
X6784768Y-100076045D01*
X6724699Y-100274065D01*
X6724698Y-100274070D01*
X6704417Y-100479996D01*
X500500Y-100479996D01*
X500500Y-70406699D01*
X66456400Y-70406699D01*
X66456400Y-71189999D01*
X66456401Y-71190000D01*
X67020874Y-71190000D01*
X67012000Y-71223120D01*
X67012000Y-71356880D01*
X67020874Y-71390000D01*
X66456401Y-71390000D01*
X66456400Y-71390001D01*
X66456400Y-72173300D01*
X66468003Y-72231636D01*
X66512206Y-72297789D01*
X66512210Y-72297793D01*
X66578363Y-72341996D01*
X66636699Y-72353599D01*
X66636703Y-72353600D01*
X67419999Y-72353600D01*
X67420000Y-72353599D01*
X67420000Y-71789125D01*
X67453120Y-71798000D01*
X67586880Y-71798000D01*
X67620000Y-71789125D01*
X67620000Y-72353599D01*
X67620001Y-72353600D01*
X68403297Y-72353600D01*
X68403300Y-72353599D01*
X68461636Y-72341996D01*
X68527789Y-72297793D01*
X68527793Y-72297789D01*
X68571996Y-72231636D01*
X68583599Y-72173300D01*
X68583600Y-72173297D01*
X68583600Y-71390001D01*
X68583599Y-71390000D01*
X68019126Y-71390000D01*
X68028000Y-71356880D01*
X68028000Y-71289996D01*
X68990751Y-71289996D01*
X68990751Y-71290003D01*
X69011294Y-71498594D01*
X69011295Y-71498597D01*
X69011296Y-71498600D01*
X69071329Y-71696502D01*
X69072144Y-71699187D01*
X69072145Y-71699189D01*
X69170944Y-71884031D01*
X69170950Y-71884040D01*
X69170952Y-71884043D01*
X69226402Y-71951609D01*
X69303922Y-72046068D01*
X69303931Y-72046077D01*
X69379497Y-72108092D01*
X69465957Y-72179048D01*
X69465961Y-72179050D01*
X69465968Y-72179055D01*
X69650810Y-72277854D01*
X69650816Y-72277857D01*
X69851400Y-72338704D01*
X69851402Y-72338704D01*
X69851405Y-72338705D01*
X70059997Y-72359249D01*
X70060000Y-72359249D01*
X70060003Y-72359249D01*
X70268594Y-72338705D01*
X70268595Y-72338704D01*
X70268600Y-72338704D01*
X70469184Y-72277857D01*
X70555658Y-72231636D01*
X70654031Y-72179055D01*
X70654034Y-72179052D01*
X70654043Y-72179048D01*
X70816073Y-72046073D01*
X70949048Y-71884043D01*
X70949052Y-71884034D01*
X70949055Y-71884031D01*
X71047854Y-71699189D01*
X71047855Y-71699187D01*
X71047857Y-71699184D01*
X71108704Y-71498600D01*
X71129249Y-71290000D01*
X71129249Y-71289996D01*
X71530751Y-71289996D01*
X71530751Y-71290003D01*
X71551294Y-71498594D01*
X71551295Y-71498597D01*
X71551296Y-71498600D01*
X71611329Y-71696502D01*
X71612144Y-71699187D01*
X71612145Y-71699189D01*
X71710944Y-71884031D01*
X71710950Y-71884040D01*
X71710952Y-71884043D01*
X71766402Y-71951609D01*
X71843922Y-72046068D01*
X71843931Y-72046077D01*
X71919497Y-72108092D01*
X72005957Y-72179048D01*
X72005961Y-72179050D01*
X72005968Y-72179055D01*
X72190810Y-72277854D01*
X72190816Y-72277857D01*
X72391400Y-72338704D01*
X72391402Y-72338704D01*
X72391405Y-72338705D01*
X72599997Y-72359249D01*
X72600000Y-72359249D01*
X72600003Y-72359249D01*
X72808594Y-72338705D01*
X72808595Y-72338704D01*
X72808600Y-72338704D01*
X73009184Y-72277857D01*
X73095658Y-72231636D01*
X73194031Y-72179055D01*
X73194034Y-72179052D01*
X73194043Y-72179048D01*
X73356073Y-72046073D01*
X73489048Y-71884043D01*
X73489052Y-71884034D01*
X73489055Y-71884031D01*
X73587854Y-71699189D01*
X73587855Y-71699187D01*
X73587857Y-71699184D01*
X73648704Y-71498600D01*
X73669249Y-71290000D01*
X73649937Y-71093919D01*
X73648705Y-71081405D01*
X73648704Y-71081402D01*
X73648704Y-71081400D01*
X73587857Y-70880816D01*
X73587854Y-70880810D01*
X73489055Y-70695968D01*
X73489050Y-70695961D01*
X73489048Y-70695957D01*
X73418092Y-70609497D01*
X73356077Y-70533931D01*
X73356068Y-70533922D01*
X73201049Y-70406702D01*
X73194043Y-70400952D01*
X73194040Y-70400950D01*
X73194031Y-70400944D01*
X73009189Y-70302145D01*
X73009187Y-70302144D01*
X72808597Y-70241295D01*
X72808594Y-70241294D01*
X72600003Y-70220751D01*
X72599997Y-70220751D01*
X72391405Y-70241294D01*
X72391402Y-70241295D01*
X72190812Y-70302144D01*
X72190810Y-70302145D01*
X72005968Y-70400944D01*
X72005958Y-70400951D01*
X71843931Y-70533922D01*
X71843922Y-70533931D01*
X71710951Y-70695958D01*
X71710944Y-70695968D01*
X71612145Y-70880810D01*
X71612144Y-70880812D01*
X71551295Y-71081402D01*
X71551294Y-71081405D01*
X71530751Y-71289996D01*
X71129249Y-71289996D01*
X71109937Y-71093919D01*
X71108705Y-71081405D01*
X71108704Y-71081402D01*
X71108704Y-71081400D01*
X71047857Y-70880816D01*
X71047854Y-70880810D01*
X70949055Y-70695968D01*
X70949050Y-70695961D01*
X70949048Y-70695957D01*
X70878092Y-70609497D01*
X70816077Y-70533931D01*
X70816068Y-70533922D01*
X70661049Y-70406702D01*
X70654043Y-70400952D01*
X70654040Y-70400950D01*
X70654031Y-70400944D01*
X70469189Y-70302145D01*
X70469187Y-70302144D01*
X70268597Y-70241295D01*
X70268594Y-70241294D01*
X70060003Y-70220751D01*
X70059997Y-70220751D01*
X69851405Y-70241294D01*
X69851402Y-70241295D01*
X69650812Y-70302144D01*
X69650810Y-70302145D01*
X69465968Y-70400944D01*
X69465958Y-70400951D01*
X69303931Y-70533922D01*
X69303922Y-70533931D01*
X69170951Y-70695958D01*
X69170944Y-70695968D01*
X69072145Y-70880810D01*
X69072144Y-70880812D01*
X69011295Y-71081402D01*
X69011294Y-71081405D01*
X68990751Y-71289996D01*
X68028000Y-71289996D01*
X68028000Y-71223120D01*
X68019126Y-71190000D01*
X68583599Y-71190000D01*
X68583600Y-71189999D01*
X68583600Y-70406702D01*
X68583599Y-70406699D01*
X68571996Y-70348363D01*
X68527793Y-70282210D01*
X68527789Y-70282206D01*
X68461636Y-70238003D01*
X68403300Y-70226400D01*
X67620001Y-70226400D01*
X67620000Y-70226401D01*
X67620000Y-70790874D01*
X67586880Y-70782000D01*
X67453120Y-70782000D01*
X67420000Y-70790874D01*
X67420000Y-70226401D01*
X67419999Y-70226400D01*
X66636699Y-70226400D01*
X66578363Y-70238003D01*
X66512210Y-70282206D01*
X66512206Y-70282210D01*
X66468003Y-70348363D01*
X66456400Y-70406699D01*
X500500Y-70406699D01*
X500500Y-68749996D01*
X66450751Y-68749996D01*
X66450751Y-68750003D01*
X66471294Y-68958594D01*
X66471295Y-68958597D01*
X66532144Y-69159187D01*
X66532145Y-69159189D01*
X66630944Y-69344031D01*
X66630950Y-69344040D01*
X66630952Y-69344043D01*
X66686402Y-69411609D01*
X66763922Y-69506068D01*
X66763931Y-69506077D01*
X66839497Y-69568092D01*
X66925957Y-69639048D01*
X66925961Y-69639050D01*
X66925968Y-69639055D01*
X67110810Y-69737854D01*
X67110816Y-69737857D01*
X67311400Y-69798704D01*
X67311402Y-69798704D01*
X67311405Y-69798705D01*
X67519997Y-69819249D01*
X67520000Y-69819249D01*
X67520003Y-69819249D01*
X67728594Y-69798705D01*
X67728595Y-69798704D01*
X67728600Y-69798704D01*
X67929184Y-69737857D01*
X67995459Y-69702432D01*
X68114031Y-69639055D01*
X68114034Y-69639052D01*
X68114043Y-69639048D01*
X68276073Y-69506073D01*
X68409048Y-69344043D01*
X68409052Y-69344034D01*
X68409055Y-69344031D01*
X68507854Y-69159189D01*
X68507855Y-69159187D01*
X68507857Y-69159184D01*
X68568704Y-68958600D01*
X68589249Y-68750000D01*
X68589249Y-68749996D01*
X68990751Y-68749996D01*
X68990751Y-68750003D01*
X69011294Y-68958594D01*
X69011295Y-68958597D01*
X69072144Y-69159187D01*
X69072145Y-69159189D01*
X69170944Y-69344031D01*
X69170950Y-69344040D01*
X69170952Y-69344043D01*
X69226402Y-69411609D01*
X69303922Y-69506068D01*
X69303931Y-69506077D01*
X69379497Y-69568092D01*
X69465957Y-69639048D01*
X69465961Y-69639050D01*
X69465968Y-69639055D01*
X69650810Y-69737854D01*
X69650816Y-69737857D01*
X69851400Y-69798704D01*
X69851402Y-69798704D01*
X69851405Y-69798705D01*
X70059997Y-69819249D01*
X70060000Y-69819249D01*
X70060003Y-69819249D01*
X70268594Y-69798705D01*
X70268595Y-69798704D01*
X70268600Y-69798704D01*
X70469184Y-69737857D01*
X70535459Y-69702432D01*
X70654031Y-69639055D01*
X70654034Y-69639052D01*
X70654043Y-69639048D01*
X70816073Y-69506073D01*
X70949048Y-69344043D01*
X70949052Y-69344034D01*
X70949055Y-69344031D01*
X71047854Y-69159189D01*
X71047855Y-69159187D01*
X71047857Y-69159184D01*
X71108704Y-68958600D01*
X71129249Y-68750000D01*
X71129249Y-68749996D01*
X71530751Y-68749996D01*
X71530751Y-68750003D01*
X71551294Y-68958594D01*
X71551295Y-68958597D01*
X71612144Y-69159187D01*
X71612145Y-69159189D01*
X71710944Y-69344031D01*
X71710950Y-69344040D01*
X71710952Y-69344043D01*
X71766402Y-69411609D01*
X71843922Y-69506068D01*
X71843931Y-69506077D01*
X71919497Y-69568092D01*
X72005957Y-69639048D01*
X72005961Y-69639050D01*
X72005968Y-69639055D01*
X72190810Y-69737854D01*
X72190816Y-69737857D01*
X72391400Y-69798704D01*
X72391402Y-69798704D01*
X72391405Y-69798705D01*
X72599997Y-69819249D01*
X72600000Y-69819249D01*
X72600003Y-69819249D01*
X72808594Y-69798705D01*
X72808595Y-69798704D01*
X72808600Y-69798704D01*
X73009184Y-69737857D01*
X73075459Y-69702432D01*
X73194031Y-69639055D01*
X73194034Y-69639052D01*
X73194043Y-69639048D01*
X73356073Y-69506073D01*
X73489048Y-69344043D01*
X73489052Y-69344034D01*
X73489055Y-69344031D01*
X73587854Y-69159189D01*
X73587855Y-69159187D01*
X73587857Y-69159184D01*
X73648704Y-68958600D01*
X73669249Y-68750000D01*
X73669249Y-68749996D01*
X73648705Y-68541405D01*
X73648704Y-68541402D01*
X73648704Y-68541400D01*
X73587857Y-68340816D01*
X73587854Y-68340810D01*
X73489055Y-68155968D01*
X73489050Y-68155961D01*
X73489048Y-68155957D01*
X73418092Y-68069497D01*
X73356077Y-67993931D01*
X73356068Y-67993922D01*
X73261609Y-67916402D01*
X73194043Y-67860952D01*
X73194040Y-67860950D01*
X73194031Y-67860944D01*
X73009189Y-67762145D01*
X73009187Y-67762144D01*
X72808597Y-67701295D01*
X72808594Y-67701294D01*
X72600003Y-67680751D01*
X72599997Y-67680751D01*
X72391405Y-67701294D01*
X72391402Y-67701295D01*
X72190812Y-67762144D01*
X72190810Y-67762145D01*
X72005968Y-67860944D01*
X72005958Y-67860951D01*
X71843931Y-67993922D01*
X71843922Y-67993931D01*
X71710951Y-68155958D01*
X71710944Y-68155968D01*
X71612145Y-68340810D01*
X71612144Y-68340812D01*
X71551295Y-68541402D01*
X71551294Y-68541405D01*
X71530751Y-68749996D01*
X71129249Y-68749996D01*
X71108705Y-68541405D01*
X71108704Y-68541402D01*
X71108704Y-68541400D01*
X71047857Y-68340816D01*
X71047854Y-68340810D01*
X70949055Y-68155968D01*
X70949050Y-68155961D01*
X70949048Y-68155957D01*
X70878092Y-68069497D01*
X70816077Y-67993931D01*
X70816068Y-67993922D01*
X70721609Y-67916402D01*
X70654043Y-67860952D01*
X70654040Y-67860950D01*
X70654031Y-67860944D01*
X70469189Y-67762145D01*
X70469187Y-67762144D01*
X70268597Y-67701295D01*
X70268594Y-67701294D01*
X70060003Y-67680751D01*
X70059997Y-67680751D01*
X69851405Y-67701294D01*
X69851402Y-67701295D01*
X69650812Y-67762144D01*
X69650810Y-67762145D01*
X69465968Y-67860944D01*
X69465958Y-67860951D01*
X69303931Y-67993922D01*
X69303922Y-67993931D01*
X69170951Y-68155958D01*
X69170944Y-68155968D01*
X69072145Y-68340810D01*
X69072144Y-68340812D01*
X69011295Y-68541402D01*
X69011294Y-68541405D01*
X68990751Y-68749996D01*
X68589249Y-68749996D01*
X68568705Y-68541405D01*
X68568704Y-68541402D01*
X68568704Y-68541400D01*
X68507857Y-68340816D01*
X68507854Y-68340810D01*
X68409055Y-68155968D01*
X68409050Y-68155961D01*
X68409048Y-68155957D01*
X68338092Y-68069497D01*
X68276077Y-67993931D01*
X68276068Y-67993922D01*
X68181609Y-67916402D01*
X68114043Y-67860952D01*
X68114040Y-67860950D01*
X68114031Y-67860944D01*
X67929189Y-67762145D01*
X67929187Y-67762144D01*
X67728597Y-67701295D01*
X67728594Y-67701294D01*
X67520003Y-67680751D01*
X67519997Y-67680751D01*
X67311405Y-67701294D01*
X67311402Y-67701295D01*
X67110812Y-67762144D01*
X67110810Y-67762145D01*
X66925968Y-67860944D01*
X66925958Y-67860951D01*
X66763931Y-67993922D01*
X66763922Y-67993931D01*
X66630951Y-68155958D01*
X66630944Y-68155968D01*
X66532145Y-68340810D01*
X66532144Y-68340812D01*
X66471295Y-68541402D01*
X66471294Y-68541405D01*
X66450751Y-68749996D01*
X500500Y-68749996D01*
X500500Y-5002165D01*
X500547Y-5000000D01*
X2594754Y-5000000D01*
X2613720Y-5301462D01*
X2670317Y-5598151D01*
X2670319Y-5598160D01*
X2763659Y-5885430D01*
X2763661Y-5885436D01*
X2892267Y-6158736D01*
X2892274Y-6158749D01*
X3054114Y-6413767D01*
X3246645Y-6646497D01*
X3246655Y-6646508D01*
X3466837Y-6853274D01*
X3466840Y-6853276D01*
X3711192Y-7030807D01*
X3711196Y-7030809D01*
X3711205Y-7030816D01*
X3975896Y-7176332D01*
X4256738Y-7287525D01*
X4549302Y-7362642D01*
X4749082Y-7387880D01*
X4848972Y-7400500D01*
X4848973Y-7400500D01*
X5151028Y-7400500D01*
X5200972Y-7394190D01*
X5450698Y-7362642D01*
X5743262Y-7287525D01*
X6024104Y-7176332D01*
X6288795Y-7030816D01*
X6533162Y-6853274D01*
X6753349Y-6646504D01*
X6945885Y-6413768D01*
X7107733Y-6158736D01*
X7236341Y-5885430D01*
X7329681Y-5598160D01*
X7386280Y-5301457D01*
X7405246Y-5000000D01*
X132594754Y-5000000D01*
X132613720Y-5301462D01*
X132670317Y-5598151D01*
X132670319Y-5598160D01*
X132763659Y-5885430D01*
X132763661Y-5885436D01*
X132892267Y-6158736D01*
X132892274Y-6158749D01*
X133054114Y-6413767D01*
X133246645Y-6646497D01*
X133246655Y-6646508D01*
X133466837Y-6853274D01*
X133466840Y-6853276D01*
X133711192Y-7030807D01*
X133711196Y-7030809D01*
X133711205Y-7030816D01*
X133975896Y-7176332D01*
X134256738Y-7287525D01*
X134549302Y-7362642D01*
X134749082Y-7387880D01*
X134848972Y-7400500D01*
X134848973Y-7400500D01*
X135151028Y-7400500D01*
X135200972Y-7394190D01*
X135450698Y-7362642D01*
X135743262Y-7287525D01*
X136024104Y-7176332D01*
X136288795Y-7030816D01*
X136533162Y-6853274D01*
X136753349Y-6646504D01*
X136945885Y-6413768D01*
X137107733Y-6158736D01*
X137236341Y-5885430D01*
X137329681Y-5598160D01*
X137386280Y-5301457D01*
X137405246Y-5000000D01*
X137386280Y-4698543D01*
X137329681Y-4401840D01*
X137236341Y-4114570D01*
X137107733Y-3841264D01*
X137107729Y-3841259D01*
X137107725Y-3841250D01*
X136945885Y-3586232D01*
X136753354Y-3353502D01*
X136753344Y-3353491D01*
X136533162Y-3146725D01*
X136533159Y-3146723D01*
X136288807Y-2969192D01*
X136288800Y-2969187D01*
X136288795Y-2969184D01*
X136024104Y-2823668D01*
X136024102Y-2823667D01*
X136024100Y-2823666D01*
X135743262Y-2712475D01*
X135450698Y-2637358D01*
X135450691Y-2637357D01*
X135450695Y-2637357D01*
X135151028Y-2599500D01*
X135151027Y-2599500D01*
X134848973Y-2599500D01*
X134848972Y-2599500D01*
X134549306Y-2637357D01*
X134256737Y-2712475D01*
X133975899Y-2823666D01*
X133711213Y-2969179D01*
X133711192Y-2969192D01*
X133466840Y-3146723D01*
X133466837Y-3146725D01*
X133246655Y-3353491D01*
X133246645Y-3353502D01*
X133054114Y-3586232D01*
X132892274Y-3841250D01*
X132892267Y-3841263D01*
X132763661Y-4114563D01*
X132670320Y-4401838D01*
X132670317Y-4401848D01*
X132613720Y-4698537D01*
X132594754Y-5000000D01*
X7405246Y-5000000D01*
X7386280Y-4698543D01*
X7329681Y-4401840D01*
X7236341Y-4114570D01*
X7107733Y-3841264D01*
X7107729Y-3841259D01*
X7107725Y-3841250D01*
X6945885Y-3586232D01*
X6753354Y-3353502D01*
X6753344Y-3353491D01*
X6533162Y-3146725D01*
X6533159Y-3146723D01*
X6288807Y-2969192D01*
X6288800Y-2969187D01*
X6288795Y-2969184D01*
X6024104Y-2823668D01*
X6024102Y-2823667D01*
X6024100Y-2823666D01*
X5743262Y-2712475D01*
X5450698Y-2637358D01*
X5450691Y-2637357D01*
X5450695Y-2637357D01*
X5151028Y-2599500D01*
X5151027Y-2599500D01*
X4848973Y-2599500D01*
X4848972Y-2599500D01*
X4549306Y-2637357D01*
X4256737Y-2712475D01*
X3975899Y-2823666D01*
X3711213Y-2969179D01*
X3711192Y-2969192D01*
X3466840Y-3146723D01*
X3466837Y-3146725D01*
X3246655Y-3353491D01*
X3246645Y-3353502D01*
X3054114Y-3586232D01*
X2892274Y-3841250D01*
X2892267Y-3841263D01*
X2763661Y-4114563D01*
X2670320Y-4401838D01*
X2670317Y-4401848D01*
X2613720Y-4698537D01*
X2594754Y-5000000D01*
X500547Y-5000000D01*
X500594Y-4997853D01*
X500824Y-4992577D01*
X500824Y-4992571D01*
X503377Y-4934108D01*
X517434Y-4612144D01*
X518184Y-4603568D01*
X568295Y-4222942D01*
X569791Y-4214459D01*
X652883Y-3839655D01*
X655115Y-3831326D01*
X770553Y-3465202D01*
X773507Y-3457086D01*
X816413Y-3353502D01*
X920421Y-3102403D01*
X924056Y-3094609D01*
X1101325Y-2754079D01*
X1105632Y-2746618D01*
X1311913Y-2422820D01*
X1316851Y-2415769D01*
X1550564Y-2111189D01*
X1556083Y-2104612D01*
X1815481Y-1821528D01*
X1821528Y-1815481D01*
X2104612Y-1556083D01*
X2111189Y-1550564D01*
X2415769Y-1316851D01*
X2422820Y-1311913D01*
X2746618Y-1105632D01*
X2754079Y-1101325D01*
X3094609Y-924056D01*
X3102403Y-920421D01*
X3457093Y-773504D01*
X3465194Y-770555D01*
X3831334Y-655112D01*
X3839655Y-652883D01*
X4214459Y-569791D01*
X4222942Y-568295D01*
X4603568Y-518184D01*
X4612144Y-517434D01*
X4997847Y-500593D01*
X5002165Y-500500D01*
X5065892Y-500500D01*
X134934108Y-500500D01*
X134997835Y-500500D01*
X135002152Y-500593D01*
G37*
%TD.AperFunction*%
%TD*%
M02*
