%TF.GenerationSoftware,KiCad,Pcbnew,8.99.0-2433-g53022ab347*%
%TF.CreationDate,2024-09-29T19:38:35+02:00*%
%TF.ProjectId,SAO Dev Board,53414f20-4465-4762-9042-6f6172642e6b,1.0*%
%TF.SameCoordinates,PX1c9c380PY1c9c380*%
%TF.FileFunction,Legend,Bot*%
%TF.FilePolarity,Positive*%
%FSLAX46Y46*%
G04 Gerber Fmt 4.6, Leading zero omitted, Abs format (unit mm)*
G04 Created by KiCad (PCBNEW 8.99.0-2433-g53022ab347) date 2024-09-29 19:38:35*
%MOMM*%
%LPD*%
G01*
G04 APERTURE LIST*
%ADD10C,0.150000*%
G04 APERTURE END LIST*
D10*
X75044142Y-72648390D02*
X75115571Y-72610295D01*
X75115571Y-72610295D02*
X75222713Y-72610295D01*
X75222713Y-72610295D02*
X75329856Y-72648390D01*
X75329856Y-72648390D02*
X75401285Y-72724580D01*
X75401285Y-72724580D02*
X75436999Y-72800771D01*
X75436999Y-72800771D02*
X75472713Y-72953152D01*
X75472713Y-72953152D02*
X75472713Y-73067438D01*
X75472713Y-73067438D02*
X75436999Y-73219819D01*
X75436999Y-73219819D02*
X75401285Y-73296009D01*
X75401285Y-73296009D02*
X75329856Y-73372200D01*
X75329856Y-73372200D02*
X75222713Y-73410295D01*
X75222713Y-73410295D02*
X75151285Y-73410295D01*
X75151285Y-73410295D02*
X75044142Y-73372200D01*
X75044142Y-73372200D02*
X75008428Y-73334104D01*
X75008428Y-73334104D02*
X75008428Y-73067438D01*
X75008428Y-73067438D02*
X75151285Y-73067438D01*
X74686999Y-73410295D02*
X74686999Y-72610295D01*
X74686999Y-72610295D02*
X74401285Y-72610295D01*
X74401285Y-72610295D02*
X74329856Y-72648390D01*
X74329856Y-72648390D02*
X74294142Y-72686485D01*
X74294142Y-72686485D02*
X74258428Y-72762676D01*
X74258428Y-72762676D02*
X74258428Y-72876961D01*
X74258428Y-72876961D02*
X74294142Y-72953152D01*
X74294142Y-72953152D02*
X74329856Y-72991247D01*
X74329856Y-72991247D02*
X74401285Y-73029342D01*
X74401285Y-73029342D02*
X74686999Y-73029342D01*
X73936999Y-73410295D02*
X73936999Y-72610295D01*
X73436999Y-72610295D02*
X73294142Y-72610295D01*
X73294142Y-72610295D02*
X73222713Y-72648390D01*
X73222713Y-72648390D02*
X73151285Y-72724580D01*
X73151285Y-72724580D02*
X73115570Y-72876961D01*
X73115570Y-72876961D02*
X73115570Y-73143628D01*
X73115570Y-73143628D02*
X73151285Y-73296009D01*
X73151285Y-73296009D02*
X73222713Y-73372200D01*
X73222713Y-73372200D02*
X73294142Y-73410295D01*
X73294142Y-73410295D02*
X73436999Y-73410295D01*
X73436999Y-73410295D02*
X73508428Y-73372200D01*
X73508428Y-73372200D02*
X73579856Y-73296009D01*
X73579856Y-73296009D02*
X73615570Y-73143628D01*
X73615570Y-73143628D02*
X73615570Y-72876961D01*
X73615570Y-72876961D02*
X73579856Y-72724580D01*
X73579856Y-72724580D02*
X73508428Y-72648390D01*
X73508428Y-72648390D02*
X73436999Y-72610295D01*
X72829856Y-72686485D02*
X72794142Y-72648390D01*
X72794142Y-72648390D02*
X72722714Y-72610295D01*
X72722714Y-72610295D02*
X72544142Y-72610295D01*
X72544142Y-72610295D02*
X72472714Y-72648390D01*
X72472714Y-72648390D02*
X72436999Y-72686485D01*
X72436999Y-72686485D02*
X72401285Y-72762676D01*
X72401285Y-72762676D02*
X72401285Y-72838866D01*
X72401285Y-72838866D02*
X72436999Y-72953152D01*
X72436999Y-72953152D02*
X72865571Y-73410295D01*
X72865571Y-73410295D02*
X72401285Y-73410295D01*
X70910713Y-67530200D02*
X70803571Y-67568295D01*
X70803571Y-67568295D02*
X70624999Y-67568295D01*
X70624999Y-67568295D02*
X70553571Y-67530200D01*
X70553571Y-67530200D02*
X70517856Y-67492104D01*
X70517856Y-67492104D02*
X70482142Y-67415914D01*
X70482142Y-67415914D02*
X70482142Y-67339723D01*
X70482142Y-67339723D02*
X70517856Y-67263533D01*
X70517856Y-67263533D02*
X70553571Y-67225438D01*
X70553571Y-67225438D02*
X70624999Y-67187342D01*
X70624999Y-67187342D02*
X70767856Y-67149247D01*
X70767856Y-67149247D02*
X70839285Y-67111152D01*
X70839285Y-67111152D02*
X70874999Y-67073057D01*
X70874999Y-67073057D02*
X70910713Y-66996866D01*
X70910713Y-66996866D02*
X70910713Y-66920676D01*
X70910713Y-66920676D02*
X70874999Y-66844485D01*
X70874999Y-66844485D02*
X70839285Y-66806390D01*
X70839285Y-66806390D02*
X70767856Y-66768295D01*
X70767856Y-66768295D02*
X70589285Y-66768295D01*
X70589285Y-66768295D02*
X70482142Y-66806390D01*
X70160713Y-67568295D02*
X70160713Y-66768295D01*
X70160713Y-66768295D02*
X69982142Y-66768295D01*
X69982142Y-66768295D02*
X69874999Y-66806390D01*
X69874999Y-66806390D02*
X69803570Y-66882580D01*
X69803570Y-66882580D02*
X69767856Y-66958771D01*
X69767856Y-66958771D02*
X69732142Y-67111152D01*
X69732142Y-67111152D02*
X69732142Y-67225438D01*
X69732142Y-67225438D02*
X69767856Y-67377819D01*
X69767856Y-67377819D02*
X69803570Y-67454009D01*
X69803570Y-67454009D02*
X69874999Y-67530200D01*
X69874999Y-67530200D02*
X69982142Y-67568295D01*
X69982142Y-67568295D02*
X70160713Y-67568295D01*
X69446427Y-67339723D02*
X69089285Y-67339723D01*
X69517856Y-67568295D02*
X69267856Y-66768295D01*
X69267856Y-66768295D02*
X69017856Y-67568295D01*
X68459999Y-66768295D02*
X68209999Y-67568295D01*
X68209999Y-67568295D02*
X67959999Y-66768295D01*
X67281428Y-67492104D02*
X67317142Y-67530200D01*
X67317142Y-67530200D02*
X67424285Y-67568295D01*
X67424285Y-67568295D02*
X67495713Y-67568295D01*
X67495713Y-67568295D02*
X67602856Y-67530200D01*
X67602856Y-67530200D02*
X67674285Y-67454009D01*
X67674285Y-67454009D02*
X67709999Y-67377819D01*
X67709999Y-67377819D02*
X67745713Y-67225438D01*
X67745713Y-67225438D02*
X67745713Y-67111152D01*
X67745713Y-67111152D02*
X67709999Y-66958771D01*
X67709999Y-66958771D02*
X67674285Y-66882580D01*
X67674285Y-66882580D02*
X67602856Y-66806390D01*
X67602856Y-66806390D02*
X67495713Y-66768295D01*
X67495713Y-66768295D02*
X67424285Y-66768295D01*
X67424285Y-66768295D02*
X67317142Y-66806390D01*
X67317142Y-66806390D02*
X67281428Y-66844485D01*
X66531428Y-67492104D02*
X66567142Y-67530200D01*
X66567142Y-67530200D02*
X66674285Y-67568295D01*
X66674285Y-67568295D02*
X66745713Y-67568295D01*
X66745713Y-67568295D02*
X66852856Y-67530200D01*
X66852856Y-67530200D02*
X66924285Y-67454009D01*
X66924285Y-67454009D02*
X66959999Y-67377819D01*
X66959999Y-67377819D02*
X66995713Y-67225438D01*
X66995713Y-67225438D02*
X66995713Y-67111152D01*
X66995713Y-67111152D02*
X66959999Y-66958771D01*
X66959999Y-66958771D02*
X66924285Y-66882580D01*
X66924285Y-66882580D02*
X66852856Y-66806390D01*
X66852856Y-66806390D02*
X66745713Y-66768295D01*
X66745713Y-66768295D02*
X66674285Y-66768295D01*
X66674285Y-66768295D02*
X66567142Y-66806390D01*
X66567142Y-66806390D02*
X66531428Y-66844485D01*
X70892856Y-73372200D02*
X70785714Y-73410295D01*
X70785714Y-73410295D02*
X70607142Y-73410295D01*
X70607142Y-73410295D02*
X70535714Y-73372200D01*
X70535714Y-73372200D02*
X70499999Y-73334104D01*
X70499999Y-73334104D02*
X70464285Y-73257914D01*
X70464285Y-73257914D02*
X70464285Y-73181723D01*
X70464285Y-73181723D02*
X70499999Y-73105533D01*
X70499999Y-73105533D02*
X70535714Y-73067438D01*
X70535714Y-73067438D02*
X70607142Y-73029342D01*
X70607142Y-73029342D02*
X70749999Y-72991247D01*
X70749999Y-72991247D02*
X70821428Y-72953152D01*
X70821428Y-72953152D02*
X70857142Y-72915057D01*
X70857142Y-72915057D02*
X70892856Y-72838866D01*
X70892856Y-72838866D02*
X70892856Y-72762676D01*
X70892856Y-72762676D02*
X70857142Y-72686485D01*
X70857142Y-72686485D02*
X70821428Y-72648390D01*
X70821428Y-72648390D02*
X70749999Y-72610295D01*
X70749999Y-72610295D02*
X70571428Y-72610295D01*
X70571428Y-72610295D02*
X70464285Y-72648390D01*
X69714285Y-73334104D02*
X69749999Y-73372200D01*
X69749999Y-73372200D02*
X69857142Y-73410295D01*
X69857142Y-73410295D02*
X69928570Y-73410295D01*
X69928570Y-73410295D02*
X70035713Y-73372200D01*
X70035713Y-73372200D02*
X70107142Y-73296009D01*
X70107142Y-73296009D02*
X70142856Y-73219819D01*
X70142856Y-73219819D02*
X70178570Y-73067438D01*
X70178570Y-73067438D02*
X70178570Y-72953152D01*
X70178570Y-72953152D02*
X70142856Y-72800771D01*
X70142856Y-72800771D02*
X70107142Y-72724580D01*
X70107142Y-72724580D02*
X70035713Y-72648390D01*
X70035713Y-72648390D02*
X69928570Y-72610295D01*
X69928570Y-72610295D02*
X69857142Y-72610295D01*
X69857142Y-72610295D02*
X69749999Y-72648390D01*
X69749999Y-72648390D02*
X69714285Y-72686485D01*
X69035713Y-73410295D02*
X69392856Y-73410295D01*
X69392856Y-73410295D02*
X69392856Y-72610295D01*
X68031428Y-72648390D02*
X68102857Y-72610295D01*
X68102857Y-72610295D02*
X68209999Y-72610295D01*
X68209999Y-72610295D02*
X68317142Y-72648390D01*
X68317142Y-72648390D02*
X68388571Y-72724580D01*
X68388571Y-72724580D02*
X68424285Y-72800771D01*
X68424285Y-72800771D02*
X68459999Y-72953152D01*
X68459999Y-72953152D02*
X68459999Y-73067438D01*
X68459999Y-73067438D02*
X68424285Y-73219819D01*
X68424285Y-73219819D02*
X68388571Y-73296009D01*
X68388571Y-73296009D02*
X68317142Y-73372200D01*
X68317142Y-73372200D02*
X68209999Y-73410295D01*
X68209999Y-73410295D02*
X68138571Y-73410295D01*
X68138571Y-73410295D02*
X68031428Y-73372200D01*
X68031428Y-73372200D02*
X67995714Y-73334104D01*
X67995714Y-73334104D02*
X67995714Y-73067438D01*
X67995714Y-73067438D02*
X68138571Y-73067438D01*
X67674285Y-73410295D02*
X67674285Y-72610295D01*
X67674285Y-72610295D02*
X67245714Y-73410295D01*
X67245714Y-73410295D02*
X67245714Y-72610295D01*
X66888571Y-73410295D02*
X66888571Y-72610295D01*
X66888571Y-72610295D02*
X66710000Y-72610295D01*
X66710000Y-72610295D02*
X66602857Y-72648390D01*
X66602857Y-72648390D02*
X66531428Y-72724580D01*
X66531428Y-72724580D02*
X66495714Y-72800771D01*
X66495714Y-72800771D02*
X66460000Y-72953152D01*
X66460000Y-72953152D02*
X66460000Y-73067438D01*
X66460000Y-73067438D02*
X66495714Y-73219819D01*
X66495714Y-73219819D02*
X66531428Y-73296009D01*
X66531428Y-73296009D02*
X66602857Y-73372200D01*
X66602857Y-73372200D02*
X66710000Y-73410295D01*
X66710000Y-73410295D02*
X66888571Y-73410295D01*
X75044142Y-66806390D02*
X75115571Y-66768295D01*
X75115571Y-66768295D02*
X75222713Y-66768295D01*
X75222713Y-66768295D02*
X75329856Y-66806390D01*
X75329856Y-66806390D02*
X75401285Y-66882580D01*
X75401285Y-66882580D02*
X75436999Y-66958771D01*
X75436999Y-66958771D02*
X75472713Y-67111152D01*
X75472713Y-67111152D02*
X75472713Y-67225438D01*
X75472713Y-67225438D02*
X75436999Y-67377819D01*
X75436999Y-67377819D02*
X75401285Y-67454009D01*
X75401285Y-67454009D02*
X75329856Y-67530200D01*
X75329856Y-67530200D02*
X75222713Y-67568295D01*
X75222713Y-67568295D02*
X75151285Y-67568295D01*
X75151285Y-67568295D02*
X75044142Y-67530200D01*
X75044142Y-67530200D02*
X75008428Y-67492104D01*
X75008428Y-67492104D02*
X75008428Y-67225438D01*
X75008428Y-67225438D02*
X75151285Y-67225438D01*
X74686999Y-67568295D02*
X74686999Y-66768295D01*
X74686999Y-66768295D02*
X74401285Y-66768295D01*
X74401285Y-66768295D02*
X74329856Y-66806390D01*
X74329856Y-66806390D02*
X74294142Y-66844485D01*
X74294142Y-66844485D02*
X74258428Y-66920676D01*
X74258428Y-66920676D02*
X74258428Y-67034961D01*
X74258428Y-67034961D02*
X74294142Y-67111152D01*
X74294142Y-67111152D02*
X74329856Y-67149247D01*
X74329856Y-67149247D02*
X74401285Y-67187342D01*
X74401285Y-67187342D02*
X74686999Y-67187342D01*
X73936999Y-67568295D02*
X73936999Y-66768295D01*
X73436999Y-66768295D02*
X73294142Y-66768295D01*
X73294142Y-66768295D02*
X73222713Y-66806390D01*
X73222713Y-66806390D02*
X73151285Y-66882580D01*
X73151285Y-66882580D02*
X73115570Y-67034961D01*
X73115570Y-67034961D02*
X73115570Y-67301628D01*
X73115570Y-67301628D02*
X73151285Y-67454009D01*
X73151285Y-67454009D02*
X73222713Y-67530200D01*
X73222713Y-67530200D02*
X73294142Y-67568295D01*
X73294142Y-67568295D02*
X73436999Y-67568295D01*
X73436999Y-67568295D02*
X73508428Y-67530200D01*
X73508428Y-67530200D02*
X73579856Y-67454009D01*
X73579856Y-67454009D02*
X73615570Y-67301628D01*
X73615570Y-67301628D02*
X73615570Y-67034961D01*
X73615570Y-67034961D02*
X73579856Y-66882580D01*
X73579856Y-66882580D02*
X73508428Y-66806390D01*
X73508428Y-66806390D02*
X73436999Y-66768295D01*
X72401285Y-67568295D02*
X72829856Y-67568295D01*
X72615571Y-67568295D02*
X72615571Y-66768295D01*
X72615571Y-66768295D02*
X72686999Y-66882580D01*
X72686999Y-66882580D02*
X72758428Y-66958771D01*
X72758428Y-66958771D02*
X72829856Y-66996866D01*
M02*
