%TF.GenerationSoftware,KiCad,Pcbnew,8.99.0-2651-g201b60c670*%
%TF.CreationDate,2024-10-15T13:29:43+02:00*%
%TF.ProjectId,SAO Dev Board,53414f20-4465-4762-9042-6f6172642e6b,1.1*%
%TF.SameCoordinates,PX1c9c380PY1c9c380*%
%TF.FileFunction,Soldermask,Bot*%
%TF.FilePolarity,Negative*%
%FSLAX46Y46*%
G04 Gerber Fmt 4.6, Leading zero omitted, Abs format (unit mm)*
G04 Created by KiCad (PCBNEW 8.99.0-2651-g201b60c670) date 2024-10-15 13:29:43*
%MOMM*%
%LPD*%
G01*
G04 APERTURE LIST*
G04 Aperture macros list*
%AMRoundRect*
0 Rectangle with rounded corners*
0 $1 Rounding radius*
0 $2 $3 $4 $5 $6 $7 $8 $9 X,Y pos of 4 corners*
0 Add a 4 corners polygon primitive as box body*
4,1,4,$2,$3,$4,$5,$6,$7,$8,$9,$2,$3,0*
0 Add four circle primitives for the rounded corners*
1,1,$1+$1,$2,$3*
1,1,$1+$1,$4,$5*
1,1,$1+$1,$6,$7*
1,1,$1+$1,$8,$9*
0 Add four rect primitives between the rounded corners*
20,1,$1+$1,$2,$3,$4,$5,0*
20,1,$1+$1,$4,$5,$6,$7,0*
20,1,$1+$1,$6,$7,$8,$9,0*
20,1,$1+$1,$8,$9,$2,$3,0*%
G04 Aperture macros list end*
%ADD10O,1.700000X4.200000*%
%ADD11RoundRect,0.250000X0.600000X-1.850000X0.600000X1.850000X-0.600000X1.850000X-0.600000X-1.850000X0*%
%ADD12C,1.000000*%
%ADD13C,0.700000*%
%ADD14C,4.400000*%
%ADD15C,1.700000*%
%ADD16C,3.500000*%
%ADD17R,1.700000X1.700000*%
%ADD18O,1.700000X1.700000*%
%ADD19O,1.727200X1.727200*%
%ADD20R,1.727200X1.727200*%
%ADD21C,1.727200*%
%ADD22RoundRect,0.250000X-0.600000X1.850000X-0.600000X-1.850000X0.600000X-1.850000X0.600000X1.850000X0*%
G04 APERTURE END LIST*
D10*
%TO.C,J8*%
X90320000Y-125174999D03*
X92860004Y-125175002D03*
D11*
X95400000Y-125174999D03*
D10*
X97940000Y-125174999D03*
X100480000Y-125175004D03*
X103019999Y-125174999D03*
X105560000Y-125174999D03*
D11*
X108100000Y-125174999D03*
D10*
X110640000Y-125174999D03*
X113179998Y-125174999D03*
X115720000Y-125174999D03*
X118260000Y-125174999D03*
D11*
X120800000Y-125175000D03*
D10*
X123340000Y-125174999D03*
X125880000Y-125174999D03*
X128419999Y-125174999D03*
X130960000Y-125174999D03*
D11*
X133500000Y-125174999D03*
D10*
X136040002Y-125175000D03*
X138580000Y-125174999D03*
%TD*%
D12*
%TO.C,SW1*%
X62257180Y-122964645D03*
X70035355Y-130742820D03*
%TD*%
D13*
%TO.C,REF\u002A\u002A*%
X133350000Y-5000000D03*
X133833274Y-3833274D03*
X133833274Y-6166726D03*
X135000000Y-3350000D03*
D14*
X135000000Y-5000000D03*
D13*
X135000000Y-6650000D03*
X136166726Y-3833274D03*
X136166726Y-6166726D03*
X136650000Y-5000000D03*
%TD*%
D15*
%TO.C,J2*%
X7760000Y-119530000D03*
X7760000Y-129690000D03*
X17920000Y-119530000D03*
X17920000Y-129690000D03*
D16*
X14120000Y-124610000D03*
%TD*%
D17*
%TO.C,J4*%
X24275000Y-123335000D03*
D18*
X26815000Y-123335000D03*
X24275000Y-125875000D03*
X26815000Y-125875000D03*
%TD*%
D17*
%TO.C,J5*%
X39520000Y-103020000D03*
D18*
X42060000Y-103020000D03*
X39520000Y-105560000D03*
X42060000Y-105560000D03*
%TD*%
D17*
%TO.C,J3*%
X24275000Y-103035000D03*
D18*
X26815000Y-103035000D03*
X24275000Y-105575000D03*
X26815000Y-105575000D03*
X24275000Y-108115000D03*
X26815000Y-108115000D03*
%TD*%
D19*
%TO.C,X1*%
X67520000Y-68750000D03*
D20*
X67520000Y-71290000D03*
D19*
X70060000Y-68750000D03*
X70060000Y-71290000D03*
D21*
X72600000Y-68750000D03*
X72600000Y-71290000D03*
%TD*%
D15*
%TO.C,J1*%
X7760000Y-100480000D03*
X7760000Y-110640000D03*
X17920000Y-100480000D03*
X17920000Y-110640000D03*
D16*
X14120000Y-105560000D03*
%TD*%
D10*
%TO.C,J7*%
X138580000Y-104995000D03*
X136039996Y-104994999D03*
D22*
X133500000Y-104995000D03*
D10*
X130960000Y-104995000D03*
X128420001Y-104994997D03*
X125880001Y-104995000D03*
X123340000Y-104995000D03*
D22*
X120800000Y-104995000D03*
D10*
X118260000Y-104995000D03*
X115720002Y-104995000D03*
X113180000Y-104995000D03*
X110640000Y-104995000D03*
D22*
X108100000Y-104994999D03*
D10*
X105560000Y-104995000D03*
X103020000Y-104995000D03*
X100480003Y-104995000D03*
X97940000Y-104995000D03*
D22*
X95400000Y-104995000D03*
D10*
X92859998Y-104994999D03*
X90320000Y-104995000D03*
%TD*%
D13*
%TO.C,REF\u002A\u002A*%
X3350000Y-135000000D03*
X3833274Y-133833274D03*
X3833274Y-136166726D03*
X5000000Y-133350000D03*
D14*
X5000000Y-135000000D03*
D13*
X5000000Y-136650000D03*
X6166726Y-133833274D03*
X6166726Y-136166726D03*
X6650000Y-135000000D03*
%TD*%
%TO.C,REF\u002A\u002A*%
X133350000Y-135000000D03*
X133833274Y-133833274D03*
X133833274Y-136166726D03*
X135000000Y-133350000D03*
D14*
X135000000Y-135000000D03*
D13*
X135000000Y-136650000D03*
X136166726Y-133833274D03*
X136166726Y-136166726D03*
X136650000Y-135000000D03*
%TD*%
%TO.C,REF\u002A\u002A*%
X3350000Y-5000000D03*
X3833274Y-3833274D03*
X3833274Y-6166726D03*
X5000000Y-3350000D03*
D14*
X5000000Y-5000000D03*
D13*
X5000000Y-6650000D03*
X6166726Y-3833274D03*
X6166726Y-6166726D03*
X6650000Y-5000000D03*
%TD*%
M02*
