%TF.GenerationSoftware,KiCad,Pcbnew,8.99.0-2651-g201b60c670*%
%TF.CreationDate,2024-10-15T13:29:42+02:00*%
%TF.ProjectId,SAO Dev Board,53414f20-4465-4762-9042-6f6172642e6b,1.1*%
%TF.SameCoordinates,PX1c9c380PY1c9c380*%
%TF.FileFunction,Paste,Top*%
%TF.FilePolarity,Positive*%
%FSLAX46Y46*%
G04 Gerber Fmt 4.6, Leading zero omitted, Abs format (unit mm)*
G04 Created by KiCad (PCBNEW 8.99.0-2651-g201b60c670) date 2024-10-15 13:29:42*
%MOMM*%
%LPD*%
G01*
G04 APERTURE LIST*
G04 Aperture macros list*
%AMRoundRect*
0 Rectangle with rounded corners*
0 $1 Rounding radius*
0 $2 $3 $4 $5 $6 $7 $8 $9 X,Y pos of 4 corners*
0 Add a 4 corners polygon primitive as box body*
4,1,4,$2,$3,$4,$5,$6,$7,$8,$9,$2,$3,0*
0 Add four circle primitives for the rounded corners*
1,1,$1+$1,$2,$3*
1,1,$1+$1,$4,$5*
1,1,$1+$1,$6,$7*
1,1,$1+$1,$8,$9*
0 Add four rect primitives between the rounded corners*
20,1,$1+$1,$2,$3,$4,$5,0*
20,1,$1+$1,$4,$5,$6,$7,0*
20,1,$1+$1,$6,$7,$8,$9,0*
20,1,$1+$1,$8,$9,$2,$3,0*%
%AMRotRect*
0 Rectangle, with rotation*
0 The origin of the aperture is its center*
0 $1 length*
0 $2 width*
0 $3 Rotation angle, in degrees counterclockwise*
0 Add horizontal line*
21,1,$1,$2,0,0,$3*%
G04 Aperture macros list end*
%ADD10RoundRect,0.225000X-0.250000X0.225000X-0.250000X-0.225000X0.250000X-0.225000X0.250000X0.225000X0*%
%ADD11RotRect,1.400000X1.900000X315.000000*%
%ADD12RotRect,1.700000X1.200000X315.000000*%
%ADD13RoundRect,0.200000X-0.275000X0.200000X-0.275000X-0.200000X0.275000X-0.200000X0.275000X0.200000X0*%
%ADD14RoundRect,0.200000X0.275000X-0.200000X0.275000X0.200000X-0.275000X0.200000X-0.275000X-0.200000X0*%
%ADD15RoundRect,0.225000X0.250000X-0.225000X0.250000X0.225000X-0.250000X0.225000X-0.250000X-0.225000X0*%
%ADD16RoundRect,0.218750X0.256250X-0.218750X0.256250X0.218750X-0.256250X0.218750X-0.256250X-0.218750X0*%
%ADD17R,1.700000X1.000000*%
%ADD18RoundRect,0.150000X-0.150000X-0.625000X0.150000X-0.625000X0.150000X0.625000X-0.150000X0.625000X0*%
%ADD19RoundRect,0.250000X-0.350000X-0.650000X0.350000X-0.650000X0.350000X0.650000X-0.350000X0.650000X0*%
%ADD20R,0.400000X2.540000*%
G04 APERTURE END LIST*
D10*
%TO.C,C5*%
X45108000Y-125024999D03*
X45108000Y-126575001D03*
%TD*%
D11*
%TO.C,SW1*%
X71909187Y-116141064D03*
X63141065Y-124909188D03*
X76858935Y-121090812D03*
X68090813Y-129858936D03*
D12*
X69179757Y-115815796D03*
X67065507Y-117944187D03*
X64944187Y-120065507D03*
X77177135Y-123813172D03*
X75055813Y-125934493D03*
X72934493Y-128055813D03*
%TD*%
D13*
%TO.C,R1*%
X82500000Y-105375000D03*
X82500000Y-107025000D03*
%TD*%
D10*
%TO.C,C3*%
X40728000Y-125024999D03*
X40728000Y-126575001D03*
%TD*%
D13*
%TO.C,R7*%
X46728000Y-124975000D03*
X46728000Y-126625000D03*
%TD*%
%TO.C,R6*%
X48328000Y-124975000D03*
X48328000Y-126625000D03*
%TD*%
D14*
%TO.C,R3*%
X95400000Y-135849000D03*
X95400000Y-134199000D03*
%TD*%
D10*
%TO.C,C1*%
X37428000Y-125024999D03*
X37428000Y-126575001D03*
%TD*%
D13*
%TO.C,R2*%
X84200000Y-105375000D03*
X84200000Y-107025000D03*
%TD*%
%TO.C,R5*%
X43528000Y-124975000D03*
X43528000Y-126625000D03*
%TD*%
D14*
%TO.C,R4*%
X106195000Y-135825000D03*
X106195000Y-134175000D03*
%TD*%
D15*
%TO.C,C6*%
X52728000Y-126575001D03*
X52728000Y-125024999D03*
%TD*%
D16*
%TO.C,D1*%
X92860000Y-135811501D03*
X92860000Y-134236499D03*
%TD*%
D15*
%TO.C,C4*%
X54328000Y-126575001D03*
X54328000Y-125024999D03*
%TD*%
D16*
%TO.C,D2*%
X103655000Y-135787501D03*
X103655000Y-134212499D03*
%TD*%
D10*
%TO.C,C2*%
X39028000Y-125024999D03*
X39028000Y-126575001D03*
%TD*%
D17*
%TO.C,SW2*%
X118150000Y-136900000D03*
X111850000Y-136900000D03*
X118150000Y-133100000D03*
X111850000Y-133100000D03*
%TD*%
D18*
%TO.C,J6*%
X23500000Y-134675001D03*
X24500000Y-134675000D03*
X25500000Y-134675000D03*
X26499999Y-134675001D03*
D19*
X22200000Y-138549999D03*
X27800000Y-138550000D03*
%TD*%
D20*
%TO.C,OLEDM1*%
X36008000Y-132670000D03*
X36708000Y-132670000D03*
X37408000Y-132670000D03*
X38108000Y-132670000D03*
X38808000Y-132670000D03*
X39508000Y-132670000D03*
X40208000Y-132670000D03*
X40908000Y-132670000D03*
X41608000Y-132670000D03*
X42308000Y-132670000D03*
X43008000Y-132670000D03*
X43708000Y-132670000D03*
X44408000Y-132670000D03*
X45108000Y-132670000D03*
X45808000Y-132670000D03*
X46508000Y-132670000D03*
X47208000Y-132670000D03*
X47908000Y-132670000D03*
X48608000Y-132670000D03*
X49308000Y-132670000D03*
X50008000Y-132670000D03*
X50708000Y-132670000D03*
X51408000Y-132670000D03*
X52108000Y-132670000D03*
X52808000Y-132670000D03*
X53508000Y-132670000D03*
X54208000Y-132670000D03*
X54908000Y-132670000D03*
X55608000Y-132670000D03*
X56308000Y-132670000D03*
%TD*%
D14*
%TO.C,R8*%
X51128000Y-126625000D03*
X51128000Y-124975000D03*
%TD*%
M02*
