M48
; DRILL file {KiCad 8.99.0-2433-g53022ab347} date 2024-09-29T19:38:40+0200
; FORMAT={-:-/ absolute / inch / decimal}
; #@! TF.CreationDate,2024-09-29T19:38:40+02:00
; #@! TF.GenerationSoftware,Kicad,Pcbnew,8.99.0-2433-g53022ab347
; #@! TF.FileFunction,Plated,1,2,PTH
FMAT,2
INCH
; #@! TA.AperFunction,Plated,PTH,ViaDrill
T1C0.0118
; #@! TA.AperFunction,Plated,PTH,ViaDrill
T2C0.0157
; #@! TA.AperFunction,Plated,PTH,ComponentDrill
T3C0.0157
; #@! TA.AperFunction,Plated,PTH,ViaDrill
T4C0.0236
; #@! TA.AperFunction,Plated,PTH,ComponentDrill
T5C0.0394
; #@! TA.AperFunction,Plated,PTH,ComponentDrill
T6C0.0400
; #@! TA.AperFunction,Plated,PTH,ComponentDrill
T7C0.0866
%
G90
G05
T1
X2.418Y-4.0926
X2.4449Y-4.0984
T2
X1.5838Y-5.1024
X1.6606Y-4.878
X1.6665Y-5.1083
X1.7334Y-5.1083
X1.759Y-5.3071
X1.7747Y-4.878
X1.8239Y-5.1122
X1.8377Y-5.3051
X1.8751Y-5.061
X1.9893Y-5.1201
X2.0444Y-5.0354
X2.1074Y-5.0551
X2.326Y-4.0559
X2.622Y-4.7835
X2.6457Y-4.5236
X2.7205Y-4.689
X2.9449Y-5.1142
X3.126Y-4.9606
X3.1811Y-4.1378
T3
X0.1319Y-0.1969
X0.1319Y-5.315
X0.1509Y-0.1509
X0.1509Y-0.2428
X0.1509Y-5.269
X0.1509Y-5.3609
X0.1969Y-0.1319
X0.1969Y-0.2618
X0.1969Y-5.25
X0.1969Y-5.3799
X0.2428Y-0.1509
X0.2428Y-0.2428
X0.2428Y-5.269
X0.2428Y-5.3609
X0.2618Y-0.1969
X0.2618Y-5.315
X5.25Y-0.1969
X5.25Y-5.315
X5.269Y-0.1509
X5.269Y-0.2428
X5.269Y-5.269
X5.269Y-5.3609
X5.315Y-0.1319
X5.315Y-0.2618
X5.315Y-5.25
X5.315Y-5.3799
X5.3609Y-0.1509
X5.3609Y-0.2428
X5.3609Y-5.269
X5.3609Y-5.3609
X5.3799Y-0.1969
X5.3799Y-5.315
T4
X1.7461Y-4.2441
T5
X0.9557Y-4.0565
X0.9557Y-4.1565
X0.9557Y-4.2565
X0.9557Y-4.8557
X0.9557Y-4.9557
X1.0557Y-4.0565
X1.0557Y-4.1565
X1.0557Y-4.2565
X1.0557Y-4.8557
X1.0557Y-4.9557
X1.5559Y-4.0559
X1.5559Y-4.1559
X1.6559Y-4.0559
X1.6559Y-4.1559
X3.5559Y-4.8809
X3.5559Y-4.1809
X3.6559Y-4.8809
X3.6559Y-4.1809
X3.7559Y-4.8809
X3.7559Y-4.1809
X3.8559Y-4.8809
X3.8559Y-4.1809
X3.9559Y-4.8809
X3.9559Y-4.1809
X4.0559Y-4.8809
X4.0559Y-4.1809
X4.1559Y-4.8809
X4.1559Y-4.1809
X4.2559Y-4.8809
X4.2559Y-4.1809
X4.3559Y-4.8809
X4.3559Y-4.1809
X4.4559Y-4.8809
X4.4559Y-4.1809
X4.5559Y-4.8809
X4.5559Y-4.1809
X4.6559Y-4.8809
X4.6559Y-4.1809
X4.7559Y-4.8809
X4.7559Y-4.1809
X4.8559Y-4.8809
X4.8559Y-4.1809
X4.9559Y-4.8809
X4.9559Y-4.1809
X5.0559Y-4.8809
X5.0559Y-4.1809
X5.1559Y-4.8809
X5.1559Y-4.1809
X5.2559Y-4.8809
X5.2559Y-4.1809
X5.3559Y-4.8809
X5.3559Y-4.1809
X5.4559Y-4.8809
X5.4559Y-4.1809
T6
X2.6583Y-2.7067
X2.6583Y-2.8067
X2.7583Y-2.7067
X2.7583Y-2.8067
X2.8583Y-2.7067
X2.8583Y-2.8067
T7
X0.1969Y-0.1969
X0.1969Y-5.315
X0.5559Y-4.1559
X0.5559Y-4.9059
X5.315Y-0.1969
X5.315Y-5.315
M30
